<?xml version="1.0" standalone="no"?>
<!DOCTYPE svg PUBLIC "-//W3C//DTD SVG 1.1//EN" "http://www.w3.org/Graphics/SVG/1.1/DTD/svg11.dtd" >
<svg>
<metadata>
Created by FontForge 20120731 at Sun Sep 11 11:39:54 2016
 By ,,,
Copyright (c) 2015, Christian Thalmann and the Cormorant Project Authors (github.com/CatharsisFonts/Cormorant)
</metadata>
<defs>
<font id="CormorantInfant-Regular" horiz-adv-x="766" >
  <font-face 
    font-family="Cormorant Infant"
    font-weight="400"
    font-stretch="normal"
    units-per-em="1000"
    panose-1="0 0 5 0 0 0 0 0 0 0"
    ascent="725"
    descent="-275"
    x-height="386"
    cap-height="625"
    bbox="-102.1 -282.167 1233.14 924.947"
    underline-thickness="50"
    underline-position="-50"
    unicode-range="U+0020-A729"
  />
<missing-glyph horiz-adv-x="501" 
d="M94 725h317v-1000h-317v1000zM233 626v-38h-66v-32h166v32h-66v38h66v32h-165v-32h65zM333 426v34h-66v69h-100v-103h166zM200 495h33v-35h-33v35zM233 365v-36h-66v-34h100v70h66v33h-166v-33h66zM167 273v-34h166v99h-32v-65h-134zM267 160v24h34v-48h-101v80h-33v-113
h166v113h-100v-56h34zM333 -70v113h-166v-113h166zM200 11h101v-48h-101v48zM237 -126l-70 -47v-33h166v33h-101l69 47h32v34h-166v-34h70z" />
    <glyph glyph-name="T_T.liga" unicode="TT" horiz-adv-x="1149" 
d="M1108 654q5 0 5 -4q-3 -28 -6 -87.5t-3 -95.5q0 -3 -5.5 -3t-6.5 3q-4 78 -32.5 109.5t-96.5 31.5q-45 0 -63.5 -4t-25.5 -17t-7 -45v-461q0 -31 6.5 -45t26.5 -19t64 -5q3 0 3 -6t-3 -6q-34 0 -54 1l-77 1l-75 -1q-20 -1 -55 -1q-2 0 -2 6t2 6q43 0 63 5t27.5 19.5
t7.5 44.5v463q0 30 -6.5 43t-23.5 17t-58 4q-61 0 -85 -8t-32.5 -35t-11.5 -98q0 -3 -6 -3t-6 3q1 71 -6.5 98t-33.5 35t-94 8q-38 0 -55.5 -4.5t-24 -18.5t-6.5 -43v-461q0 -30 6 -44.5t24 -19.5t56 -5q2 0 2 -6t-2 -6q-31 0 -49 1l-71 1l-75 -1q-20 -1 -54 -1q-3 0 -3 6
t3 6q43 0 63 5t27.5 19.5t7.5 44.5v463q0 31 -7.5 44t-26.5 16.5t-64 3.5q-62 0 -93.5 -31.5t-45.5 -110.5q-1 -2 -6.5 -2t-5.5 3q4 29 9.5 89t5.5 91q0 5 6 5t6 -5q0 -22 52 -22q87 -3 201 -3q55 0 119 2l63 1q42 0 55.5 1t17 6t4.5 19q0 4 6 4t6 -4l-1 -11q0 -8 4 -10.5
t18 -3.5t34 -1q79 -3 189 -3q60 0 126 2l67 1q36 0 53.5 5t22.5 20q1 4 6 4z" />
    <glyph glyph-name="T_h.liga" unicode="Th" horiz-adv-x="1028" 
d="M1009 6q0 -6 -3 -6q-23 0 -37 1l-54 1l-54 -1q-14 -1 -37 -1q-3 0 -3 6t3 6q27 0 40 5.5t18 20t5 43.5v159q0 59 -22.5 87.5t-69.5 28.5q-31 0 -63 -16.5t-58 -45.5v-213q0 -30 5 -44t18 -19.5t40 -5.5q3 0 3 -6t-3 -6q-23 0 -37 1l-54 1l-54 -1q-14 -1 -37 -1q-3 0 -3 6
t3 6q27 0 40 5.5t18 20t5 43.5v514q0 13 -14 13h-155q-45 0 -64 -4t-26 -17.5t-7 -44.5v-461q0 -31 7 -45t27 -19t63 -5q3 0 3 -6t-3 -6q-34 0 -53 1l-78 1l-75 -1q-20 -1 -55 -1q-2 0 -2 6t2 6q43 0 63 5t27.5 19.5t7.5 44.5v463q0 31 -7 44t-26 16.5t-64 3.5
q-63 0 -94.5 -32.5t-44.5 -109.5q-1 -2 -6.5 -2t-5.5 3q4 27 9 87.5t5 92.5q0 5 6 5t6 -5q0 -22 53 -22q57 -2 201 -2t193 2q61 2 99.5 27t50.5 73q0 3 6 3q2 0 4.5 -1.5t2.5 -2.5v-413q74 86 154 86q55 0 85 -31.5t30 -91.5v-193q0 -30 5 -44t18 -19.5t40 -5.5q3 0 3 -6z
" />
    <glyph glyph-name="f_b.liga" unicode="fb" horiz-adv-x="821" 
d="M704 378q37 -21 59 -62.5t22 -101.5q0 -72 -31.5 -123.5t-82 -77.5t-106.5 -26q-77 0 -138 43l-74 -34l-2 -1q-4 0 -5 4t2 6q32 22 45 41.5t13 56.5v529q-47 78 -121 78q-36 0 -61 -18t-40 -58q-26 -62 -26 -195v-64q59 1 129 9q2 0 4.5 -6.5t2.5 -15.5q0 -8 -3.5 -17
t-7.5 -8q-56 14 -125 16v-272q0 -31 6.5 -45t26.5 -19t65 -5q3 0 3 -6t-3 -6l-64 1q-21 1 -63 1l-56 -1q-15 -1 -41 -1q-3 0 -3 6t3 6q30 0 44 5.5t19.5 19.5t5.5 44v225q0 25 -5 36t-19.5 14.5t-48.5 3.5q-4 0 -4 6.5t4 6.5q41 0 55.5 9.5t15.5 35.5q6 152 49 223
q26 43 66.5 64t96.5 21q81 0 131 -38q11 19 11 40q0 3 6 3t6 -3l-1 -413q36 38 74.5 61t85.5 23q43 0 80 -21zM686.5 51q32.5 45 32.5 130q0 89 -35.5 137t-92.5 48q-34 0 -64.5 -18t-62.5 -50v-216q56 -76 132 -76q58 0 90.5 45z" />
    <glyph glyph-name="f_f.liga" unicode="ff" horiz-adv-x="600" 
d="M697.5 711q32.5 -15 32.5 -37q0 -16 -10.5 -24.5t-24.5 -8.5q-12 0 -20.5 6t-19.5 21q-15 21 -32.5 31t-43.5 10q-58 0 -92 -67t-34 -203v-65q48 2 128 11q3 0 5 -7t2 -17q0 -8 -3.5 -16.5t-6.5 -7.5q-58 14 -125 16v-272q0 -31 6.5 -45t26.5 -19t65 -5q2 0 2 -6t-2 -6
l-65 1q-20 1 -63 1l-55 -1q-15 -1 -42 -1q-2 0 -2 6t2 6q30 0 44.5 5t19.5 19.5t5 44.5v225q0 18 -3 30q-4 11 -18.5 14t-60.5 4q-34 2 -155 2v-275q0 -31 7 -45t27 -19t64 -5q3 0 3 -6t-3 -6l-64 1q-21 1 -63 1l-57 -1q-15 -1 -40 -1q-3 0 -3 6t3 6q30 0 44 5.5t19.5 19.5
t5.5 44v225q0 25 -5 36t-19.5 14.5t-48.5 3.5q-4 0 -4 6.5t4 6.5q41 0 55.5 9.5t15.5 35.5q7 134 68 203.5t166 69.5q73 0 129 -27q52 62 152 62q51 0 83.5 -15zM430 612q-26 29 -59.5 45.5t-69.5 16.5q-66 0 -104.5 -60t-38.5 -175v-65q121 0 164 1q30 1 45.5 5t21.5 14
q5 10 5 24q4 122 36 194z" />
    <glyph glyph-name="f_f_b.liga" unicode="ffb" horiz-adv-x="1116" 
d="M998.5 378q36.5 -21 59 -63t22.5 -101q0 -72 -31.5 -123.5t-82 -77.5t-106.5 -26q-77 0 -138 43l-74 -35h-2q-4 0 -5 4t2 6q32 23 45 42t13 56l1 526q-46 81 -123 81q-73 0 -101 -76q-25 -63 -25 -195v-65q48 2 128 11q3 0 5 -7t2 -17q0 -8 -3.5 -16.5t-6.5 -7.5
q-58 14 -125 16v-272q0 -31 6.5 -45t26.5 -19t65 -5q2 0 2 -6t-2 -6l-65 1q-20 1 -63 1l-55 -1q-15 -1 -42 -1q-2 0 -2 6t2 6q30 0 44.5 5t19.5 19.5t5 44.5v225q0 18 -3 30q-4 11 -18.5 14t-60.5 4q-34 2 -155 2v-275q0 -31 7 -45t27 -19t64 -5q3 0 3 -6t-3 -6l-64 1
q-21 1 -63 1l-57 -1q-15 -1 -40 -1q-3 0 -3 6t3 6q30 0 44 5.5t19.5 19.5t5.5 44v225q0 25 -5 36t-19.5 14.5t-48.5 3.5q-4 0 -4 6.5t4 6.5q41 0 55.5 9.5t15.5 35.5q7 134 68 203.5t166 69.5q71 0 127 -26q51 61 146 61q40 0 74 -10t56 -28q11 19 11 41q0 2 6 2t6 -2v-414
q36 38 74.5 61t85.5 23q43 0 79.5 -21zM429 613q-26 29 -59 45t-69 16q-66 0 -104.5 -60t-38.5 -175v-65q121 0 164 1q30 1 45.5 5t21.5 14q5 10 5 24q5 124 35 195zM981.5 51q32.5 45 32.5 130q0 89 -35.5 137t-93.5 48q-34 0 -64.5 -18t-61.5 -50v-216q30 -40 62 -58
t69 -18q59 0 91.5 45z" />
    <glyph glyph-name="f_f_f.liga" unicode="fff" horiz-adv-x="896" 
d="M993.5 711q32.5 -15 32.5 -37q0 -16 -10.5 -24.5t-25.5 -8.5q-12 0 -20 6t-19 21q-15 21 -32.5 31t-43.5 10q-58 0 -92.5 -67t-34.5 -203v-65q49 2 129 11q3 0 5 -7t2 -17q0 -8 -3.5 -16.5t-7.5 -7.5q-56 14 -125 16v-272q0 -31 7 -45t27 -19t65 -5q2 0 2 -6t-2 -6l-65 1
q-21 1 -63 1l-55 -1q-15 -1 -42 -1q-2 0 -2 6t2 6q30 0 44 5.5t19.5 19.5t5.5 44v225q-1 25 -5 33.5t-18.5 11t-59.5 3.5q-34 1 -155 1v-274q0 -31 6.5 -45t26.5 -19t65 -5q3 0 3 -6t-3 -6l-65 1q-21 1 -63 1l-55 -1q-15 -1 -42 -1q-2 0 -2 6t2 6q30 0 44.5 5t19.5 19.5
t5 44.5v225q0 21 -2 28q-4 13 -18.5 16t-61.5 4q-34 2 -155 2v-275q0 -31 7 -45t27 -19t64 -5q3 0 3 -6t-3 -6l-64 1q-21 1 -63 1l-57 -1q-15 -1 -40 -1q-3 0 -3 6t3 6q30 0 44 5.5t19.5 19.5t5.5 44v225q0 25 -5 36t-19.5 14.5t-48.5 3.5q-4 0 -4 6.5t4 6.5q41 0 55.5 9.5
t15.5 35.5q7 134 68 203.5t166 69.5q45 0 81.5 -10t61.5 -25q59 59 153 59q73 0 131 -49q51 60 150 60q51 0 83.5 -15zM727 615q-26 38 -60 59.5t-72 21.5q-65 0 -103.5 -66t-38.5 -191v-64q121 0 163 1q43 1 57.5 9t16.5 33q5 126 37 197zM437 603q-27 34 -62 52.5
t-74 18.5q-66 0 -104.5 -60t-38.5 -175v-65q121 0 164 1q30 1 45.5 5t21.5 14q5 10 5 24q4 113 43 185z" />
    <glyph glyph-name="f_f_h.liga" unicode="ffh" horiz-adv-x="1112" 
d="M1093 6q0 -6 -3 -6q-24 0 -38 1l-53 1l-55 -1q-13 -1 -36 -1q-3 0 -3 6t3 6q38 0 50.5 13.5t12.5 55.5v160q0 115 -93 115q-31 0 -62.5 -16t-57.5 -45v-214q0 -29 4.5 -43.5t17.5 -20t41 -5.5q3 0 3 -6t-3 -6q-24 0 -38 1l-53 1l-55 -1q-13 -1 -36 -1q-3 0 -3 6t3 6
q38 0 50.5 13.5t12.5 55.5v548q-46 81 -123 81q-64 0 -95 -63.5t-31 -207.5v-65q48 2 128 11q3 0 5 -7t2 -17q0 -8 -3.5 -16.5t-6.5 -7.5q-58 14 -125 16v-272q0 -31 6.5 -45t26.5 -19t65 -5q2 0 2 -6t-2 -6l-65 1q-20 1 -63 1l-55 -1q-15 -1 -42 -1q-2 0 -2 6t2 6
q30 0 44.5 5t19.5 19.5t5 44.5v225q0 18 -3 30q-4 11 -18.5 14t-60.5 4q-34 2 -155 2v-275q0 -31 7 -45t27 -19t64 -5q3 0 3 -6t-3 -6l-64 1q-21 1 -63 1l-57 -1q-15 -1 -40 -1q-3 0 -3 6t3 6q30 0 44 5.5t19.5 19.5t5.5 44v225q0 25 -5 36t-19.5 14.5t-48.5 3.5
q-4 0 -4 6.5t4 6.5q41 0 55.5 9.5t15.5 35.5q7 134 68 203.5t166 69.5q69 0 127 -26q51 61 146 61q83 0 129 -38q11 19 11 41q0 2 6 2t6 -2v-418q38 44 75.5 64.5t77.5 20.5q56 0 86 -31t30 -90v-194q0 -29 4.5 -43.5t17.5 -20t41 -5.5q3 0 3 -6zM429 613q-26 29 -59 45
t-69 16q-66 0 -104.5 -60t-38.5 -175v-65q121 0 164 1q30 1 45.5 5t21.5 14q5 10 5 24q5 124 35 195z" />
    <glyph glyph-name="f_f_i.liga" unicode="ffi" horiz-adv-x="863" 
d="M493 642q-40 -67 -40 -203v-65q34 1 128 11q3 0 5 -7.5t2 -17.5q0 -9 -4 -18t-6 -7q-65 19 -125 22v-276q0 -31 6.5 -45t26.5 -19t65 -5q2 0 2 -6t-2 -6l-65 1q-20 1 -63 1l-55 -1q-15 -1 -42 -1q-2 0 -2 6t2 6q30 0 44.5 5t19.5 19.5t5 44.5v225q0 18 -3 30
q-4 11 -18.5 14t-60.5 4q-34 2 -155 2v-275q0 -31 7 -45t27 -19t64 -5q3 0 3 -6t-3 -6l-64 1q-21 1 -63 1l-57 -1q-15 -1 -40 -1q-3 0 -3 6t3 6q30 0 44 5.5t19.5 19.5t5.5 44v225q0 25 -5 36t-19.5 14.5t-48.5 3.5q-4 0 -4 6.5t4 6.5q41 0 55.5 9.5t15.5 35.5
q7 134 68 203.5t166 69.5q80 0 135 -31q59 66 164 66q56 0 91 -22.5t35 -52.5q0 -14 -8 -22.5t-22 -8.5q-15 0 -24 9t-18 26q-16 26 -33.5 40t-53.5 14q-66 0 -106 -67zM433 607q-26 32 -60 49.5t-72 17.5q-66 0 -104.5 -60t-38.5 -175v-65q121 0 164 1q30 1 45.5 5t21.5 14
q5 10 5 24q4 118 39 189zM829 6q0 -6 -2 -6q-24 0 -38 1l-53 1l-54 -1q-14 -1 -38 -1q-2 0 -2 6t2 6q27 0 40.5 5.5t18.5 20t5 43.5v187q0 36 -7 52t-25 16q-16 0 -47 -14h-1q-3 0 -5 5t2 6l129 62q1 1 3 1q3 0 6 -3t3 -6q0 -7 -1 -40t-1 -78v-188q0 -29 5 -43.5t18 -20
t40 -5.5q2 0 2 -6z" />
    <glyph glyph-name="f_f_j.liga" unicode="ffj" horiz-adv-x="864" 
d="M494 642q-41 -67 -41 -203v-65q48 2 128 11q3 0 5 -7t2 -17q0 -8 -3.5 -16.5t-6.5 -7.5q-58 14 -125 16v-272q0 -31 6.5 -45t26.5 -19t65 -5q2 0 2 -6t-2 -6l-65 1q-20 1 -63 1l-55 -1q-15 -1 -42 -1q-2 0 -2 6t2 6q30 0 44.5 5t19.5 19.5t5 44.5v225q0 18 -3 30
q-4 11 -18.5 14t-60.5 4q-34 2 -155 2v-275q0 -31 7 -45t27 -19t64 -5q3 0 3 -6t-3 -6l-64 1q-21 1 -63 1l-57 -1q-15 -1 -40 -1q-3 0 -3 6t3 6q30 0 44 5.5t19.5 19.5t5.5 44v225q0 25 -5 36t-19.5 14.5t-48.5 3.5q-4 0 -4 6.5t4 6.5q41 0 55.5 9.5t15.5 35.5
q7 134 68 203.5t166 69.5q81 0 136 -31q60 66 166 66q60 0 97.5 -22t37.5 -53q0 -14 -8.5 -22.5t-22.5 -8.5q-16 0 -25.5 8.5t-19.5 26.5q-17 26 -35 40t-55 14q-69 0 -110 -67zM434 607q-27 32 -61.5 49.5t-71.5 17.5q-66 0 -104.5 -60t-38.5 -175v-65q121 0 164 1
q30 1 45.5 5t21.5 14q5 10 5 24q4 119 40 189zM766 396q3 0 5.5 -3t2.5 -6q0 -7 -1 -40t-1 -78v-317q0 -68 -13 -110t-43 -69.5t-84 -48.5q-3 -1 -5.5 4.5t0.5 6.5q49 21 69 65t20 129v339q0 36 -7.5 52t-25.5 16q-15 0 -46 -14h-2q-3 0 -4.5 5t2.5 6l130 62q1 1 3 1z" />
    <glyph glyph-name="f_f_k.liga" unicode="ffk" horiz-adv-x="1104" 
d="M1098 6q0 -6 -2 -6q-25 0 -39 1l-52 1l-73 -1q-16 -1 -42 -1q-2 0 -2 6t2 6q25 0 37 4.5t12 14.5q0 9 -9 22l-122 168l-50 -40v-100q0 -29 4.5 -43.5t17.5 -20t41 -5.5q3 0 3 -6t-3 -6q-24 0 -38 1l-53 1l-55 -1q-13 -1 -36 -1q-3 0 -3 6t3 6q38 0 50.5 13.5t12.5 55.5
v548q-46 81 -123 81q-64 0 -95 -63.5t-31 -207.5v-65q48 2 128 11q3 0 5 -7t2 -17q0 -8 -3.5 -16.5t-6.5 -7.5q-58 14 -125 16v-272q0 -31 6.5 -45t26.5 -19t65 -5q2 0 2 -6t-2 -6l-65 1q-20 1 -63 1l-55 -1q-15 -1 -42 -1q-2 0 -2 6t2 6q30 0 44.5 5t19.5 19.5t5 44.5v225
q0 18 -3 30q-4 11 -18.5 14t-60.5 4q-34 2 -155 2v-275q0 -31 7 -45t27 -19t64 -5q3 0 3 -6t-3 -6l-64 1q-21 1 -63 1l-57 -1q-15 -1 -40 -1q-3 0 -3 6t3 6q30 0 44 5.5t19.5 19.5t5.5 44v225q0 25 -5 36t-19.5 14.5t-48.5 3.5q-4 0 -4 6.5t4 6.5q41 0 55.5 9.5t15.5 35.5
q7 134 68 203.5t166 69.5q71 0 127 -26q51 61 144 61q42 0 76 -9.5t55 -27.5q11 17 11 40q0 2 6 2t6 -2v-532l134 108q32 25 32 44q0 25 -57 25q-3 0 -3 6t3 6q26 0 41 -1l73 -1l67 1q13 1 36 1q3 0 3 -6t-3 -6q-38 0 -83 -18t-90 -54l-58 -46l127 -175q27 -37 55.5 -53
t60.5 -16q2 0 2 -6zM429 612q-26 30 -59 46t-69 16q-66 0 -104.5 -60t-38.5 -175v-65q121 0 164 1q30 1 45.5 5t21.5 14q5 10 5 24q5 125 35 194z" />
    <glyph glyph-name="f_f_l.liga" unicode="ffl" horiz-adv-x="862" 
d="M836 6q0 -6 -2 -6q-24 0 -38 1l-54 1l-55 -1q-14 -1 -38 -1q-2 0 -2 6t2 6q27 0 40 5.5t18 20t5 43.5v547q-49 82 -128 82q-63 0 -97 -63.5t-34 -207.5v-65q34 1 128 11q3 0 5 -8t2 -17t-4 -18t-6 -7q-65 19 -125 22v-276q0 -31 6.5 -45t26.5 -19t65 -5q2 0 2 -6t-2 -6
l-65 1q-20 1 -63 1l-55 -1q-15 -1 -42 -1q-2 0 -2 6t2 6q30 0 44.5 5t19.5 19.5t5 44.5v225q0 18 -3 30q-4 11 -18.5 14t-60.5 4q-34 2 -155 2v-275q0 -31 7 -45t27 -19t64 -5q3 0 3 -6t-3 -6l-64 1q-21 1 -63 1l-57 -1q-15 -1 -40 -1q-3 0 -3 6t3 6q30 0 44 5.5t19.5 19.5
t5.5 44v225q0 25 -5 36t-19.5 14.5t-48.5 3.5q-4 0 -4 6.5t4 6.5q41 0 55.5 9.5t15.5 35.5q7 134 68 203.5t166 69.5q73 0 129 -27q50 62 147 62q88 0 137 -39q13 20 13 42q0 2 6 2t6 -2v-648q0 -29 4.5 -43.5t17.5 -20t41 -5.5q2 0 2 -6zM430 611q-26 30 -59.5 46.5
t-69.5 16.5q-66 0 -104.5 -60t-38.5 -175v-65q121 0 164 1q30 1 45.5 5t21.5 14q5 10 5 24q4 122 36 193z" />
    <glyph glyph-name="f_f_thorn.liga" unicode="ff&#xfe;" horiz-adv-x="1106" 
d="M993 377q35 -22 56 -63.5t21 -98.5q0 -75 -34 -126.5t-84 -76.5t-98 -25q-31 0 -55 6t-49 19v-206q0 -30 7 -44t27.5 -19.5t63.5 -5.5q2 0 2 -6t-2 -6q-34 0 -54 1l-74 1l-54 -1q-14 -1 -38 -1q-2 0 -2 6t2 6q28 0 41 5.5t18 19.5t5 44v839q-43 65 -113 65
q-64 0 -95 -63.5t-31 -207.5v-65q48 2 128 11q3 0 5 -7t2 -17q0 -8 -3.5 -16.5t-6.5 -7.5q-58 14 -125 16v-272q0 -31 6.5 -45t26.5 -19t65 -5q2 0 2 -6t-2 -6l-65 1q-20 1 -63 1l-55 -1q-15 -1 -42 -1q-2 0 -2 6t2 6q30 0 44.5 5t19.5 19.5t5 44.5v225q0 18 -3 30
q-4 11 -18.5 14t-60.5 4q-34 2 -155 2v-275q0 -31 7 -45t27 -19t64 -5q3 0 3 -6t-3 -6l-64 1q-21 1 -63 1l-57 -1q-15 -1 -40 -1q-3 0 -3 6t3 6q30 0 44 5.5t19.5 19.5t5.5 44v225q0 25 -5 36t-19.5 14.5t-48.5 3.5q-4 0 -4 6.5t4 6.5q41 0 55.5 9.5t15.5 35.5
q7 134 68 203.5t166 69.5q71 0 127 -26q51 61 144 61q77 0 125 -33q9 17 9 36q0 2 6 2t6 -2v-415q42 44 83 64.5t83 20.5t77 -22zM429 612q-26 30 -59 46t-69 16q-66 0 -104.5 -60t-38.5 -175v-65q121 0 164 1q30 1 45.5 5t21.5 14q5 10 5 24q5 125 35 194zM971.5 55
q34.5 47 34.5 129q0 83 -37.5 130t-94.5 47q-35 0 -64.5 -16.5t-59.5 -47.5v-227q28 -30 59 -46t75 -16q53 0 87.5 47z" />
    <glyph glyph-name="f_f_t.liga" unicode="fft" horiz-adv-x="917" 
d="M890 51q3 0 5 -4t0 -6q-37 -28 -67 -40.5t-61 -12.5q-42 0 -69 19t-27 63v236q0 28 -9 37t-48 11t-161 2v-275q0 -31 6.5 -45t26.5 -19t65 -5q2 0 2 -6t-2 -6l-65 1q-20 1 -63 1l-55 -1q-15 -1 -42 -1q-2 0 -2 6t2 6q30 0 44.5 5t19.5 19.5t5 44.5v225q0 18 -3 30
q-4 11 -18.5 14t-60.5 4q-34 2 -155 2v-275q0 -31 7 -45t27 -19t64 -5q3 0 3 -6t-3 -6l-64 1q-21 1 -63 1l-57 -1q-15 -1 -40 -1q-3 0 -3 6t3 6q30 0 44 5.5t19.5 19.5t5.5 44v225q0 25 -5 36t-19.5 14.5t-48.5 3.5q-4 0 -4 6.5t4 6.5q41 0 55.5 9.5t15.5 35.5
q7 134 68 203.5t166 69.5q73 0 129 -27q52 62 152 62q51 0 83.5 -15t32.5 -37q0 -16 -10.5 -24.5t-24.5 -8.5q-12 0 -21 6.5t-19 21.5q-15 21 -32.5 30.5t-43.5 9.5q-58 0 -92 -67t-34 -203v-64q42 0 141 3q46 1 70 7.5t34.5 21t14.5 42.5q0 4 8 4t8 -4v-75q35 1 118 9l21 2
q2 0 4.5 -7.5t2.5 -16.5q0 -8 -3.5 -16.5t-7.5 -7.5q-55 14 -135 16v-249q0 -82 79 -82q46 0 80 28zM430 612q-26 29 -59.5 45.5t-69.5 16.5q-66 0 -104.5 -60t-38.5 -175v-65q121 0 164 1q30 1 45.5 5t21.5 14q5 10 5 24q4 122 36 194z" />
    <glyph glyph-name="f_h.liga" unicode="fh" horiz-adv-x="817" 
d="M798 6q0 -6 -3 -6q-23 0 -37 1l-54 1l-54 -1q-14 -1 -38 -1q-2 0 -2 6t2 6q27 0 40 5.5t18 20t5 43.5v159q0 59 -22.5 87.5t-69.5 28.5q-31 0 -62.5 -16.5t-57.5 -45.5v-213q0 -30 5 -44t18 -19.5t40 -5.5q3 0 3 -6t-3 -6q-23 0 -37 1l-54 1l-54 -1q-14 -1 -38 -1
q-2 0 -2 6t2 6q27 0 40 5.5t18 20t5 43.5v551q-47 78 -121 78q-65 0 -96 -63.5t-31 -207.5v-64q59 1 129 9q2 0 4.5 -6.5t2.5 -15.5q0 -8 -3.5 -17t-7.5 -8q-56 14 -125 16v-272q0 -31 6.5 -45t26.5 -19t65 -5q3 0 3 -6t-3 -6l-64 1q-21 1 -63 1l-56 -1q-15 -1 -41 -1
q-3 0 -3 6t3 6q30 0 44 5.5t19.5 19.5t5.5 44v225q0 25 -5 36t-19.5 14.5t-48.5 3.5q-4 0 -4 6.5t4 6.5q41 0 55.5 9.5t15.5 35.5q5 159 56 233.5t156 74.5q82 0 130 -37q10 20 10 39q0 3 6 3t6 -3v-416q38 44 75.5 64.5t78.5 20.5q55 0 85 -31.5t30 -91.5v-193q0 -30 5 -44
t18 -19.5t40 -5.5q3 0 3 -6z" />
    <glyph glyph-name="f_j.liga" unicode="fj" horiz-adv-x="569" 
d="M199 642q-41 -67 -41 -203v-64q59 1 129 9q2 0 4.5 -6.5t2.5 -15.5q0 -8 -3.5 -17t-7.5 -8q-56 14 -125 16v-272q0 -31 6.5 -45t26.5 -19t65 -5q3 0 3 -6t-3 -6l-64 1q-21 1 -63 1l-56 -1q-15 -1 -41 -1q-3 0 -3 6t3 6q30 0 44 5.5t19.5 19.5t5.5 44v225q0 25 -5 36
t-19.5 14.5t-48.5 3.5q-4 0 -4 6.5t4 6.5q41 0 55.5 9.5t15.5 35.5q6 160 69 234t173 74q59 0 96.5 -22.5t37.5 -52.5q0 -15 -8.5 -23t-22.5 -8q-15 0 -24 8.5t-21 26.5q-15 25 -34 39.5t-56 14.5q-69 0 -110 -67zM471 396q3 0 5.5 -3t2.5 -6q0 -7 -1 -40t-1 -78v-317
q0 -68 -13 -110t-43 -69.5t-84 -48.5q-3 -1 -5.5 4t0.5 6q49 21 69 65t20 130v339q0 36 -7 52t-25 16q-15 0 -46 -14h-2q-4 0 -5.5 5t2.5 7l130 61q1 1 3 1z" />
    <glyph glyph-name="f_k.liga" unicode="fk" horiz-adv-x="809" 
d="M803 6q0 -6 -2 -6q-24 0 -38 1l-53 1l-73 -1q-15 -1 -42 -1q-3 0 -3 6t3 6q49 0 49 19q0 9 -9 22l-122 168l-50 -40v-100q0 -30 5 -44t18 -19.5t40 -5.5q3 0 3 -6t-3 -6q-23 0 -37 1l-54 1l-54 -1q-14 -1 -38 -1q-2 0 -2 6t2 6q27 0 40 5.5t18 20t5 43.5v551
q-46 78 -122 78q-64 0 -95 -63.5t-31 -207.5v-64q59 1 129 9q2 0 4.5 -6.5t2.5 -15.5q0 -8 -3.5 -17t-7.5 -8q-56 14 -125 16v-272q0 -31 6.5 -45t26.5 -19t65 -5q3 0 3 -6t-3 -6l-64 1q-21 1 -63 1l-56 -1q-15 -1 -41 -1q-3 0 -3 6t3 6q30 0 44 5.5t19.5 19.5t5.5 44v225
q0 25 -5 36t-19.5 14.5t-48.5 3.5q-4 0 -4 6.5t4 6.5q41 0 55.5 9.5t15.5 35.5q5 159 56 233.5t154 74.5q84 0 132 -37q10 20 10 39q0 3 6 3t6 -3v-531l134 108q32 26 32 44q0 25 -58 25q-2 0 -2 6t2 6q28 0 43 -1l72 -1l66 1q14 1 37 1q3 0 3 -6t-3 -6q-38 0 -83 -18
t-90 -54l-58 -46l128 -175q49 -69 115 -69q2 0 2 -6z" />
    <glyph glyph-name="f_thorn.liga" unicode="f&#xfe;" horiz-adv-x="811" 
d="M698 377q35 -22 56 -64t21 -98q0 -75 -34 -126.5t-83.5 -76.5t-97.5 -25q-32 0 -56 5.5t-49 19.5v-206q0 -30 7 -44t27.5 -19.5t64.5 -5.5q2 0 2 -6t-2 -6q-35 0 -55 1l-73 1l-54 -1q-14 -1 -38 -1q-3 0 -3 6t3 6q27 0 40 5.5t18 19.5t5 44v840q-44 64 -113 64
q-64 0 -95 -63.5t-31 -207.5v-64q59 1 129 9q2 0 4.5 -6.5t2.5 -15.5q0 -8 -3.5 -17t-7.5 -8q-56 14 -125 16v-272q0 -31 6.5 -45t26.5 -19t65 -5q3 0 3 -6t-3 -6l-64 1q-21 1 -63 1l-56 -1q-15 -1 -41 -1q-3 0 -3 6t3 6q30 0 44 5.5t19.5 19.5t5.5 44v225q0 25 -5 36
t-19.5 14.5t-48.5 3.5q-4 0 -4 6.5t4 6.5q41 0 55.5 9.5t15.5 35.5q5 159 56 233.5t154 74.5q77 0 126 -33q9 17 9 35q0 3 5.5 3t5.5 -3v-414q82 85 167 85q41 0 76 -22zM676.5 55q34.5 47 34.5 129q0 84 -37 130.5t-95 46.5q-35 0 -64.5 -16.5t-59.5 -47.5v-227
q27 -30 58.5 -46t75.5 -16q53 0 87.5 47z" />
    <glyph glyph-name="f_t.liga" unicode="ft" horiz-adv-x="623" 
d="M596 51q3 0 5 -4t-1 -6q-37 -28 -66 -40.5t-61 -12.5q-42 0 -69 19t-27 63v236q0 28 -9.5 36.5t-49 11t-160.5 2.5v-275q0 -31 6.5 -45t26.5 -19t65 -5q3 0 3 -6t-3 -6l-64 1q-21 1 -63 1l-56 -1q-15 -1 -41 -1q-3 0 -3 6t3 6q30 0 44 5.5t19.5 19.5t5.5 44v225
q0 25 -5 36t-19.5 14.5t-48.5 3.5q-4 0 -4 6.5t4 6.5q41 0 55.5 9.5t15.5 35.5q5 163 59 235.5t161 72.5q51 0 84 -15.5t33 -37.5q0 -15 -11 -23.5t-26 -8.5q-12 0 -20.5 6.5t-18.5 21.5q-16 21 -33.5 30.5t-42.5 9.5q-58 0 -92 -67t-34 -203v-64q93 0 141 3q46 1 70 7.5
t35 21t15 42.5q0 4 8 4q7 0 7 -4v-74q63 1 139 9q3 0 5 -6t2 -16q0 -8 -3.5 -17t-6.5 -8q-56 14 -136 16v-249q0 -81 79 -81q47 0 81 27z" />
    <glyph glyph-name="fi.liga" unicode="fi" horiz-adv-x="569" 
d="M198 642q-40 -67 -40 -203v-64q57 1 129 9q2 0 4.5 -7t2.5 -16q0 -10 -4 -19t-7 -7q-66 20 -125 21v-275q0 -31 6.5 -45t26.5 -19t65 -5q3 0 3 -6t-3 -6l-64 1q-21 1 -63 1l-56 -1q-15 -1 -41 -1q-3 0 -3 6t3 6q30 0 44 5.5t19.5 19.5t5.5 44v225q0 25 -5 36t-19.5 14.5
t-48.5 3.5q-4 0 -4 6.5t4 6.5q41 0 55.5 9.5t15.5 35.5q11 308 238 308q56 0 91.5 -22.5t35.5 -52.5q0 -15 -8.5 -23t-23.5 -8t-23 8.5t-18 25.5q-16 27 -33.5 41t-53.5 14q-66 0 -106 -67zM535 6q0 -6 -3 -6q-23 0 -37 1l-54 1l-54 -1q-14 -1 -37 -1q-3 0 -3 6t3 6
q27 0 40 5.5t18 20t5 43.5v187q0 36 -7 52t-25 16q-15 0 -46 -14h-2q-4 0 -5.5 5t2.5 7l130 61q1 1 3 1q3 0 5.5 -3t2.5 -6q0 -7 -1 -40t-1 -78v-188q0 -30 5 -44t18 -19.5t40 -5.5q3 0 3 -6z" />
    <glyph glyph-name="fl.liga" unicode="fl" horiz-adv-x="567" 
d="M542 6q0 -6 -3 -6q-23 0 -37 1l-55 1l-54 -1q-14 -1 -38 -1q-3 0 -3 6t3 6q27 0 40 5.5t18 20t5 43.5v545q-50 84 -130 84q-62 0 -96 -63.5t-34 -207.5v-64q57 1 129 9q2 0 4.5 -7.5t2.5 -16.5t-4 -18t-7 -7q-66 20 -125 21v-275q0 -31 6.5 -45t26.5 -19t65 -5q3 0 3 -6
t-3 -6l-64 1q-21 1 -63 1l-56 -1q-15 -1 -41 -1q-3 0 -3 6t3 6q30 0 44 5.5t19.5 19.5t5.5 44v225q0 25 -5 36t-19.5 14.5t-48.5 3.5q-4 0 -4 6.5t4 6.5q41 0 55.5 9.5t15.5 35.5q5 162 59 235t157 73q87 0 137 -39q12 18 12 41q0 3 6 3t6 -3v-647q0 -30 5 -44t18 -19.5
t40 -5.5q3 0 3 -6z" />
    <glyph glyph-name="g_g.liga" unicode="gg" horiz-adv-x="932" 
d="M389 395.5q4 -1.5 4 -3.5v-462q0 -95 -53 -153t-146 -58q-60 0 -98 21.5t-38 53.5q0 17 9.5 25t21.5 8q14 0 23.5 -8t20.5 -24q19 -26 39 -40.5t60 -14.5q49 0 77 35t28 131v168q-35 -39 -73 -62t-84 -23q-39 0 -72 20t-52.5 59t-19.5 93q0 72 34 126t85.5 83t104.5 29
q26 0 51 -8t45 -22q17 9 28 26q1 2 5 0.5zM855 395.5q4 -1.5 4 -3.5v-462q0 -96 -52.5 -153.5t-146.5 -57.5q-60 0 -97.5 21.5t-37.5 53.5q0 17 9 25t21 8q15 0 23.5 -7.5t21.5 -25.5q18 -26 38 -40t60 -14q49 0 77 35t28 131v167q-35 -38 -73.5 -61t-83.5 -23q-39 0 -72 20
t-52.5 59t-19.5 93q0 72 34 126t85.5 83t104.5 29q55 0 96 -30q17 9 28 26q1 2 5 0.5zM337 90v204q0 37 -31.5 61t-71.5 24q-60 0 -96 -52.5t-36 -135.5q0 -76 30.5 -122t81.5 -46q58 0 123 67zM803 90v204q0 37 -31 61t-72 24q-59 0 -95.5 -52.5t-36.5 -135.5
q0 -76 30.5 -122t81.5 -46q58 0 123 67z" />
    <glyph glyph-name="longs_b.liga" unicode="&#x17f;b" horiz-adv-x="809" 
d="M691.5 378q36.5 -21 58.5 -62.5t22 -101.5q0 -72 -31.5 -123.5t-81.5 -77.5t-106 -26q-76 0 -139 43l-74 -34l-2 -1q-4 0 -4.5 4t2.5 6q31 22 44 41.5t13 56.5l1 530q-42 77 -112 77q-63 0 -94 -63.5t-31 -207.5v-358q0 -31 7 -45t27 -19t65 -5q2 0 2 -6t-2 -6l-65 1
q-21 1 -63 1l-56 -1q-15 -1 -41 -1q-3 0 -3 6t3 6q30 0 44 5t19 19.5t5 44.5v337q0 308 208 308q81 0 122 -38q12 18 12 40q0 3 5.5 3t5.5 -3l-1 -414q37 39 75.5 62t85.5 23q43 0 79.5 -21zM674 51q32 45 33 130q-1 89 -36 137t-93 48q-34 0 -65 -18.5t-62 -50.5v-215
q56 -76 132 -76q59 0 91 45z" />
    <glyph glyph-name="longs_h.liga" unicode="&#x17f;h" horiz-adv-x="805" 
d="M785 6q0 -6 -2 -6q-24 0 -38 1l-54 1l-54 -1q-14 -1 -37 -1q-3 0 -3 6t3 6q27 0 40 5.5t18 20t5 43.5v159q0 59 -22.5 87.5t-69.5 28.5q-31 0 -63 -17t-58 -46v-212q0 -30 5 -44t18 -19.5t41 -5.5q2 0 2 -6t-2 -6q-24 0 -38 1l-54 1l-54 -1q-14 -1 -37 -1q-3 0 -3 6t3 6
q27 0 40 5.5t18 20t5 43.5v552q-42 77 -112 77q-63 0 -94 -63.5t-31 -207.5v-358q0 -31 7 -45t27 -19t65 -5q2 0 2 -6t-2 -6l-65 1q-21 1 -63 1l-56 -1q-15 -1 -41 -1q-3 0 -3 6t3 6q30 0 44.5 5t19.5 19.5t5 44.5v337q0 308 207 308q79 0 121 -37q11 19 11 39q0 3 5.5 3
t5.5 -3v-417q39 44 76.5 65t77.5 21q55 0 85 -31.5t30 -91.5v-193q0 -30 5 -44t18.5 -19.5t40.5 -5.5q2 0 2 -6z" />
    <glyph glyph-name="longs_i.liga" unicode="&#x17f;i" horiz-adv-x="547" 
d="M28 6q0 6 3 6q30 0 44.5 5t19.5 19.5t5 44.5v337q0 159 56 233.5t159 74.5q54 0 85.5 -16.5t31.5 -39.5q0 -15 -10 -23t-25 -8t-24 7.5t-21 23.5q-13 19 -27 30t-39 11q-59 0 -93 -66.5t-34 -205.5v-358q0 -31 5.5 -45t23.5 -19t58 -5q3 0 3 -6t-3 -6l-60 1q-19 1 -58 1
l-56 -1q-15 -1 -41 -1q-3 0 -3 6zM319 6q0 6 2 6q27 0 40 5.5t18 20t5 43.5v187q0 36 -7 52t-25 16q-15 0 -46 -14h-2q-3 0 -4.5 5t1.5 7l131 61q1 1 3 1q3 0 5.5 -3t2.5 -6q0 -7 -1 -40t-1 -78v-188q0 -30 5 -44t18 -19.5t40 -5.5q2 0 2 -6t-2 -6q-24 0 -38 1l-54 1l-53 -1
q-14 -1 -38 -1q-2 0 -2 6z" />
    <glyph glyph-name="longs_j.liga" unicode="&#x17f;j" horiz-adv-x="529" 
d="M28 6q0 6 3 6q30 0 44.5 5t19.5 19.5t5 44.5v337q0 159 56 233.5t159 74.5q54 0 85.5 -16.5t31.5 -39.5q0 -15 -10 -23t-25 -8t-24 7.5t-21 23.5q-13 19 -27 30t-39 11q-59 0 -93 -66.5t-34 -205.5v-358q0 -31 5.5 -45t23.5 -19t58 -5q3 0 3 -6t-3 -6l-60 1q-19 1 -58 1
l-56 -1q-15 -1 -41 -1q-3 0 -3 6zM291.5 -272q-2.5 5 0.5 6q49 21 69 65t20 130v339q0 36 -7 52t-25 16q-15 0 -46 -14h-2q-4 0 -5.5 5t2.5 7l130 61q1 1 3 1q3 0 5.5 -3t2.5 -6q0 -7 -1 -40t-1 -78v-317q0 -68 -13 -110t-43 -69.5t-85 -48.5q-2 -1 -4.5 4z" />
    <glyph glyph-name="longs_k.liga" unicode="&#x17f;k" horiz-adv-x="796" 
d="M791 6q0 -6 -3 -6q-23 0 -37 1l-54 1l-72 -1q-16 -1 -43 -1q-2 0 -2 6t2 6q50 0 50 19q0 9 -9 22l-122 168l-51 -41v-99q0 -30 5 -44t18 -19.5t41 -5.5q2 0 2 -6t-2 -6q-24 0 -38 1l-54 1l-54 -1q-14 -1 -37 -1q-3 0 -3 6t3 6q27 0 40 5.5t18 20t5 43.5v552
q-42 77 -112 77q-63 0 -94 -63.5t-31 -207.5v-358q0 -31 7 -45t27 -19t65 -5q2 0 2 -6t-2 -6l-65 1q-21 1 -63 1l-56 -1q-15 -1 -41 -1q-3 0 -3 6t3 6q30 0 44.5 5t19.5 19.5t5 44.5v337q0 308 207 308q79 0 121 -37q11 19 11 39q0 3 5.5 3t5.5 -3v-531l135 108q32 26 32 44
q0 25 -58 25q-2 0 -2 6t2 6q27 0 42 -1l73 -1l66 1q14 1 37 1q2 0 2 -6t-2 -6q-38 0 -83 -18t-90 -54l-58 -46l127 -175q50 -69 115 -69q3 0 3 -6z" />
    <glyph glyph-name="longs_l.liga" unicode="&#x17f;l" horiz-adv-x="546" 
d="M520 6q0 -6 -3 -6q-23 0 -37 1l-55 1l-54 -1q-14 -1 -38 -1q-3 0 -3 6t3 6q27 0 40 5.5t18 20t5 43.5v548q-43 81 -114 81q-63 0 -94 -63.5t-31 -207.5v-358q0 -31 7 -45t27 -19t65 -5q2 0 2 -6t-2 -6l-65 1q-21 1 -63 1l-56 -1q-15 -1 -41 -1q-3 0 -3 6t3 6q30 0 44.5 5
t19.5 19.5t5 44.5v337q0 308 207 308q81 0 123 -39q12 18 12 41q0 3 6 3t6 -3v-647q0 -30 5 -44t18 -19.5t40 -5.5q3 0 3 -6z" />
    <glyph glyph-name="longs_thorn.liga" unicode="&#x17f;&#xfe;" horiz-adv-x="800" 
d="M686 377q35 -22 56 -64t21 -98q0 -75 -34 -126.5t-83.5 -76.5t-97.5 -25q-32 0 -56 5.5t-49 20.5v-207q0 -30 7 -44t27.5 -19.5t63.5 -5.5q3 0 3 -6t-3 -6q-35 0 -55 1l-72 1l-55 -1q-14 -1 -38 -1q-2 0 -2 6t2 6q27 0 40.5 5.5t18.5 19.5t5 44v842q-41 62 -103 62
q-63 0 -94 -63.5t-31 -207.5v-358q0 -31 7 -45t27 -19t65 -5q2 0 2 -6t-2 -6l-65 1q-21 1 -63 1l-56 -1q-15 -1 -41 -1q-3 0 -3 6t3 6q30 0 44.5 5t19.5 19.5t5 44.5v337q0 308 207 308q73 0 116 -32q8 16 8 34q0 3 6 3t6 -3v-414q44 44 84.5 64.5t82.5 20.5q41 0 76 -22z
M665 54.5q34 46.5 34 129.5t-37 130t-94 47q-35 0 -65 -17t-60 -48v-226q27 -30 59 -46t76 -16q53 0 87 46.5z" />
    <glyph glyph-name="longs_longs.liga" unicode="&#x17f;&#x17f;" horiz-adv-x="538" 
d="M664 711q30 -15 30 -37q0 -16 -10 -24t-26 -8q-15 0 -24 7t-20 23q-13 19 -25.5 28.5t-35.5 9.5q-54 0 -83.5 -65.5t-29.5 -205.5v-358q0 -31 5.5 -45t22.5 -19t56 -5q4 0 4 -6t-4 -6l-58 1q-19 1 -58 1l-55 -1q-15 -1 -42 -1q-2 0 -2 6t2 6q31 0 45 5t19 19.5t5 44.5
v337q0 125 32 197q-23 28 -52 43.5t-61 15.5q-65 0 -103.5 -60t-38.5 -175v-358q0 -31 6.5 -45t25.5 -19t61 -5q4 0 4 -6t-4 -6q-41 0 -61 1l-62 1l-55 -1q-15 -1 -42 -1q-2 0 -2 6t2 6q31 0 45 5t19 19.5t5 44.5v337q0 132 63.5 202.5t170.5 70.5q60 0 110 -24
q50 59 145 59q46 0 76 -15z" />
    <glyph glyph-name="longs_longs_b.liga" unicode="&#x17f;&#x17f;b" horiz-adv-x="1094" 
d="M976.5 378q36.5 -21 58.5 -62.5t22 -101.5q0 -72 -31.5 -123.5t-81.5 -77.5t-105 -26q-78 0 -139 43l-74 -35h-2q-4 0 -5.5 4t2.5 6q32 22 44.5 41.5t12.5 56.5l2 528q-42 79 -113 79q-63 0 -94 -63.5t-31 -207.5v-358q0 -31 7 -45t27 -19t64 -5q4 0 4 -6t-4 -6l-63 1
q-21 1 -64 1l-55 -1q-15 -1 -42 -1q-3 0 -3 6t3 6q30 0 44.5 5t19.5 19.5t5 44.5v337q0 121 31 192q-24 31 -54 47.5t-63 16.5q-65 0 -103.5 -60t-38.5 -175v-358q0 -31 6.5 -45t25.5 -19t61 -5q4 0 4 -6t-4 -6q-41 0 -61 1l-62 1l-55 -1q-15 -1 -42 -1q-2 0 -2 6t2 6
q31 0 45 5t19 19.5t5 44.5v337q0 132 63.5 202.5t170.5 70.5q66 0 115 -27q50 62 145 62q79 0 122 -37q11 19 11 40q0 2 6 2t6 -2l-1 -414q38 39 75.5 61.5t84.5 22.5q43 0 79.5 -21zM959 51q32 45 33 130q-1 90 -36 137.5t-93 47.5q-34 0 -64 -18t-62 -50v-217
q56 -75 132 -75q58 0 90 45z" />
    <glyph glyph-name="longs_longs_h.liga" unicode="&#x17f;&#x17f;h" horiz-adv-x="1091" 
d="M1072 6q0 -6 -3 -6q-24 0 -38 1l-53 1l-54 -1q-14 -1 -37 -1q-3 0 -3 6t3 6q39 0 51 13.5t12 55.5v160q0 58 -23 86.5t-70 28.5q-31 0 -62.5 -16.5t-57.5 -45.5v-213q0 -29 5 -43.5t18 -20t40 -5.5q3 0 3 -6t-3 -6q-24 0 -38 1l-53 1l-54 -1q-14 -1 -37 -1q-3 0 -3 6t3 6
q39 0 51 13.5t12 55.5v552q-42 77 -113 77q-63 0 -94 -64t-31 -207v-358q0 -31 7 -45t27 -19t65 -5q3 0 3 -6t-3 -6l-65 1q-21 1 -63 1l-55 -1q-15 -1 -42 -1q-3 0 -3 6t3 6q30 0 44.5 5t19.5 19.5t5 44.5v337q0 119 30 191q-23 31 -53 48t-64 17q-65 0 -103.5 -60
t-38.5 -175v-358q0 -31 6.5 -45t25.5 -19t61 -5q4 0 4 -6t-4 -6q-41 0 -61 1l-62 1l-55 -1q-15 -1 -42 -1q-2 0 -2 6t2 6q31 0 45 5t19 19.5t5 44.5v337q0 132 63.5 202.5t170.5 70.5q66 0 116 -27q50 62 145 62q77 0 121 -36q10 18 10 39q0 2 6 2t6 -2v-418
q38 44 75.5 64.5t78.5 20.5q55 0 85 -31t30 -90v-194q0 -29 5 -43.5t18 -20t40 -5.5q3 0 3 -6z" />
    <glyph glyph-name="longs_longs_i.liga" unicode="&#x17f;&#x17f;i" horiz-adv-x="828" 
d="M474 644.5q-34 -66.5 -34 -205.5v-358q0 -31 5.5 -45t23 -19t57.5 -5q4 0 4 -6t-4 -6l-59 1q-19 1 -59 1l-55 -1q-15 -1 -42 -1q-2 0 -2 6t2 6q31 0 45 5t19 19.5t5 44.5v337q0 121 34 195q-23 29 -52.5 45t-62.5 16q-65 0 -103.5 -60t-38.5 -175v-358q0 -31 6.5 -45
t25.5 -19t61 -5q4 0 4 -6t-4 -6q-41 0 -61 1l-62 1l-55 -1q-15 -1 -42 -1q-2 0 -2 6t2 6q31 0 45 5t19 19.5t5 44.5v337q0 132 63.5 202.5t170.5 70.5q64 0 114 -26q54 61 149 61q53 0 84.5 -16.5t31.5 -39.5q0 -30 -34 -30q-15 0 -24 7.5t-21 23.5q-14 19 -28 29.5
t-39 10.5q-58 0 -92 -66.5zM787 6q0 -6 -2 -6q-25 0 -39 1l-52 1l-55 -1q-14 -1 -37 -1q-2 0 -2 6t2 6q39 0 51 13.5t12 55.5v187q0 36 -7 52t-25 16q-15 0 -46 -14h-2q-4 0 -5 4.5t2 6.5l130 62q1 1 3 1q3 0 6 -3t3 -6q0 -7 -1 -40t-1 -78v-188q0 -29 4.5 -43.5t17.5 -20
t41 -5.5q2 0 2 -6z" />
    <glyph glyph-name="longs_longs_j.liga" unicode="&#x17f;&#x17f;j" horiz-adv-x="810" 
d="M474 644.5q-34 -66.5 -34 -205.5v-358q0 -31 5.5 -45t23 -19t57.5 -5q4 0 4 -6t-4 -6l-59 1q-19 1 -59 1l-55 -1q-15 -1 -42 -1q-2 0 -2 6t2 6q31 0 45 5t19 19.5t5 44.5v337q0 121 34 195q-23 29 -52.5 45t-62.5 16q-65 0 -103.5 -60t-38.5 -175v-358q0 -31 6.5 -45
t25.5 -19t61 -5q4 0 4 -6t-4 -6q-41 0 -61 1l-62 1l-55 -1q-15 -1 -42 -1q-2 0 -2 6t2 6q31 0 45 5t19 19.5t5 44.5v337q0 132 63.5 202.5t170.5 70.5q64 0 114 -26q54 61 149 61q53 0 84.5 -16.5t31.5 -39.5q0 -30 -34 -30q-15 0 -24 7.5t-21 23.5q-14 19 -28 29.5
t-39 10.5q-58 0 -92 -66.5zM711 396q3 0 6 -3.5t3 -5.5q0 -7 -1 -40t-1 -78v-317q0 -68 -13 -110t-43 -69.5t-85 -48.5q-3 -1 -5.5 4.5t0.5 6.5q49 21 69 65t20 129v339q0 36 -7 52t-25 16q-15 0 -45 -14h-2q-4 0 -5.5 4.5t1.5 6.5l131 62z" />
    <glyph glyph-name="longs_longs_k.liga" unicode="&#x17f;&#x17f;k" horiz-adv-x="1083" 
d="M1077 6q0 -6 -2 -6q-24 0 -38 1l-53 1l-73 -1q-15 -1 -42 -1q-3 0 -3 6t3 6q50 0 50 18q0 8 -10 23l-121 168l-51 -40v-100q0 -29 5 -43.5t18 -20t40 -5.5q3 0 3 -6t-3 -6q-24 0 -38 1l-53 1l-54 -1q-14 -1 -37 -1q-3 0 -3 6t3 6q39 0 51 13.5t12 55.5v552
q-42 77 -113 77q-63 0 -94 -64t-31 -207v-358q0 -31 7 -45t27 -19t65 -5q3 0 3 -6t-3 -6l-65 1q-21 1 -63 1l-55 -1q-15 -1 -42 -1q-3 0 -3 6t3 6q30 0 44.5 5t19.5 19.5t5 44.5v337q0 119 30 191q-23 31 -53 48t-64 17q-65 0 -103.5 -60t-38.5 -175v-358q0 -31 6.5 -45
t25.5 -19t61 -5q4 0 4 -6t-4 -6q-41 0 -61 1l-62 1l-55 -1q-15 -1 -42 -1q-2 0 -2 6t2 6q31 0 45 5t19 19.5t5 44.5v337q0 132 63.5 202.5t170.5 70.5q66 0 116 -27q50 62 145 62q77 0 121 -36q10 18 10 39q0 2 6 2t6 -2v-532l134 108q32 25 32 44q0 25 -57 25q-3 0 -3 6
t3 6q27 0 41 -1l73 -1l67 1q13 1 36 1q3 0 3 -6t-3 -6q-38 0 -83 -18t-90 -54l-58 -46l127 -175q49 -69 116 -69q2 0 2 -6z" />
    <glyph glyph-name="longs_longs_l.liga" unicode="&#x17f;&#x17f;l" horiz-adv-x="832" 
d="M806 6q0 -6 -2 -6q-23 0 -37 1l-56 1l-54 -1q-14 -1 -37 -1q-3 0 -3 6t3 6q38 0 50.5 13.5t12.5 55.5v548q-43 81 -115 81q-63 0 -94 -64t-31 -207v-358q0 -31 7 -45t27 -19t65 -5q3 0 3 -6t-3 -6l-65 1q-21 1 -63 1l-55 -1q-15 -1 -42 -1q-3 0 -3 6t3 6q30 0 44.5 5
t19.5 19.5t5 44.5v337q0 119 30 191q-23 31 -53 48t-64 17q-65 0 -103.5 -60t-38.5 -175v-358q0 -31 6.5 -45t25.5 -19t61 -5q4 0 4 -6t-4 -6q-41 0 -61 1l-62 1l-55 -1q-15 -1 -42 -1q-2 0 -2 6t2 6q31 0 45 5t19 19.5t5 44.5v337q0 132 63.5 202.5t170.5 70.5
q66 0 116 -27q50 62 145 62q79 0 123 -39q12 18 12 42q0 2 5.5 2t5.5 -2v-648q0 -29 5 -43.5t18.5 -20t40.5 -5.5q2 0 2 -6z" />
    <glyph glyph-name="longs_longs_thorn.liga" unicode="&#x17f;&#x17f;&#xfe;" horiz-adv-x="1086" 
d="M973 377q35 -22 56 -63.5t21 -98.5q0 -75 -34 -126.5t-84 -76.5t-98 -25q-31 0 -55 6t-49 20v-207q0 -30 7 -44t27.5 -19.5t63.5 -5.5q3 0 3 -6t-3 -6q-36 0 -56 1l-71 1l-56 -1q-14 -1 -37 -1q-2 0 -2 6t2 6q27 0 40 5.5t18 19.5t5 44v843q-41 61 -103 61q-63 0 -94 -64
t-31 -207v-358q0 -31 7 -45t27 -19t65 -5q3 0 3 -6t-3 -6l-65 1q-21 1 -63 1l-55 -1q-15 -1 -42 -1q-3 0 -3 6t3 6q30 0 44.5 5t19.5 19.5t5 44.5v337q0 119 30 191q-23 31 -53 48t-64 17q-65 0 -103.5 -60t-38.5 -175v-358q0 -31 6.5 -45t25.5 -19t61 -5q4 0 4 -6t-4 -6
q-41 0 -61 1l-62 1l-55 -1q-15 -1 -42 -1q-2 0 -2 6t2 6q31 0 45 5t19 19.5t5 44.5v337q0 132 63.5 202.5t170.5 70.5q66 0 116 -27q50 62 145 62q72 0 115 -32q9 15 9 35q0 2 6 2t6 -2v-415q82 85 166 85q42 0 77 -22zM951.5 55q34.5 47 34.5 129q0 83 -37.5 130t-94.5 47
q-35 0 -64.5 -16.5t-59.5 -47.5v-227q28 -30 59 -46t75 -16q53 0 87.5 47z" />
    <glyph glyph-name=".notdef" horiz-adv-x="501" 
d="M94 725h317v-1000h-317v1000zM233 626v-38h-66v-32h166v32h-66v38h66v32h-165v-32h65zM333 426v34h-66v69h-100v-103h166zM200 495h33v-35h-33v35zM233 365v-36h-66v-34h100v70h66v33h-166v-33h66zM167 273v-34h166v99h-32v-65h-134zM267 160v24h34v-48h-101v80h-33v-113
h166v113h-100v-56h34zM333 -70v113h-166v-113h166zM200 11h101v-48h-101v48zM237 -126l-70 -47v-33h166v33h-101l69 47h32v34h-166v-34h70z" />
    <glyph glyph-name="space" unicode=" " horiz-adv-x="234" 
 />
    <glyph glyph-name="A" unicode="A" horiz-adv-x="702" 
d="M703 6q0 -6 -5 -6q-20 0 -58 2q-40 2 -57 2q-22 0 -56 -2t-50 -2q-4 0 -4 6t4 6q37 0 54 7t17 24q0 14 -13 43l-116 245h-188l-86 -204q-14 -34 -14 -56q0 -59 98 -59q5 0 5 -6t-5 -6q-17 0 -51 2q-38 2 -67 2q-26 0 -60 -2q-30 -2 -50 -2q-5 0 -5 6t5 6q28 0 47.5 10.5
t37 37t38.5 76.5l211 498q1 2 6.5 2.5t6.5 -2.5l236 -497q24 -51 41.5 -77.5t34 -37t38.5 -10.5q5 0 5 -6zM409 352l-89 189l-80 -189h169z" />
    <glyph glyph-name="Aacute" unicode="&#xc1;" horiz-adv-x="702" 
d="M243 678q-4 0 -5.5 5t2.5 6q35 17 70 38.5t47 28.5q15 10 45 28q4 2 23.5 -4.5t34 -14.5t7.5 -9q-120 -31 -223 -78h-1zM703 6q0 -6 -5 -6q-19 0 -57 2q-40 2 -59 2q-23 0 -55 -2t-50 -2q-4 0 -4 6t4 6q38 0 55 7t17 25q0 14 -13 43l-115 244h-190l-86 -205
q-14 -33 -14 -55q0 -59 98 -59q5 0 5 -6t-5 -6q-17 0 -51 2q-38 2 -67 2q-26 0 -60 -2q-30 -2 -50 -2q-5 0 -5 6t5 6q28 0 47.5 10.5t37 36.5t38.5 77l212 498q1 2 6.5 2t6.5 -2l235 -497q34 -74 58 -99.5t56 -25.5q5 0 5 -6zM411 352l-90 190l-81 -190h171z" />
    <glyph glyph-name="Abreve" unicode="&#x102;" horiz-adv-x="702" 
d="M271.5 717q-26.5 27 -33.5 79q-1 4 4.5 4.5t6.5 -1.5q7 -27 33.5 -46.5t58.5 -19.5q31 0 57.5 19.5t34.5 46.5q1 2 6 1.5t4 -4.5q-7 -52 -33 -79t-69 -27t-69.5 27zM703 6q0 -6 -5 -6q-19 0 -57 2q-40 2 -59 2q-23 0 -55 -2t-50 -2q-4 0 -4 6t4 6q38 0 55 7t17 25
q0 14 -13 43l-115 244h-190l-86 -205q-14 -33 -14 -55q0 -59 98 -59q5 0 5 -6t-5 -6q-17 0 -51 2q-38 2 -67 2q-26 0 -60 -2q-30 -2 -50 -2q-5 0 -5 6t5 6q28 0 47.5 10.5t37 36.5t38.5 77l212 498q1 2 6.5 2t6.5 -2l235 -497q34 -74 58 -99.5t56 -25.5q5 0 5 -6zM411 352
l-90 190l-81 -190h171z" />
    <glyph glyph-name="uni1EAE" unicode="&#x1eae;" horiz-adv-x="702" 
d="M286 751q-4 0 -6 3t1 5q38 43 76 97q3 4 22.5 -2.5t34 -15t7.5 -10.5q-37 -15 -67.5 -33t-65.5 -44h-2zM272.5 684.5q-26.5 27.5 -33.5 79.5v1q0 2 4.5 3t5.5 -2q7 -27 33.5 -46t59.5 -19q31 0 57 19t34 46q1 3 6 2t4 -4q-7 -52 -32.5 -79.5t-68.5 -27.5t-69.5 27.5z
M703 6q0 -6 -5 -6q-19 0 -57 2q-40 2 -59 2q-23 0 -55 -2t-50 -2q-4 0 -4 6t4 6q38 0 55 7t17 25q0 14 -13 43l-115 244h-190l-86 -205q-14 -33 -14 -55q0 -59 98 -59q5 0 5 -6t-5 -6q-17 0 -51 2q-38 2 -67 2q-26 0 -60 -2q-30 -2 -50 -2q-5 0 -5 6t5 6q28 0 47.5 10.5
t37 36.5t38.5 77l212 498q1 2 6.5 2t6.5 -2l235 -497q34 -74 58 -99.5t56 -25.5q5 0 5 -6zM411 352l-90 190l-81 -190h171z" />
    <glyph glyph-name="uni1EB6" unicode="&#x1eb6;" horiz-adv-x="702" 
d="M271.5 717q-26.5 27 -33.5 79q-1 4 4.5 4.5t6.5 -1.5q7 -27 33.5 -46.5t58.5 -19.5q31 0 57.5 19.5t34.5 46.5q1 2 6 1.5t4 -4.5q-7 -52 -33 -79t-69 -27t-69.5 27zM703 6q0 -6 -5 -6q-19 0 -57 2q-40 2 -59 2q-23 0 -55 -2t-50 -2q-4 0 -4 6t4 6q38 0 55 7t17 25
q0 14 -13 43l-115 244h-190l-86 -205q-14 -33 -14 -55q0 -59 98 -59q5 0 5 -6t-5 -6q-17 0 -51 2q-38 2 -67 2q-26 0 -60 -2q-30 -2 -50 -2q-5 0 -5 6t5 6q28 0 47.5 10.5t37 36.5t38.5 77l212 498q1 2 6.5 2t6.5 -2l235 -497q34 -74 58 -99.5t56 -25.5q5 0 5 -6zM411 352
l-90 190l-81 -190h171zM383 -116.5q11 -11.5 11 -30.5q0 -20 -11 -32t-31 -12q-21 0 -32.5 12t-11.5 32q0 19 11.5 30.5t32.5 11.5q20 0 31 -11.5z" />
    <glyph glyph-name="uni1EB0" unicode="&#x1eb0;" horiz-adv-x="702" 
d="M267 838.5q15 8.5 34.5 15t22.5 2.5q34 -48 76 -96q1 -1 1 -3q0 -3 -2 -5t-6 -1q-36 26 -66 44t-67 33q-8 2 7 10.5zM272.5 684.5q-26.5 27.5 -33.5 79.5v1q0 2 4.5 3t5.5 -2q7 -27 33.5 -46t59.5 -19q31 0 57 19t34 46q1 3 6 2t4 -4q-7 -52 -32.5 -79.5t-68.5 -27.5
t-69.5 27.5zM703 6q0 -6 -5 -6q-19 0 -57 2q-40 2 -59 2q-23 0 -55 -2t-50 -2q-4 0 -4 6t4 6q38 0 55 7t17 25q0 14 -13 43l-115 244h-190l-86 -205q-14 -33 -14 -55q0 -59 98 -59q5 0 5 -6t-5 -6q-17 0 -51 2q-38 2 -67 2q-26 0 -60 -2q-30 -2 -50 -2q-5 0 -5 6t5 6
q28 0 47.5 10.5t37 36.5t38.5 77l212 498q1 2 6.5 2t6.5 -2l235 -497q34 -74 58 -99.5t56 -25.5q5 0 5 -6zM411 352l-90 190l-81 -190h171z" />
    <glyph glyph-name="uni1EB2" unicode="&#x1eb2;" horiz-adv-x="702" 
d="M296 849q-3 0 -6 3.5t0 4.5q15 9 31.5 14t28.5 5q22 0 35 -13t13 -29q0 -15 -8.5 -26.5t-24.5 -26.5q-16 -16 -22.5 -25.5t-3.5 -20.5q1 -2 -5 -2.5t-7 2.5q-2 8 -2 12q0 13 14 37q8 12 11.5 21t3.5 18q0 15 -10.5 23.5t-23.5 8.5t-23 -6h-1zM272.5 684.5
q-26.5 27.5 -33.5 79.5v1q0 2 4.5 3t5.5 -2q7 -27 33.5 -46t59.5 -19q31 0 57 19t34 46q1 3 6 2t4 -4q-7 -52 -32.5 -79.5t-68.5 -27.5t-69.5 27.5zM703 6q0 -6 -5 -6q-19 0 -57 2q-40 2 -59 2q-23 0 -55 -2t-50 -2q-4 0 -4 6t4 6q38 0 55 7t17 25q0 14 -13 43l-115 244
h-190l-86 -205q-14 -33 -14 -55q0 -59 98 -59q5 0 5 -6t-5 -6q-17 0 -51 2q-38 2 -67 2q-26 0 -60 -2q-30 -2 -50 -2q-5 0 -5 6t5 6q28 0 47.5 10.5t37 36.5t38.5 77l212 498q1 2 6.5 2t6.5 -2l235 -497q34 -74 58 -99.5t56 -25.5q5 0 5 -6zM411 352l-90 190l-81 -190h171z
" />
    <glyph glyph-name="uni1EB4" unicode="&#x1eb4;" horiz-adv-x="702" 
d="M213 790q-2 0 -4 3t-1 5q48 62 86 62q16 0 49 -11q4 -1 28 -7.5t48 -6.5q16 0 26 6.5t23 20.5h1q3 0 5 -2.5t1 -4.5q-26 -36 -43.5 -49t-36.5 -13q-14 0 -29.5 3.5t-30.5 8.5q-4 1 -25.5 7t-45.5 6q-16 0 -24.5 -5t-15 -12t-9.5 -10q0 -1 -2 -1zM440 780.5q5 -0.5 4 -3.5
q-7 -52 -32.5 -79.5t-68.5 -27.5t-69.5 27.5t-33.5 79.5q-1 3 4 3.5t6 -1.5q8 -27 34.5 -46.5t58.5 -19.5q31 0 57.5 19.5t33.5 46.5q1 2 6 1.5zM703 6q0 -6 -5 -6q-19 0 -57 2q-40 2 -59 2q-23 0 -55 -2t-50 -2q-4 0 -4 6t4 6q38 0 55 7t17 25q0 14 -13 43l-115 244h-190
l-86 -205q-14 -33 -14 -55q0 -59 98 -59q5 0 5 -6t-5 -6q-17 0 -51 2q-38 2 -67 2q-26 0 -60 -2q-30 -2 -50 -2q-5 0 -5 6t5 6q28 0 47.5 10.5t37 36.5t38.5 77l212 498q1 2 6.5 2t6.5 -2l235 -497q34 -74 58 -99.5t56 -25.5q5 0 5 -6zM411 352l-90 190l-81 -190h171z" />
    <glyph glyph-name="uni01CD" unicode="&#x1cd;" horiz-adv-x="702" 
d="M226 786q0 2 3 4t4 1l108 -58l108 58h1q2 0 4.5 -3t0.5 -4l-103 -97q-4 -4 -11 -4t-11 4l-103 97q-1 0 -1 2zM703 6q0 -6 -5 -6q-19 0 -57 2q-40 2 -59 2q-23 0 -55 -2t-50 -2q-4 0 -4 6t4 6q38 0 55 7t17 25q0 14 -13 43l-115 244h-190l-86 -205q-14 -33 -14 -55
q0 -59 98 -59q5 0 5 -6t-5 -6q-17 0 -51 2q-38 2 -67 2q-26 0 -60 -2q-30 -2 -50 -2q-5 0 -5 6t5 6q28 0 47.5 10.5t37 36.5t38.5 77l212 498q1 2 6.5 2t6.5 -2l235 -497q34 -74 58 -99.5t56 -25.5q5 0 5 -6zM411 352l-90 190l-81 -190h171z" />
    <glyph glyph-name="Acircumflex" unicode="&#xc2;" horiz-adv-x="702" 
d="M227.5 650.5q-3.5 3.5 -0.5 4.5l103 97q5 5 11 5t11 -5l103 -97q1 0 1 -2t-3 -4t-4 -1l-108 57l-108 -57q-2 -1 -5.5 2.5zM703 6q0 -6 -5 -6q-19 0 -57 2q-40 2 -59 2q-23 0 -55 -2t-50 -2q-4 0 -4 6t4 6q38 0 55 7t17 25q0 14 -13 43l-115 244h-190l-86 -205
q-14 -33 -14 -55q0 -59 98 -59q5 0 5 -6t-5 -6q-17 0 -51 2q-38 2 -67 2q-26 0 -60 -2q-30 -2 -50 -2q-5 0 -5 6t5 6q28 0 47.5 10.5t37 36.5t38.5 77l212 498q1 2 6.5 2t6.5 -2l235 -497q34 -74 58 -99.5t56 -25.5q5 0 5 -6zM411 352l-90 190l-81 -190h171z" />
    <glyph glyph-name="uni1EA4" unicode="&#x1ea4;" horiz-adv-x="702" 
d="M406 724q-4 0 -5.5 3t0.5 5q38 43 76 97q3 4 22.5 -2.5t34.5 -15t8 -10.5q-65 -26 -134 -77h-2zM227.5 650.5q-3.5 3.5 -0.5 4.5l103 97q5 5 11 5t11 -5l103 -97q1 0 1 -2t-2.5 -4t-4.5 -1l-107 57l-109 -57q-2 -1 -5.5 2.5zM703 6q0 -6 -5 -6q-19 0 -57 2q-40 2 -59 2
q-23 0 -55 -2t-50 -2q-4 0 -4 6t4 6q38 0 55 7t17 25q0 14 -13 43l-115 244h-190l-86 -205q-14 -33 -14 -55q0 -59 98 -59q5 0 5 -6t-5 -6q-17 0 -51 2q-38 2 -67 2q-26 0 -60 -2q-30 -2 -50 -2q-5 0 -5 6t5 6q28 0 47.5 10.5t37 36.5t38.5 77l212 498q1 2 6.5 2t6.5 -2
l235 -497q34 -74 58 -99.5t56 -25.5q5 0 5 -6zM411 352l-90 190l-81 -190h171z" />
    <glyph glyph-name="uni1EAC" unicode="&#x1eac;" horiz-adv-x="702" 
d="M227.5 650.5q-3.5 3.5 -0.5 4.5l103 97q5 5 11 5t11 -5l103 -97q1 0 1 -2t-3 -4t-4 -1l-108 57l-108 -57q-2 -1 -5.5 2.5zM703 6q0 -6 -5 -6q-19 0 -57 2q-40 2 -59 2q-23 0 -55 -2t-50 -2q-4 0 -4 6t4 6q38 0 55 7t17 25q0 14 -13 43l-115 244h-190l-86 -205
q-14 -33 -14 -55q0 -59 98 -59q5 0 5 -6t-5 -6q-17 0 -51 2q-38 2 -67 2q-26 0 -60 -2q-30 -2 -50 -2q-5 0 -5 6t5 6q28 0 47.5 10.5t37 36.5t38.5 77l212 498q1 2 6.5 2t6.5 -2l235 -497q34 -74 58 -99.5t56 -25.5q5 0 5 -6zM411 352l-90 190l-81 -190h171zM383 -116.5
q11 -11.5 11 -30.5q0 -20 -11 -32t-31 -12q-21 0 -32.5 12t-11.5 32q0 19 11.5 30.5t32.5 11.5q20 0 31 -11.5z" />
    <glyph glyph-name="uni1EA6" unicode="&#x1ea6;" horiz-adv-x="702" 
d="M383 789.5q15 8.5 34.5 15t22.5 2.5q29 -43 76 -96q1 -1 1 -4t-2 -4.5t-6 -0.5q-37 26 -67 44t-67 33q-7 2 8 10.5zM227.5 650.5q-3.5 3.5 -0.5 4.5l103 97q5 5 11 5t11 -5l103 -97q1 0 1 -2t-2.5 -4t-4.5 -1l-107 57l-109 -57q-2 -1 -5.5 2.5zM703 6q0 -6 -5 -6
q-19 0 -57 2q-40 2 -59 2q-23 0 -55 -2t-50 -2q-4 0 -4 6t4 6q38 0 55 7t17 25q0 14 -13 43l-115 244h-190l-86 -205q-14 -33 -14 -55q0 -59 98 -59q5 0 5 -6t-5 -6q-17 0 -51 2q-38 2 -67 2q-26 0 -60 -2q-30 -2 -50 -2q-5 0 -5 6t5 6q28 0 47.5 10.5t37 36.5t38.5 77
l212 498q1 2 6.5 2t6.5 -2l235 -497q34 -74 58 -99.5t56 -25.5q5 0 5 -6zM411 352l-90 190l-81 -190h171z" />
    <glyph glyph-name="uni1EA8" unicode="&#x1ea8;" horiz-adv-x="702" 
d="M391 837q-4 0 -6.5 3.5t0.5 5.5q32 18 59 18q23 0 35.5 -12.5t12.5 -29.5q0 -15 -8 -26t-24 -27q-15 -14 -22 -24.5t-4 -21.5q1 -2 -5 -2.5t-7 2.5q-2 8 -2 12q0 9 4.5 19t9.5 19q15 23 15 39q0 15 -10.5 23t-23.5 8q-12 0 -23 -6h-1zM227.5 650.5q-3.5 3.5 -0.5 4.5
l103 97q5 5 11 5t11 -5l103 -97q1 0 1 -2t-2.5 -4t-4.5 -1l-107 57l-109 -57q-2 -1 -5.5 2.5zM703 6q0 -6 -5 -6q-19 0 -57 2q-40 2 -59 2q-23 0 -55 -2t-50 -2q-4 0 -4 6t4 6q38 0 55 7t17 25q0 14 -13 43l-115 244h-190l-86 -205q-14 -33 -14 -55q0 -59 98 -59q5 0 5 -6
t-5 -6q-17 0 -51 2q-38 2 -67 2q-26 0 -60 -2q-30 -2 -50 -2q-5 0 -5 6t5 6q28 0 47.5 10.5t37 36.5t38.5 77l212 498q1 2 6.5 2t6.5 -2l235 -497q34 -74 58 -99.5t56 -25.5q5 0 5 -6zM411 352l-90 190l-81 -190h171z" />
    <glyph glyph-name="uni1EAA" unicode="&#x1eaa;" horiz-adv-x="702" 
d="M220 766q-2 0 -4.5 2.5t-1.5 4.5q17 24 39.5 43t45.5 19q14 0 50 -10q46 -14 76 -14q16 0 26.5 6.5t22.5 19.5q0 1 2 1t4 -3t1 -5q-27 -37 -44 -49.5t-36 -12.5q-14 0 -29.5 3.5t-30.5 8.5q-17 5 -35.5 9t-35.5 4q-16 0 -24.5 -5t-15 -12t-9.5 -10h-1zM455 655q1 0 1 -2
t-2.5 -4t-4.5 -1l-107 57l-109 -57q-2 -1 -5.5 2.5t-0.5 4.5l103 97q5 5 11 5t11 -5zM703 6q0 -6 -5 -6q-19 0 -57 2q-40 2 -59 2q-23 0 -55 -2t-50 -2q-4 0 -4 6t4 6q38 0 55 7t17 25q0 14 -13 43l-115 244h-190l-86 -205q-14 -33 -14 -55q0 -59 98 -59q5 0 5 -6t-5 -6
q-17 0 -51 2q-38 2 -67 2q-26 0 -60 -2q-30 -2 -50 -2q-5 0 -5 6t5 6q28 0 47.5 10.5t37 36.5t38.5 77l212 498q1 2 6.5 2t6.5 -2l235 -497q34 -74 58 -99.5t56 -25.5q5 0 5 -6zM411 352l-90 190l-81 -190h171z" />
    <glyph glyph-name="Adieresis" unicode="&#xc4;" horiz-adv-x="702" 
d="M223 727q-11 11 -11 31q0 18 11.5 29t30.5 11q20 0 31 -11t11 -29q0 -20 -11 -31t-31 -11t-31 11zM398 727q-11 11 -11 31q0 18 11 29t31 11q19 0 30 -11t11 -29q0 -20 -10.5 -31t-30.5 -11t-31 11zM703 6q0 -6 -5 -6q-19 0 -57 2q-40 2 -59 2q-23 0 -55 -2t-50 -2
q-4 0 -4 6t4 6q38 0 55 7t17 25q0 14 -13 43l-115 244h-190l-86 -205q-14 -33 -14 -55q0 -59 98 -59q5 0 5 -6t-5 -6q-17 0 -51 2q-38 2 -67 2q-26 0 -60 -2q-30 -2 -50 -2q-5 0 -5 6t5 6q28 0 47.5 10.5t37 36.5t38.5 77l212 498q1 2 6.5 2t6.5 -2l235 -497
q34 -74 58 -99.5t56 -25.5q5 0 5 -6zM411 352l-90 190l-81 -190h171z" />
    <glyph glyph-name="uni1EA0" unicode="&#x1ea0;" horiz-adv-x="702" 
d="M703 6q0 -6 -5 -6q-19 0 -57 2q-40 2 -59 2q-23 0 -55 -2t-50 -2q-4 0 -4 6t4 6q38 0 55 7t17 25q0 14 -13 43l-115 244h-190l-86 -205q-14 -33 -14 -55q0 -59 98 -59q5 0 5 -6t-5 -6q-17 0 -51 2q-38 2 -67 2q-26 0 -60 -2q-30 -2 -50 -2q-5 0 -5 6t5 6q28 0 47.5 10.5
t37 36.5t38.5 77l212 498q1 2 6.5 2t6.5 -2l235 -497q34 -74 58 -99.5t56 -25.5q5 0 5 -6zM411 352l-90 190l-81 -190h171zM383 -116.5q11 -11.5 11 -30.5q0 -20 -11 -32t-31 -12q-21 0 -32.5 12t-11.5 32q0 19 11.5 30.5t32.5 11.5q20 0 31 -11.5z" />
    <glyph glyph-name="Agrave" unicode="&#xc0;" horiz-adv-x="702" 
d="M224.5 765q14.5 8 34 14.5t23.5 4.5l37 -23q7 -5 45.5 -28.5t79.5 -43.5q2 -1 2 -4t-2 -5.5t-4 -1.5q-103 47 -223 78q-7 1 7.5 9zM703 6q0 -6 -5 -6q-19 0 -57 2q-40 2 -59 2q-23 0 -55 -2t-50 -2q-4 0 -4 6t4 6q38 0 55 7t17 25q0 14 -13 43l-115 244h-190l-86 -205
q-14 -33 -14 -55q0 -59 98 -59q5 0 5 -6t-5 -6q-17 0 -51 2q-38 2 -67 2q-26 0 -60 -2q-30 -2 -50 -2q-5 0 -5 6t5 6q28 0 47.5 10.5t37 36.5t38.5 77l212 498q1 2 6.5 2t6.5 -2l235 -497q34 -74 58 -99.5t56 -25.5q5 0 5 -6zM411 352l-90 190l-81 -190h171z" />
    <glyph glyph-name="uni1EA2" unicode="&#x1ea2;" horiz-adv-x="702" 
d="M299 813q-3 0 -6 3.5t0 4.5q34 21 66 21q30 0 46.5 -14.5t16.5 -36.5q0 -19 -10.5 -34t-30.5 -35q-18 -18 -27.5 -32t-9.5 -29q0 -7 1 -10q0 -2 -5.5 -2t-6.5 2q-3 11 -3 21q0 15 5.5 28.5t16.5 29.5q10 18 14.5 28t4.5 22q0 19 -12.5 29.5t-30.5 10.5q-15 0 -28 -7h-1z
M703 6q0 -6 -5 -6q-19 0 -57 2q-40 2 -59 2q-23 0 -55 -2t-50 -2q-4 0 -4 6t4 6q38 0 55 7t17 25q0 14 -13 43l-115 244h-190l-86 -205q-14 -33 -14 -55q0 -59 98 -59q5 0 5 -6t-5 -6q-17 0 -51 2q-38 2 -67 2q-26 0 -60 -2q-30 -2 -50 -2q-5 0 -5 6t5 6q28 0 47.5 10.5
t37 36.5t38.5 77l212 498q1 2 6.5 2t6.5 -2l235 -497q34 -74 58 -99.5t56 -25.5q5 0 5 -6zM411 352l-90 190l-81 -190h171z" />
    <glyph glyph-name="Amacron" unicode="&#x100;" horiz-adv-x="702" 
d="M209 736q0 14 6 14h252q6 0 6 -14t-6 -14h-252q-6 0 -6 14zM703 6q0 -6 -5 -6q-19 0 -57 2q-40 2 -59 2q-23 0 -55 -2t-50 -2q-4 0 -4 6t4 6q38 0 55 7t17 25q0 14 -13 43l-115 244h-190l-86 -205q-14 -33 -14 -55q0 -59 98 -59q5 0 5 -6t-5 -6q-17 0 -51 2q-38 2 -67 2
q-26 0 -60 -2q-30 -2 -50 -2q-5 0 -5 6t5 6q28 0 47.5 10.5t37 36.5t38.5 77l212 498q1 2 6.5 2t6.5 -2l235 -497q34 -74 58 -99.5t56 -25.5q5 0 5 -6zM411 352l-90 190l-81 -190h171z" />
    <glyph glyph-name="Aogonek" unicode="&#x104;" horiz-adv-x="704" 
d="M703 3.5q0 -5.5 -5 -5.5q-22 0 -54 2l-41 1q-54 0 -91.5 -36.5t-37.5 -93.5q0 -49 28 -82.5t82 -33.5q31 0 55 13l2 1q3 0 5 -3.5t0 -5.5q-47 -35 -105 -35t-91 29t-33 79q0 41 19 69.5t55 62.5q27 26 40 44t13 40q0 16 -9 35l-118 247h-186l-86 -204q-14 -34 -14 -56
q0 -59 98 -59q5 0 5 -6t-5 -6q-17 0 -51 2q-38 2 -67 2q-26 0 -60 -2q-30 -2 -50 -2q-5 0 -5 6t5 6q28 0 47.5 10.5t37 37t38.5 76.5l211 498q1 2 6.5 2.5t6.5 -2.5l236 -499q33 -72 58 -99t56 -27q5 0 5 -5.5zM407 352l-89 187l-78 -187h167z" />
    <glyph glyph-name="Aring" unicode="&#xc5;" horiz-adv-x="702" 
d="M273 688q-24 24 -24 56q0 36 30 56.5t67 20.5q36 0 62 -23t26 -56q0 -35 -30 -56.5t-67 -21.5q-40 0 -64 24zM293 764q0 -34 16 -61.5t43 -27.5q19 0 27.5 11.5t8.5 37.5q0 36 -18 61.5t-44 25.5q-33 0 -33 -47zM703 6q0 -6 -5 -6q-19 0 -57 2q-40 2 -59 2q-23 0 -55 -2
t-50 -2q-4 0 -4 6t4 6q38 0 55 7t17 25q0 14 -13 43l-115 244h-190l-86 -205q-14 -33 -14 -55q0 -59 98 -59q5 0 5 -6t-5 -6q-17 0 -51 2q-38 2 -67 2q-26 0 -60 -2q-30 -2 -50 -2q-5 0 -5 6t5 6q28 0 47.5 10.5t37 36.5t38.5 77l212 498q1 2 6.5 2t6.5 -2l235 -497
q34 -74 58 -99.5t56 -25.5q5 0 5 -6zM411 352l-90 190l-81 -190h171z" />
    <glyph glyph-name="Aringacute" unicode="&#x1fa;" horiz-adv-x="702" 
d="M248 813q-3 0 -4.5 4.5t1.5 5.5l98 49l38 20q4 2 22 -5t31.5 -15.5t6.5 -9.5q-91 -17 -191 -49h-2zM278 790.5q29 17.5 66 17.5q36 0 61.5 -20t25.5 -48q0 -30 -29.5 -47.5t-67.5 -17.5t-61.5 20t-23.5 48q0 30 29 47.5zM368 776q-18 22 -43 22q-34 0 -34 -35
q0 -30 16 -54t43 -24q19 0 27.5 9t8.5 29q0 31 -18 53zM703 6q0 -6 -5 -6q-19 0 -57 2q-40 2 -59 2q-23 0 -55 -2t-50 -2q-4 0 -4 6t4 6q38 0 55 7t17 25q0 14 -13 43l-115 244h-190l-86 -205q-14 -33 -14 -55q0 -59 98 -59q5 0 5 -6t-5 -6q-17 0 -51 2q-38 2 -67 2
q-26 0 -60 -2q-30 -2 -50 -2q-5 0 -5 6t5 6q28 0 47.5 10.5t37 36.5t38.5 77l212 498q1 2 6.5 2t6.5 -2l235 -497q34 -74 58 -99.5t56 -25.5q5 0 5 -6zM411 352l-90 190l-81 -190h171z" />
    <glyph glyph-name="Atilde" unicode="&#xc3;" horiz-adv-x="702" 
d="M215 697q-2 0 -4.5 2.5t-1.5 4.5q48 62 86 62q13 0 49 -10q46 -14 76 -14q16 0 26.5 6.5t22.5 19.5q0 1 2 1t4 -3t1 -5q-26 -36 -43.5 -49t-36.5 -13q-14 0 -29.5 3.5t-30.5 8.5q-4 1 -25.5 7t-45.5 6q-16 0 -24.5 -5t-15 -12t-9.5 -10h-1zM703 6q0 -6 -5 -6q-19 0 -57 2
q-40 2 -59 2q-23 0 -55 -2t-50 -2q-4 0 -4 6t4 6q38 0 55 7t17 25q0 14 -13 43l-115 244h-190l-86 -205q-14 -33 -14 -55q0 -59 98 -59q5 0 5 -6t-5 -6q-17 0 -51 2q-38 2 -67 2q-26 0 -60 -2q-30 -2 -50 -2q-5 0 -5 6t5 6q28 0 47.5 10.5t37 36.5t38.5 77l212 498
q1 2 6.5 2t6.5 -2l235 -497q34 -74 58 -99.5t56 -25.5q5 0 5 -6zM411 352l-90 190l-81 -190h171z" />
    <glyph glyph-name="AE" unicode="&#xc6;" horiz-adv-x="875" 
d="M817 151q3 0 5.5 -1t2.5 -3q-10 -70 -10 -132q0 -8 -3 -11.5t-12 -3.5h-408q-3 0 -3 6t3 6q38 0 55.5 5t23.5 19.5t6 44.5v234h-172l-129 -189q-30 -43 -30 -71q0 -43 77 -43q5 0 5 -6t-5 -6q-19 0 -53 2q-40 2 -69 2q-24 0 -54 -2q-28 -2 -45 -2q-5 0 -5 6t5 6
q31 0 70 31.5t78 88.5l304 442q12 17 12 25q0 9 -16.5 11.5t-60.5 2.5q-2 0 -2 6t2 6h394q9 0 9 -9l2 -124q0 -2 -5.5 -2t-5.5 2q-2 47 -32.5 79.5t-75.5 32.5h-54q-35 0 -51.5 -5t-23 -17.5t-6.5 -38.5v-208h113q48 0 69 16.5t21 54.5q0 2 5.5 2t5.5 -2l-1 -81l1 -45
q2 -30 2 -47q0 -3 -6 -3t-6 3q0 44 -21.5 63t-72.5 19h-110v-230q0 -27 6.5 -40.5t23 -18.5t49.5 -5h73q43 0 77 36t44 92q0 2 4 2zM477 335v232l-158 -232h158z" />
    <glyph glyph-name="AEacute" unicode="&#x1fc;" horiz-adv-x="875" 
d="M481 678q-4 0 -5.5 4.5t1.5 6.5q35 18 69.5 38.5t42.5 25.5q17 11 51 31q4 2 23 -4.5t33.5 -14.5t7.5 -9q-118 -30 -222 -78h-1zM817 151q3 0 5.5 -1t2.5 -3q-10 -72 -10 -132q0 -8 -3 -11.5t-12 -3.5h-408q-3 0 -3 6t3 6q37 0 54.5 5t24 19.5t6.5 44.5v234h-173
l-129 -189q-29 -44 -29 -71q0 -43 77 -43q5 0 5 -6t-5 -6q-19 0 -53 2q-40 2 -69 2q-24 0 -54 -2q-28 -2 -45 -2q-5 0 -5 6t5 6q31 0 69.5 31.5t78.5 88.5l304 442q12 17 12 25q0 9 -16 11.5t-61 2.5q-2 0 -2 6t2 6h393q10 0 10 -9l2 -124q0 -2 -6 -2t-6 2q-2 47 -31.5 79.5
t-75.5 32.5h-54q-35 0 -51.5 -5t-23 -17.5t-6.5 -38.5v-207h114q48 0 68.5 16.5t20.5 53.5q0 2 5.5 2t5.5 -2l-1 -81l1 -44q2 -30 2 -48q0 -3 -6 -3t-6 3q0 44 -21.5 63t-72.5 19h-110v-230q0 -27 6 -40.5t22.5 -18.5t50.5 -5h73q43 0 77 36t44 92q0 2 4 2zM477 336v231
l-158 -231h158z" />
    <glyph glyph-name="uni01E2" unicode="&#x1e2;" horiz-adv-x="875" 
d="M448 726.5q-2 4.5 -2 9.5t2 9.5t5 4.5h251q6 0 6 -14t-6 -14h-251q-3 0 -5 4.5zM817 151q3 0 5.5 -1t2.5 -3q-10 -72 -10 -132q0 -8 -3 -11.5t-12 -3.5h-408q-3 0 -3 6t3 6q37 0 54.5 5t24 19.5t6.5 44.5v234h-173l-129 -189q-29 -44 -29 -71q0 -43 77 -43q5 0 5 -6
t-5 -6q-19 0 -53 2q-40 2 -69 2q-24 0 -54 -2q-28 -2 -45 -2q-5 0 -5 6t5 6q31 0 69.5 31.5t78.5 88.5l304 442q12 17 12 25q0 9 -16 11.5t-61 2.5q-2 0 -2 6t2 6h393q10 0 10 -9l2 -124q0 -2 -6 -2t-6 2q-2 47 -31.5 79.5t-75.5 32.5h-54q-35 0 -51.5 -5t-23 -17.5
t-6.5 -38.5v-207h114q48 0 68.5 16.5t20.5 53.5q0 2 5.5 2t5.5 -2l-1 -81l1 -44q2 -30 2 -48q0 -3 -6 -3t-6 3q0 44 -21.5 63t-72.5 19h-110v-230q0 -27 6 -40.5t22.5 -18.5t50.5 -5h73q43 0 77 36t44 92q0 2 4 2zM477 336v231l-158 -231h158z" />
    <glyph glyph-name="B" unicode="B" horiz-adv-x="558" 
d="M460 299.5q48 -46.5 48 -115.5q0 -53 -26 -96t-71.5 -67.5t-101.5 -24.5q-33 0 -71 3q-14 1 -33 2t-43 1l-68 -1q-18 -1 -50 -1q-3 0 -3 6t3 6q37 0 55 5t24.5 19.5t6.5 44.5v463q0 30 -6.5 44t-24 19.5t-54.5 5.5q-3 0 -3 6t3 6l49 -1q42 -2 68 -2q18 0 33.5 1t27.5 2
q30 3 57 3q84 0 125.5 -36.5t41.5 -95.5q0 -48 -31 -85.5t-84 -58.5q80 -6 128 -52.5zM219.5 608.5q-12.5 -4.5 -18.5 -19t-6 -47.5v-190l45 -1q73 0 107.5 37.5t34.5 99.5q0 57 -30 91t-94 34q-26 0 -38.5 -4.5zM438 160q0 76 -44.5 122.5t-122.5 47.5q-24 1 -76 -1v-248
q0 -26 7.5 -40t28.5 -20.5t63 -6.5q144 0 144 146z" />
    <glyph glyph-name="C" unicode="C" horiz-adv-x="669" 
d="M512 627q49 -9 78 -26q9 -5 11 -8.5t3 -14.5l12 -113q0 -2 -5 -3t-6 2q-22 77 -82 113.5t-147 36.5q-76 0 -133 -33.5t-88 -94.5t-31 -141q0 -93 38.5 -172t104 -125t141.5 -46q72 0 125 39.5t81 121.5q0 2 5 2q7 0 7 -3l-15 -113q-2 -12 -4 -16t-11 -7q-90 -38 -190 -38
q-120 0 -200.5 48.5t-118.5 123.5t-38 158q0 92 51 164.5t135.5 113t179.5 40.5q48 0 97 -9z" />
    <glyph glyph-name="Cacute" unicode="&#x106;" horiz-adv-x="669" 
d="M281 678q-4 0 -5.5 4.5t1.5 6.5q35 18 69.5 38.5t42.5 25.5q17 11 51 31q4 2 23 -4.5t33.5 -14.5t7.5 -9q-118 -30 -222 -78h-1zM511.5 626.5q49.5 -9.5 79.5 -25.5q9 -5 11 -9t3 -14l11 -113q0 -2 -5 -3t-6 2q-22 77 -82 113.5t-148 36.5q-76 0 -132.5 -33.5
t-87.5 -94.5t-31 -141q0 -93 38.5 -171.5t104 -125t141.5 -46.5q72 0 125 39.5t81 121.5q0 2 4 2q3 0 5.5 -1t2.5 -3l-14 -112q-2 -13 -4.5 -16.5t-11.5 -6.5q-90 -38 -190 -38q-120 0 -200.5 48.5t-118.5 123.5t-38 158q0 92 51 165t135 113t179 40q48 0 97.5 -9.5z" />
    <glyph glyph-name="Ccaron" unicode="&#x10c;" horiz-adv-x="669" 
d="M264 784q-1 0 -1 0.5v0.5q0 2 2.5 4.5t4.5 1.5l109 -58l108 58h1q3 0 5 -3t-1 -4l-103 -97q-3 -4 -11 -4q-7 0 -11 4zM511.5 626.5q49.5 -9.5 79.5 -25.5q9 -5 11 -9t3 -14l11 -113q0 -2 -5 -3t-6 2q-22 77 -82 113.5t-148 36.5q-76 0 -132.5 -33.5t-87.5 -94.5t-31 -141
q0 -93 38.5 -171.5t104 -125t141.5 -46.5q72 0 125 39.5t81 121.5q0 2 4 2q3 0 5.5 -1t2.5 -3l-14 -112q-2 -13 -4.5 -16.5t-11.5 -6.5q-90 -38 -190 -38q-120 0 -200.5 48.5t-118.5 123.5t-38 158q0 92 51 165t135 113t179 40q48 0 97.5 -9.5z" />
    <glyph glyph-name="Ccedilla" unicode="&#xc7;" horiz-adv-x="669" 
d="M618 165q3 0 5.5 -1t2.5 -3l-14 -112q-2 -13 -4.5 -16.5t-11.5 -6.5q-90 -38 -190 -38h-19q-11 -35 -11 -47q0 -13 8 -20t35 -23q26 -15 40.5 -32.5t14.5 -44.5q0 -37 -26 -66.5t-77 -29.5q-28 0 -46.5 10t-18.5 29q0 12 9 20.5t21 8.5q11 0 17 -5.5t12 -16.5
q7 -13 14.5 -19.5t22.5 -6.5q34 0 34 37q0 27 -18.5 47.5t-67.5 46.5q-14 7 -14 13q0 4 5 17q13 33 31 83q-109 7 -181.5 56.5t-107 122t-34.5 150.5q0 92 51 165t135 113t179 40q48 0 97.5 -9.5t79.5 -25.5q9 -5 11 -9t3 -14l11 -113q0 -2 -5 -3t-6 2q-22 77 -82 113.5
t-148 36.5q-76 0 -132.5 -33.5t-87.5 -94.5t-31 -141q0 -93 38.5 -171.5t104 -125t141.5 -46.5q72 0 125 39.5t81 121.5q0 2 4 2z" />
    <glyph glyph-name="Ccircumflex" unicode="&#x108;" horiz-adv-x="669" 
d="M368 789q5 5 12 5q6 0 11 -5l103 -97q1 0 1 -2t-3 -4t-4 -1l-108 58l-109 -58q-2 -1 -5 2.5t-1 4.5zM511.5 626.5q49.5 -9.5 79.5 -25.5q9 -5 11 -9t3 -14l11 -113q0 -2 -5 -3t-6 2q-22 77 -82 113.5t-148 36.5q-76 0 -132.5 -33.5t-87.5 -94.5t-31 -141
q0 -93 38.5 -171.5t104 -125t141.5 -46.5q72 0 125 39.5t81 121.5q0 2 4 2q3 0 5.5 -1t2.5 -3l-14 -112q-2 -13 -4.5 -16.5t-11.5 -6.5q-90 -38 -190 -38q-120 0 -200.5 48.5t-118.5 123.5t-38 158q0 92 51 165t135 113t179 40q48 0 97.5 -9.5z" />
    <glyph glyph-name="Cdotaccent" unicode="&#x10a;" horiz-adv-x="669" 
d="M347 724.5q-12 11.5 -12 32.5q0 19 12 30t32 11t31 -11t11 -30q0 -21 -11 -32.5t-31 -11.5t-32 11.5zM511.5 626.5q49.5 -9.5 79.5 -25.5q9 -5 11 -9t3 -14l11 -113q0 -2 -5 -3t-6 2q-22 77 -82 113.5t-148 36.5q-76 0 -132.5 -33.5t-87.5 -94.5t-31 -141
q0 -93 38.5 -171.5t104 -125t141.5 -46.5q72 0 125 39.5t81 121.5q0 2 4 2q3 0 5.5 -1t2.5 -3l-14 -112q-2 -13 -4.5 -16.5t-11.5 -6.5q-90 -38 -190 -38q-120 0 -200.5 48.5t-118.5 123.5t-38 158q0 92 51 165t135 113t179 40q48 0 97.5 -9.5z" />
    <glyph glyph-name="D" unicode="D" horiz-adv-x="691" 
d="M235 -1q-15 1 -35.5 2t-46.5 1l-68 -1q-18 -1 -50 -1q-2 0 -2 6t2 6q38 0 56 5t24.5 19.5t6.5 44.5v463q0 30 -6.5 44t-24 19.5t-55.5 5.5q-2 0 -2 6t2 6l50 -1q42 -2 67 -2q38 0 75 3q44 2 61 2q104 0 184.5 -40t124.5 -109t44 -155q0 -97 -45.5 -171.5t-123.5 -115
t-170 -40.5q-30 0 -68 3zM434.5 44.5q61.5 33.5 96.5 99t35 157.5q0 87 -33 158t-93.5 112t-141.5 41q-44 0 -67 -5t-34 -20t-11 -45v-450q0 -44 22 -62.5t85 -18.5q80 0 141.5 33.5z" />
    <glyph glyph-name="Eth" unicode="&#xd0;" horiz-adv-x="691" 
d="M473.5 587q80.5 -40 124.5 -109t44 -155q0 -97 -45.5 -171.5t-123.5 -115t-170 -40.5q-30 0 -68 3q-15 1 -35.5 2t-46.5 1l-67 -1q-19 -1 -51 -1q-2 0 -2 6t2 6q38 0 56 5t24.5 19.5t6.5 44.5v220h-69q-4 0 -4 10t4 10h69v223q0 30 -6.5 44t-24 19.5t-55.5 5.5q-2 0 -2 6
t2 6l50 -1q42 -2 67 -2q36 0 74 3q46 2 62 2q104 0 184.5 -40zM434 45.5q62 33.5 97 98.5t35 157q0 87 -33 158t-93.5 112t-141.5 41q-44 0 -67 -5t-34 -19.5t-11 -45.5v-221h136q2 0 3.5 -3t1.5 -7t-1.5 -7t-3.5 -3h-136v-209q0 -30 8.5 -47t31.5 -25t66 -8q80 0 142 33.5z
" />
    <glyph glyph-name="Dcaron" unicode="&#x10e;" horiz-adv-x="691" 
d="M204 784q-1 0 -1 2t2.5 4t3.5 1l109 -58l108 58h1q2 0 4.5 -3t0.5 -4l-103 -97q-4 -4 -11 -4q-8 0 -12 4zM235 -1q-15 1 -35.5 2t-46.5 1l-67 -1q-19 -1 -51 -1q-2 0 -2 6t2 6q38 0 56 5t24.5 19.5t6.5 44.5v463q0 30 -6.5 44t-24 19.5t-55.5 5.5q-2 0 -2 6t2 6l50 -1
q42 -2 67 -2q36 0 74 3q46 2 62 2q104 0 184.5 -40t124.5 -109t44 -155q0 -97 -45.5 -171.5t-123.5 -115t-170 -40.5q-30 0 -68 3zM434 45.5q62 33.5 97 98.5t35 157q0 87 -33 158t-93.5 112t-141.5 41q-44 0 -67 -5t-34 -19.5t-11 -45.5v-450q0 -30 8.5 -47t31.5 -25t66 -8
q80 0 142 33.5z" />
    <glyph glyph-name="Dcroat" unicode="&#x110;" horiz-adv-x="691" 
d="M473.5 587q80.5 -40 124.5 -109t44 -155q0 -97 -45.5 -171.5t-123.5 -115t-170 -40.5q-30 0 -68 3q-15 1 -35.5 2t-46.5 1l-67 -1q-19 -1 -51 -1q-2 0 -2 6t2 6q38 0 56 5t24.5 19.5t6.5 44.5v220h-69q-4 0 -4 11q0 10 4 10h69v222q0 30 -6.5 44t-24 19.5t-55.5 5.5
q-2 0 -2 6t2 6l50 -1q42 -2 67 -2q36 0 74 3q46 2 62 2q104 0 184.5 -40zM434 45.5q62 33.5 97 98.5t35 157q0 87 -33 158t-93.5 112t-141.5 41q-44 0 -67 -5t-34 -19.5t-11 -45.5v-220h136q4 0 4 -10q0 -11 -4 -11h-136v-209q0 -30 8.5 -47t31.5 -25t66 -8q80 0 142 33.5z
" />
    <glyph glyph-name="uni1E0C" unicode="&#x1e0c;" horiz-adv-x="691" 
d="M235 -1q-15 1 -35.5 2t-46.5 1l-67 -1q-19 -1 -51 -1q-2 0 -2 6t2 6q38 0 56 5t24.5 19.5t6.5 44.5v463q0 30 -6.5 44t-24 19.5t-55.5 5.5q-2 0 -2 6t2 6l50 -1q42 -2 67 -2q36 0 74 3q46 2 62 2q104 0 184.5 -40t124.5 -109t44 -155q0 -97 -45.5 -171.5t-123.5 -115
t-170 -40.5q-30 0 -68 3zM434 45.5q62 33.5 97 98.5t35 157q0 87 -33 158t-93.5 112t-141.5 41q-44 0 -67 -5t-34 -19.5t-11 -45.5v-450q0 -30 8.5 -47t31.5 -25t66 -8q80 0 142 33.5zM292.5 -179q-11.5 12 -11.5 32q0 19 11.5 30.5t32.5 11.5q20 0 31 -11.5t11 -30.5
q0 -20 -11 -32t-31 -12q-21 0 -32.5 12z" />
    <glyph glyph-name="uni1E0E" unicode="&#x1e0e;" horiz-adv-x="691" 
d="M235 -1q-15 1 -35.5 2t-46.5 1l-67 -1q-19 -1 -51 -1q-2 0 -2 6t2 6q38 0 56 5t24.5 19.5t6.5 44.5v463q0 30 -6.5 44t-24 19.5t-55.5 5.5q-2 0 -2 6t2 6l50 -1q42 -2 67 -2q36 0 74 3q46 2 62 2q104 0 184.5 -40t124.5 -109t44 -155q0 -97 -45.5 -171.5t-123.5 -115
t-170 -40.5q-30 0 -68 3zM434 45.5q62 33.5 97 98.5t35 157q0 87 -33 158t-93.5 112t-141.5 41q-44 0 -67 -5t-34 -19.5t-11 -45.5v-450q0 -30 8.5 -47t31.5 -25t66 -8q80 0 142 33.5zM193 -108.5q-2 4.5 -2 9.5t2 9.5t5 4.5h251q6 0 6 -14t-6 -14h-251q-3 0 -5 4.5z" />
    <glyph glyph-name="E" unicode="E" horiz-adv-x="537" 
d="M480 151q2 0 4.5 -1.5t2.5 -2.5q-9 -63 -9 -132q0 -8 -3.5 -11.5t-11.5 -3.5h-419q-3 0 -3 6t3 6q38 0 55.5 5t23.5 19.5t6 44.5v463q0 30 -6 44t-23.5 19.5t-55.5 5.5q-3 0 -3 6t3 6h401q9 0 9 -9l3 -124q0 -2 -6 -2t-6 2q-4 53 -33 82.5t-77 29.5h-61q-34 0 -51 -5
t-23 -18.5t-6 -41.5v-204h122q48 0 68.5 16.5t20.5 54.5q0 2 6 2t6 -2l-1 -81q0 -30 1 -45l1 -47q0 -3 -6 -3t-6 3q0 44 -21.5 63t-71.5 19h-119v-230q0 -27 6 -40.5t22.5 -18.5t49.5 -5h80q47 0 79.5 34t43.5 94q0 2 5 2z" />
    <glyph glyph-name="Eacute" unicode="&#xc9;" horiz-adv-x="537" 
d="M194 678q-4 0 -6 4.5t2 6.5q35 18 69.5 38.5t42.5 25.5q17 11 51 31q4 2 23 -4.5t33.5 -14.5t7.5 -9q-121 -31 -222 -78h-1zM480 151q2 0 4.5 -1.5t2.5 -2.5q-10 -72 -10 -132q0 -8 -3 -11.5t-12 -3.5h-419q-2 0 -2 6t2 6q38 0 56 5t24 19.5t6 44.5v463q0 30 -6 44
t-24 19.5t-56 5.5q-2 0 -2 6t2 6h401q10 0 10 -9l2 -124q0 -2 -5 -2t-7 2q-2 53 -31 82.5t-77 29.5h-62q-34 0 -51 -5t-23 -18.5t-6 -41.5v-203h122q48 0 68.5 16.5t20.5 53.5q0 2 5.5 2t5.5 -2l-1 -81l1 -44q2 -30 2 -48q0 -3 -6 -3t-6 3q0 44 -21.5 63t-72.5 19h-118v-230
q0 -27 6 -40.5t22 -18.5t49 -5h81q47 0 79.5 34t43.5 94q0 2 5 2z" />
    <glyph glyph-name="Ebreve" unicode="&#x114;" horiz-adv-x="537" 
d="M222 717q-26 27 -33 79q-1 4 4 4.5t6 -1.5q8 -27 34.5 -46.5t58.5 -19.5q31 0 57.5 19.5t33.5 46.5q1 3 6 1.5t4 -4.5q-7 -52 -32.5 -79t-68.5 -27q-44 0 -70 27zM480 151q2 0 4.5 -1.5t2.5 -2.5q-10 -72 -10 -132q0 -8 -3 -11.5t-12 -3.5h-419q-2 0 -2 6t2 6q38 0 56 5
t24 19.5t6 44.5v463q0 30 -6 44t-24 19.5t-56 5.5q-2 0 -2 6t2 6h401q10 0 10 -9l2 -124q0 -2 -5 -2t-7 2q-2 53 -31 82.5t-77 29.5h-62q-34 0 -51 -5t-23 -18.5t-6 -41.5v-203h122q48 0 68.5 16.5t20.5 53.5q0 2 5.5 2t5.5 -2l-1 -81l1 -44q2 -30 2 -48q0 -3 -6 -3t-6 3
q0 44 -21.5 63t-72.5 19h-118v-230q0 -27 6 -40.5t22 -18.5t49 -5h81q47 0 79.5 34t43.5 94q0 2 5 2z" />
    <glyph glyph-name="Ecaron" unicode="&#x11a;" horiz-adv-x="537" 
d="M176 784.5v0.5q0 2 2.5 4.5t4.5 1.5l109 -58l107 58h2q3 0 5 -3t-1 -4l-103 -97q-4 -4 -11 -4t-11 4l-103 97q-1 0 -1 0.5zM480 151q2 0 4.5 -1.5t2.5 -2.5q-10 -72 -10 -132q0 -8 -3 -11.5t-12 -3.5h-419q-2 0 -2 6t2 6q38 0 56 5t24 19.5t6 44.5v463q0 30 -6 44
t-24 19.5t-56 5.5q-2 0 -2 6t2 6h401q10 0 10 -9l2 -124q0 -2 -5 -2t-7 2q-2 53 -31 82.5t-77 29.5h-62q-34 0 -51 -5t-23 -18.5t-6 -41.5v-203h122q48 0 68.5 16.5t20.5 53.5q0 2 5.5 2t5.5 -2l-1 -81l1 -44q2 -30 2 -48q0 -3 -6 -3t-6 3q0 44 -21.5 63t-72.5 19h-118v-230
q0 -27 6 -40.5t22 -18.5t49 -5h81q47 0 79.5 34t43.5 94q0 2 5 2z" />
    <glyph glyph-name="Ecircumflex" unicode="&#xca;" horiz-adv-x="537" 
d="M179 687.5q-3 3.5 -1 4.5l103 97q5 5 11 5q8 0 11 -5l103 -97q1 0 1 -2t-2.5 -4t-3.5 -1l-108 58l-109 -58q-2 -1 -5 2.5zM480 151q2 0 4.5 -1.5t2.5 -2.5q-10 -72 -10 -132q0 -8 -3 -11.5t-12 -3.5h-419q-2 0 -2 6t2 6q38 0 56 5t24 19.5t6 44.5v463q0 30 -6 44
t-24 19.5t-56 5.5q-2 0 -2 6t2 6h401q10 0 10 -9l2 -124q0 -2 -5 -2t-7 2q-2 53 -31 82.5t-77 29.5h-62q-34 0 -51 -5t-23 -18.5t-6 -41.5v-203h122q48 0 68.5 16.5t20.5 53.5q0 2 5.5 2t5.5 -2l-1 -81l1 -44q2 -30 2 -48q0 -3 -6 -3t-6 3q0 44 -21.5 63t-72.5 19h-118v-230
q0 -27 6 -40.5t22 -18.5t49 -5h81q47 0 79.5 34t43.5 94q0 2 5 2z" />
    <glyph glyph-name="uni1EBE" unicode="&#x1ebe;" horiz-adv-x="537" 
d="M449.5 826.5q19.5 -6.5 34.5 -15t7 -10.5q-37 -15 -67.5 -33t-65.5 -44h-2q-4 0 -6 3t1 5q38 43 76 97q3 4 22.5 -2.5zM177 650.5q-3 3.5 0 4.5l103 97q5 5 11 5t11 -5l103 -97q1 0 1 -2t-3 -4t-4 -1l-108 57l-109 -57q-2 -1 -5 2.5zM480 151q2 0 4.5 -1.5t2.5 -2.5
q-10 -72 -10 -132q0 -8 -3 -11.5t-12 -3.5h-419q-2 0 -2 6t2 6q38 0 56 5t24 19.5t6 44.5v463q0 30 -6 44t-24 19.5t-56 5.5q-2 0 -2 6t2 6h401q10 0 10 -9l2 -124q0 -2 -5 -2t-7 2q-2 53 -31 82.5t-77 29.5h-62q-34 0 -51 -5t-23 -18.5t-6 -41.5v-203h122q48 0 68.5 16.5
t20.5 53.5q0 2 5.5 2t5.5 -2l-1 -81l1 -44q2 -30 2 -48q0 -3 -6 -3t-6 3q0 44 -21.5 63t-72.5 19h-118v-230q0 -27 6 -40.5t22 -18.5t49 -5h81q47 0 79.5 34t43.5 94q0 2 5 2z" />
    <glyph glyph-name="uni1EC6" unicode="&#x1ec6;" horiz-adv-x="537" 
d="M178 650.5q-3 3.5 -1 4.5l103 97q5 5 11 5t11 -5l103 -97q1 0 1 -2t-2.5 -4t-4.5 -1l-107 57l-109 -57q-2 -1 -5 2.5zM480 151q2 0 4.5 -1.5t2.5 -2.5q-10 -72 -10 -132q0 -8 -3 -11.5t-12 -3.5h-419q-2 0 -2 6t2 6q38 0 56 5t24 19.5t6 44.5v463q0 30 -6 44t-24 19.5
t-56 5.5q-2 0 -2 6t2 6h401q10 0 10 -9l2 -124q0 -2 -5 -2t-7 2q-2 53 -31 82.5t-77 29.5h-62q-34 0 -51 -5t-23 -18.5t-6 -41.5v-203h122q48 0 68.5 16.5t20.5 53.5q0 2 5.5 2t5.5 -2l-1 -81l1 -44q2 -30 2 -48q0 -3 -6 -3t-6 3q0 44 -21.5 63t-72.5 19h-118v-230
q0 -27 6 -40.5t22 -18.5t49 -5h81q47 0 79.5 34t43.5 94q0 2 5 2zM319 -116.5q11 -11.5 11 -30.5q0 -20 -11 -32t-31 -12q-21 0 -33 12t-12 32q0 19 12 30.5t33 11.5q20 0 31 -11.5z" />
    <glyph glyph-name="uni1EC0" unicode="&#x1ec0;" horiz-adv-x="537" 
d="M334 789.5q15 8.5 34.5 15t22.5 2.5q29 -43 76 -96q1 -1 1 -3q0 -3 -2.5 -5t-5.5 -1q-37 26 -67 44t-67 33q-7 2 8 10.5zM177 650.5q-3 3.5 0 4.5l103 97q5 5 11 5t11 -5l103 -97q1 0 1 -2t-3 -4t-4 -1l-108 57l-109 -57q-2 -1 -5 2.5zM480 151q2 0 4.5 -1.5t2.5 -2.5
q-10 -72 -10 -132q0 -8 -3 -11.5t-12 -3.5h-419q-2 0 -2 6t2 6q38 0 56 5t24 19.5t6 44.5v463q0 30 -6 44t-24 19.5t-56 5.5q-2 0 -2 6t2 6h401q10 0 10 -9l2 -124q0 -2 -5 -2t-7 2q-2 53 -31 82.5t-77 29.5h-62q-34 0 -51 -5t-23 -18.5t-6 -41.5v-203h122q48 0 68.5 16.5
t20.5 53.5q0 2 5.5 2t5.5 -2l-1 -81l1 -44q2 -30 2 -48q0 -3 -6 -3t-6 3q0 44 -21.5 63t-72.5 19h-118v-230q0 -27 6 -40.5t22 -18.5t49 -5h81q47 0 79.5 34t43.5 94q0 2 5 2z" />
    <glyph glyph-name="uni1EC2" unicode="&#x1ec2;" horiz-adv-x="537" 
d="M341 837q-4 0 -6.5 3.5t0.5 5.5q32 18 59 18q23 0 35.5 -12.5t12.5 -29.5q0 -14 -8 -25t-24 -27q-16 -15 -22.5 -25t-3.5 -22q1 -2 -5 -2.5t-7 2.5q-2 5 -2 13q0 13 14 37q6 9 10.5 19t4.5 20q0 15 -10.5 23t-23.5 8q-12 0 -23 -6h-1zM177 650.5q-3 3.5 0 4.5l103 97
q5 5 11 5t11 -5l103 -97q1 0 1 -2t-3 -4t-4 -1l-108 57l-109 -57q-2 -1 -5 2.5zM480 151q2 0 4.5 -1.5t2.5 -2.5q-10 -72 -10 -132q0 -8 -3 -11.5t-12 -3.5h-419q-2 0 -2 6t2 6q38 0 56 5t24 19.5t6 44.5v463q0 30 -6 44t-24 19.5t-56 5.5q-2 0 -2 6t2 6h401q10 0 10 -9
l2 -124q0 -2 -5 -2t-7 2q-2 53 -31 82.5t-77 29.5h-62q-34 0 -51 -5t-23 -18.5t-6 -41.5v-203h122q48 0 68.5 16.5t20.5 53.5q0 2 5.5 2t5.5 -2l-1 -81l1 -44q2 -30 2 -48q0 -3 -6 -3t-6 3q0 44 -21.5 63t-72.5 19h-118v-230q0 -27 6 -40.5t22 -18.5t49 -5h81q47 0 79.5 34
t43.5 94q0 2 5 2z" />
    <glyph glyph-name="uni1EC4" unicode="&#x1ec4;" horiz-adv-x="537" 
d="M171 766q-2 0 -4.5 2.5t-1.5 4.5q17 24 39.5 43t45.5 19q14 0 50 -10q46 -14 75 -14q17 0 27.5 6.5t22.5 19.5q0 1 2 1t4 -3t1 -5q-27 -37 -44 -49.5t-36 -12.5q-14 0 -29.5 3.5t-30.5 8.5q-17 5 -35.5 9t-35.5 4q-16 0 -24.5 -5t-15 -12t-9.5 -10h-1zM405 655q1 0 1 -2
t-3 -4t-4 -1l-108 57l-109 -57q-2 -1 -5 2.5t0 4.5l103 97q5 5 11 5t11 -5zM480 151q2 0 4.5 -1.5t2.5 -2.5q-10 -72 -10 -132q0 -8 -3 -11.5t-12 -3.5h-419q-2 0 -2 6t2 6q38 0 56 5t24 19.5t6 44.5v463q0 30 -6 44t-24 19.5t-56 5.5q-2 0 -2 6t2 6h401q10 0 10 -9l2 -124
q0 -2 -5 -2t-7 2q-2 53 -31 82.5t-77 29.5h-62q-34 0 -51 -5t-23 -18.5t-6 -41.5v-203h122q48 0 68.5 16.5t20.5 53.5q0 2 5.5 2t5.5 -2l-1 -81l1 -44q2 -30 2 -48q0 -3 -6 -3t-6 3q0 44 -21.5 63t-72.5 19h-118v-230q0 -27 6 -40.5t22 -18.5t49 -5h81q47 0 79.5 34t43.5 94
q0 2 5 2z" />
    <glyph glyph-name="Edieresis" unicode="&#xcb;" horiz-adv-x="537" 
d="M173 727q-11 11 -11 31q0 18 11.5 29t30.5 11q20 0 31 -11t11 -29q0 -20 -11 -31t-31 -11t-31 11zM348 727q-11 11 -11 31q0 18 11.5 29t30.5 11t30 -11t11 -29q0 -20 -10.5 -31t-30.5 -11t-31 11zM480 151q2 0 4.5 -1.5t2.5 -2.5q-10 -72 -10 -132q0 -8 -3 -11.5
t-12 -3.5h-419q-2 0 -2 6t2 6q38 0 56 5t24 19.5t6 44.5v463q0 30 -6 44t-24 19.5t-56 5.5q-2 0 -2 6t2 6h401q10 0 10 -9l2 -124q0 -2 -5 -2t-7 2q-2 53 -31 82.5t-77 29.5h-62q-34 0 -51 -5t-23 -18.5t-6 -41.5v-203h122q48 0 68.5 16.5t20.5 53.5q0 2 5.5 2t5.5 -2
l-1 -81l1 -44q2 -30 2 -48q0 -3 -6 -3t-6 3q0 44 -21.5 63t-72.5 19h-118v-230q0 -27 6 -40.5t22 -18.5t49 -5h81q47 0 79.5 34t43.5 94q0 2 5 2z" />
    <glyph glyph-name="Edotaccent" unicode="&#x116;" horiz-adv-x="537" 
d="M260 724.5q-12 11.5 -12 32.5q0 19 12 30t32 11t31 -11t11 -30q0 -21 -11 -32.5t-31 -11.5t-32 11.5zM480 151q2 0 4.5 -1.5t2.5 -2.5q-10 -72 -10 -132q0 -8 -3 -11.5t-12 -3.5h-419q-2 0 -2 6t2 6q38 0 56 5t24 19.5t6 44.5v463q0 30 -6 44t-24 19.5t-56 5.5q-2 0 -2 6
t2 6h401q10 0 10 -9l2 -124q0 -2 -5 -2t-7 2q-2 53 -31 82.5t-77 29.5h-62q-34 0 -51 -5t-23 -18.5t-6 -41.5v-203h122q48 0 68.5 16.5t20.5 53.5q0 2 5.5 2t5.5 -2l-1 -81l1 -44q2 -30 2 -48q0 -3 -6 -3t-6 3q0 44 -21.5 63t-72.5 19h-118v-230q0 -27 6 -40.5t22 -18.5
t49 -5h81q47 0 79.5 34t43.5 94q0 2 5 2z" />
    <glyph glyph-name="uni1EB8" unicode="&#x1eb8;" horiz-adv-x="537" 
d="M480 151q2 0 4.5 -1.5t2.5 -2.5q-10 -72 -10 -132q0 -8 -3 -11.5t-12 -3.5h-419q-2 0 -2 6t2 6q38 0 56 5t24 19.5t6 44.5v463q0 30 -6 44t-24 19.5t-56 5.5q-2 0 -2 6t2 6h401q10 0 10 -9l2 -124q0 -2 -5 -2t-7 2q-2 53 -31 82.5t-77 29.5h-62q-34 0 -51 -5t-23 -18.5
t-6 -41.5v-203h122q48 0 68.5 16.5t20.5 53.5q0 2 5.5 2t5.5 -2l-1 -81l1 -44q2 -30 2 -48q0 -3 -6 -3t-6 3q0 44 -21.5 63t-72.5 19h-118v-230q0 -27 6 -40.5t22 -18.5t49 -5h81q47 0 79.5 34t43.5 94q0 2 5 2zM319 -116.5q11 -11.5 11 -30.5q0 -20 -11 -32t-31 -12
q-21 0 -33 12t-12 32q0 19 12 30.5t33 11.5q20 0 31 -11.5z" />
    <glyph glyph-name="Egrave" unicode="&#xc8;" horiz-adv-x="537" 
d="M174.5 765q14.5 8 34 14.5t23.5 4.5l43 -26q78 -48 120 -69q2 -2 2 -4q0 -3 -2 -5.5t-5 -1.5q-104 48 -222 78q-8 1 6.5 9zM480 151q2 0 4.5 -1.5t2.5 -2.5q-10 -72 -10 -132q0 -8 -3 -11.5t-12 -3.5h-419q-2 0 -2 6t2 6q38 0 56 5t24 19.5t6 44.5v463q0 30 -6 44
t-24 19.5t-56 5.5q-2 0 -2 6t2 6h401q10 0 10 -9l2 -124q0 -2 -5 -2t-7 2q-2 53 -31 82.5t-77 29.5h-62q-34 0 -51 -5t-23 -18.5t-6 -41.5v-203h122q48 0 68.5 16.5t20.5 53.5q0 2 5.5 2t5.5 -2l-1 -81l1 -44q2 -30 2 -48q0 -3 -6 -3t-6 3q0 44 -21.5 63t-72.5 19h-118v-230
q0 -27 6 -40.5t22 -18.5t49 -5h81q47 0 79.5 34t43.5 94q0 2 5 2z" />
    <glyph glyph-name="uni1EBA" unicode="&#x1eba;" horiz-adv-x="537" 
d="M250 813q-4 0 -6.5 3.5t0.5 4.5q33 21 65 21q30 0 46.5 -14.5t16.5 -36.5q0 -19 -10.5 -34.5t-30.5 -35.5q-18 -18 -27.5 -32t-9.5 -29q0 -6 1 -9q0 -2 -5 -2t-6 2q-3 12 -3 22q0 15 5 27.5t16 30.5q19 29 19 49q0 19 -12 29.5t-30 10.5q-17 0 -28 -7h-1zM480 151
q2 0 4.5 -1.5t2.5 -2.5q-10 -72 -10 -132q0 -8 -3 -11.5t-12 -3.5h-419q-2 0 -2 6t2 6q38 0 56 5t24 19.5t6 44.5v463q0 30 -6 44t-24 19.5t-56 5.5q-2 0 -2 6t2 6h401q10 0 10 -9l2 -124q0 -2 -5 -2t-7 2q-2 53 -31 82.5t-77 29.5h-62q-34 0 -51 -5t-23 -18.5t-6 -41.5
v-203h122q48 0 68.5 16.5t20.5 53.5q0 2 5.5 2t5.5 -2l-1 -81l1 -44q2 -30 2 -48q0 -3 -6 -3t-6 3q0 44 -21.5 63t-72.5 19h-118v-230q0 -27 6 -40.5t22 -18.5t49 -5h81q47 0 79.5 34t43.5 94q0 2 5 2z" />
    <glyph glyph-name="Emacron" unicode="&#x112;" horiz-adv-x="537" 
d="M159 736q0 14 6 14h252q6 0 6 -14t-6 -14h-252q-6 0 -6 14zM480 151q2 0 4.5 -1.5t2.5 -2.5q-10 -72 -10 -132q0 -8 -3 -11.5t-12 -3.5h-419q-2 0 -2 6t2 6q38 0 56 5t24 19.5t6 44.5v463q0 30 -6 44t-24 19.5t-56 5.5q-2 0 -2 6t2 6h401q10 0 10 -9l2 -124q0 -2 -5 -2
t-7 2q-2 53 -31 82.5t-77 29.5h-62q-34 0 -51 -5t-23 -18.5t-6 -41.5v-203h122q48 0 68.5 16.5t20.5 53.5q0 2 5.5 2t5.5 -2l-1 -81l1 -44q2 -30 2 -48q0 -3 -6 -3t-6 3q0 44 -21.5 63t-72.5 19h-118v-230q0 -27 6 -40.5t22 -18.5t49 -5h81q47 0 79.5 34t43.5 94q0 2 5 2z
" />
    <glyph glyph-name="Eogonek" unicode="&#x118;" horiz-adv-x="537" 
d="M499 -222q3 0 5.5 -3t0.5 -5q-53 -45 -109 -45q-54 0 -83 26.5t-29 71.5q0 87 112 177h-353q-2 0 -2 6t2 6q38 0 56 5t24 19.5t6 44.5v463q0 30 -6 44t-24 19.5t-56 5.5q-2 0 -2 6t2 6h401q10 0 10 -9l2 -124q0 -2 -5 -2t-7 2q-2 53 -31 82.5t-77 29.5h-62q-34 0 -51 -5
t-23 -18.5t-6 -41.5v-203h122q48 0 68.5 16.5t20.5 53.5q0 2 5.5 2t5.5 -2l-1 -81l1 -44q2 -30 2 -48q0 -3 -6 -3t-6 3q0 44 -21.5 63t-72.5 19h-118v-230q0 -27 6 -40.5t22 -18.5t49 -5h81q47 0 79.5 34t43.5 94q0 2 5 2q2 0 4.5 -1.5t2.5 -2.5q-10 -72 -10 -132
q0 -8 -3 -11.5t-12 -3.5h-47q-40 -37 -58 -70.5t-18 -72.5q0 -48 24 -74.5t69 -26.5q37 0 66 22h1z" />
    <glyph glyph-name="uni1EBC" unicode="&#x1ebc;" horiz-adv-x="537" 
d="M166 697q-3 0 -5.5 2.5t-0.5 4.5q17 24 39.5 43t45.5 19q14 0 50 -10q46 -14 75 -14q17 0 26.5 6t22.5 20l2 1q2 0 4 -3t1 -5q-26 -36 -43 -49t-36 -13q-21 0 -61 12q-4 1 -25.5 7t-44.5 6q-16 0 -24.5 -5t-15 -12t-9.5 -10h-1zM480 151q2 0 4.5 -1.5t2.5 -2.5
q-10 -72 -10 -132q0 -8 -3 -11.5t-12 -3.5h-419q-2 0 -2 6t2 6q38 0 56 5t24 19.5t6 44.5v463q0 30 -6 44t-24 19.5t-56 5.5q-2 0 -2 6t2 6h401q10 0 10 -9l2 -124q0 -2 -5 -2t-7 2q-2 53 -31 82.5t-77 29.5h-62q-34 0 -51 -5t-23 -18.5t-6 -41.5v-203h122q48 0 68.5 16.5
t20.5 53.5q0 2 5.5 2t5.5 -2l-1 -81l1 -44q2 -30 2 -48q0 -3 -6 -3t-6 3q0 44 -21.5 63t-72.5 19h-118v-230q0 -27 6 -40.5t22 -18.5t49 -5h81q47 0 79.5 34t43.5 94q0 2 5 2z" />
    <glyph glyph-name="F" unicode="F" horiz-adv-x="510" 
d="M457 492q0 -2 -6 -2t-6 2q-4 53 -33 82.5t-77 29.5h-61q-33 0 -50 -5t-23.5 -18t-6.5 -38v-219h101q53 0 76 16.5t23 53.5q0 3 5.5 3t5.5 -3l-1 -81q0 -29 1 -44l1 -48q0 -3 -5.5 -3t-5.5 3q0 44 -24 63t-79 19h-98v-218q0 -32 8.5 -46.5t33.5 -20.5t79 -6q2 0 2 -6
t-2 -6q-41 0 -64 1l-90 1l-68 -1q-18 -1 -51 -1q-2 0 -2 6t2 6q38 0 56 5t24.5 19.5t6.5 44.5v463q0 30 -6 44t-23.5 19.5t-55.5 5.5q-3 0 -3 6t3 6h401q9 0 9 -9z" />
    <glyph glyph-name="G" unicode="G" horiz-adv-x="715" 
d="M215.5 30q-80.5 42 -123.5 114.5t-43 161.5q0 96 49.5 171.5t136 117t195.5 41.5q48 0 93 -9.5t73 -26.5q7 -4 9 -7.5t2.5 -8t0.5 -6.5l12 -113q0 -2 -5.5 -3t-6.5 2q-22 72 -79.5 111t-141.5 39q-126 0 -195 -73t-69 -200q0 -97 39.5 -173.5t109.5 -119.5t157 -43
q51 0 79 9t41 35t13 77q0 52 -6.5 72.5t-29 27.5t-77.5 7q-6 0 -6 8q0 3 1.5 5.5t3.5 2.5q78 -5 126 -5q47 0 99 3q4 0 4.5 -7t-4.5 -7q-25 1 -35 -6.5t-13 -30.5t-3 -80q0 -45 3.5 -64t3.5 -24q0 -6 -2 -8t-9 -4q-119 -28 -213 -28q-109 0 -189.5 42z" />
    <glyph glyph-name="Gbreve" unicode="&#x11e;" horiz-adv-x="715" 
d="M324.5 717q-26.5 27 -33.5 79q-1 4 4.5 4.5t6.5 -1.5q7 -27 33.5 -46.5t58.5 -19.5q31 0 57.5 19.5t33.5 46.5q2 2 7 1.5t4 -4.5q-7 -52 -33 -79t-69 -27t-69.5 27zM215 30q-81 42 -123.5 114t-42.5 161q0 97 49.5 172t136 117t195.5 42q47 0 92 -9.5t74 -26.5q7 -4 9 -8
t2.5 -8t0.5 -6l12 -113q0 -2 -5.5 -3t-6.5 2q-22 72 -79.5 111t-141.5 39q-127 0 -195.5 -72.5t-68.5 -199.5q0 -97 39.5 -174t109.5 -120t157 -43q51 0 79.5 9t41.5 35t13 77q0 52 -7 72.5t-29.5 27.5t-77.5 7q-6 0 -6 8q0 3 1.5 5.5t3.5 2.5q78 -5 126 -5q47 0 99 3
q4 0 4.5 -7t-4.5 -7q-25 1 -35 -6.5t-13 -30.5t-3 -80q0 -45 3.5 -64t3.5 -24q0 -6 -2 -8t-9 -4q-119 -28 -213 -28q-109 0 -190 42z" />
    <glyph glyph-name="Gcaron" unicode="&#x1e6;" horiz-adv-x="715" 
d="M280 784q-1 0 -1 2t2.5 4t3.5 1l109 -58l108 58h1q2 0 4.5 -3t0.5 -4l-103 -97q-4 -4 -11 -4q-8 0 -12 4zM215 30q-81 42 -123.5 114t-42.5 161q0 97 49.5 172t136 117t195.5 42q47 0 92 -9.5t74 -26.5q7 -4 9 -8t2.5 -8t0.5 -6l12 -113q0 -2 -5.5 -3t-6.5 2
q-22 72 -79.5 111t-141.5 39q-127 0 -195.5 -72.5t-68.5 -199.5q0 -97 39.5 -174t109.5 -120t157 -43q51 0 79.5 9t41.5 35t13 77q0 52 -7 72.5t-29.5 27.5t-77.5 7q-6 0 -6 8q0 3 1.5 5.5t3.5 2.5q78 -5 126 -5q47 0 99 3q4 0 4.5 -7t-4.5 -7q-25 1 -35 -6.5t-13 -30.5
t-3 -80q0 -45 3.5 -64t3.5 -24q0 -6 -2 -8t-9 -4q-119 -28 -213 -28q-109 0 -190 42z" />
    <glyph glyph-name="Gcircumflex" unicode="&#x11c;" horiz-adv-x="715" 
d="M384 789q5 5 11 5t11 -5l103 -97q1 0 1 -2t-3 -4t-4 -1l-108 58l-108 -58q-2 -1 -5.5 2.5t-0.5 4.5zM215 30q-81 42 -123.5 114t-42.5 161q0 97 49.5 172t136 117t195.5 42q47 0 92 -9.5t74 -26.5q7 -4 9 -8t2.5 -8t0.5 -6l12 -113q0 -2 -5.5 -3t-6.5 2q-22 72 -79.5 111
t-141.5 39q-127 0 -195.5 -72.5t-68.5 -199.5q0 -97 39.5 -174t109.5 -120t157 -43q51 0 79.5 9t41.5 35t13 77q0 52 -7 72.5t-29.5 27.5t-77.5 7q-6 0 -6 8q0 3 1.5 5.5t3.5 2.5q78 -5 126 -5q47 0 99 3q4 0 4.5 -7t-4.5 -7q-25 1 -35 -6.5t-13 -30.5t-3 -80q0 -45 3.5 -64
t3.5 -24q0 -6 -2 -8t-9 -4q-119 -28 -213 -28q-109 0 -190 42z" />
    <glyph glyph-name="Gcommaaccent" unicode="&#x122;" horiz-adv-x="715" 
d="M677.5 240q0.5 -7 -4.5 -7q-25 1 -35 -6.5t-13 -30.5t-3 -80q0 -45 3.5 -64t3.5 -24q0 -6 -2 -8t-9 -4q-119 -28 -213 -28q-109 0 -190 42t-123.5 114t-42.5 161q0 97 49.5 172t136 117t195.5 42q47 0 92 -9.5t74 -26.5q7 -4 9 -8t2.5 -8t0.5 -6l12 -113q0 -2 -5.5 -3
t-6.5 2q-22 72 -79.5 111t-141.5 39q-127 0 -195.5 -72.5t-68.5 -199.5q0 -97 39.5 -174t109.5 -120t157 -43q51 0 79.5 9t41.5 35t13 77q0 52 -7 72.5t-29.5 27.5t-77.5 7q-6 0 -6 8q0 3 1.5 5.5t3.5 2.5q78 -5 126 -5q47 0 99 3q4 0 4.5 -7zM452.5 -104q14.5 -19 14.5 -54
q0 -33 -15.5 -61.5t-45.5 -55.5q-1 -1 -3 -1q-3 0 -5 3.5t0 4.5q44 41 44 90q0 20 -6 29q-7 -15 -30 -15q-19 0 -29 10.5t-10 28.5q0 21 12 30.5t32 9.5q27 0 41.5 -19z" />
    <glyph glyph-name="Gdotaccent" unicode="&#x120;" horiz-adv-x="715" 
d="M362 724.5q-12 11.5 -12 32.5q0 19 12 30t32 11t31 -11t11 -30q0 -21 -11 -32.5t-31 -11.5t-32 11.5zM215 30q-81 42 -123.5 114t-42.5 161q0 97 49.5 172t136 117t195.5 42q47 0 92 -9.5t74 -26.5q7 -4 9 -8t2.5 -8t0.5 -6l12 -113q0 -2 -5.5 -3t-6.5 2
q-22 72 -79.5 111t-141.5 39q-127 0 -195.5 -72.5t-68.5 -199.5q0 -97 39.5 -174t109.5 -120t157 -43q51 0 79.5 9t41.5 35t13 77q0 52 -7 72.5t-29.5 27.5t-77.5 7q-6 0 -6 8q0 3 1.5 5.5t3.5 2.5q78 -5 126 -5q47 0 99 3q4 0 4.5 -7t-4.5 -7q-25 1 -35 -6.5t-13 -30.5
t-3 -80q0 -45 3.5 -64t3.5 -24q0 -6 -2 -8t-9 -4q-119 -28 -213 -28q-109 0 -190 42z" />
    <glyph glyph-name="uni1E20" unicode="&#x1e20;" horiz-adv-x="715" 
d="M262 736q0 14 6 14h251q6 0 6 -14t-6 -14h-251q-6 0 -6 14zM215 30q-81 42 -123.5 114t-42.5 161q0 97 49.5 172t136 117t195.5 42q47 0 92 -9.5t74 -26.5q7 -4 9 -8t2.5 -8t0.5 -6l12 -113q0 -2 -5.5 -3t-6.5 2q-22 72 -79.5 111t-141.5 39q-127 0 -195.5 -72.5
t-68.5 -199.5q0 -97 39.5 -174t109.5 -120t157 -43q51 0 79.5 9t41.5 35t13 77q0 52 -7 72.5t-29.5 27.5t-77.5 7q-6 0 -6 8q0 3 1.5 5.5t3.5 2.5q78 -5 126 -5q47 0 99 3q4 0 4.5 -7t-4.5 -7q-25 1 -35 -6.5t-13 -30.5t-3 -80q0 -45 3.5 -64t3.5 -24q0 -6 -2 -8t-9 -4
q-119 -28 -213 -28q-109 0 -190 42z" />
    <glyph glyph-name="H" unicode="H" horiz-adv-x="759" 
d="M725 6q0 -6 -2 -6q-32 0 -50 1l-70 1l-72 -1q-18 -1 -48 -1q-3 0 -3 6t3 6q39 0 57 5t24.5 19.5t6.5 44.5v234h-384v-234q0 -30 6.5 -44.5t24.5 -19.5t57 -5q3 0 3 -6t-3 -6q-31 0 -49 1l-72 1l-69 -1q-19 -1 -50 -1q-2 0 -2 6t2 6q38 0 56.5 5t25 19.5t6.5 44.5v463
q0 30 -6.5 44t-24.5 19.5t-56 5.5q-2 0 -2 6t2 6l50 -1q42 -2 68 -2q29 0 73 2l48 1q3 0 3 -6t-3 -6q-38 0 -56.5 -6t-25 -20.5t-6.5 -44.5v-207h384v207q0 30 -6.5 44.5t-24.5 20.5t-57 6q-3 0 -3 6t3 6l48 -1q44 -2 72 -2q26 0 70 2l50 1q2 0 2 -6t-2 -6q-38 0 -56.5 -5.5
t-25 -19.5t-6.5 -44v-463q0 -30 6.5 -44.5t25 -19.5t56.5 -5q2 0 2 -6z" />
    <glyph glyph-name="Hbar" unicode="&#x126;" horiz-adv-x="759" 
d="M725 6q0 -6 -2 -6q-32 0 -50 1l-70 1l-72 -1q-18 -1 -48 -1q-3 0 -3 6t3 6q39 0 57 5t24.5 19.5t6.5 44.5v140h-384v-140q0 -30 6.5 -44.5t24.5 -19.5t57 -5q3 0 3 -6t-3 -6q-31 0 -49 1l-72 1l-69 -1q-19 -1 -50 -1q-2 0 -2 6t2 6q38 0 56.5 5t25 19.5t6.5 44.5v463
q0 30 -6.5 44t-24.5 19.5t-56 5.5q-2 0 -2 6t2 6l50 -1q42 -2 68 -2q29 0 73 2l48 1q3 0 3 -6t-3 -6q-38 0 -56.5 -6t-25 -20.5t-6.5 -44.5v-113h384v113q0 30 -6.5 44.5t-24.5 20.5t-57 6q-3 0 -3 6t3 6l48 -1q44 -2 72 -2q26 0 70 2l50 1q2 0 2 -6t-2 -6q-38 0 -56.5 -5.5
t-25 -19.5t-6.5 -44v-463q0 -30 6.5 -44.5t25 -19.5t56.5 -5q2 0 2 -6zM571 242v166h-384v-166h384z" />
    <glyph glyph-name="uni1E2A" unicode="&#x1e2a;" horiz-adv-x="759" 
d="M725 6q0 -6 -2 -6q-33 0 -51 1l-68 1l-74 -1q-17 -1 -47 -1q-2 0 -2 6t2 6q39 0 57 5t24.5 19.5t6.5 44.5v234h-384v-234q0 -30 6.5 -44.5t24.5 -19.5t57 -5q2 0 2 -6t-2 -6q-31 0 -49 1l-73 1l-67 -1q-18 -1 -51 -1q-2 0 -2 6t2 6q38 0 56.5 5t25 19.5t6.5 44.5v463
q0 30 -6.5 44t-24.5 19.5t-56 5.5q-2 0 -2 6t2 6l51 -1q42 -2 66 -2q30 0 74 2l48 1q2 0 2 -6t-2 -6q-38 0 -56.5 -6t-25 -20.5t-6.5 -44.5v-206h384v206q0 30 -6.5 44.5t-24.5 20.5t-57 6q-2 0 -2 6t2 6l47 -1q44 -2 74 -2q26 0 68 2l51 1q2 0 2 -6t-2 -6q-38 0 -56.5 -5.5
t-25 -19.5t-6.5 -44v-463q0 -30 6.5 -44.5t25 -19.5t56.5 -5q2 0 2 -6zM475 -74q2 0 4.5 -1.5t2.5 -2.5q0 -74 -26 -112.5t-76 -38.5t-76.5 38.5t-26.5 112.5q0 3 5.5 3.5t5.5 -1.5q0 -43 26.5 -73t65.5 -30t65 30t26 73q0 2 4 2z" />
    <glyph glyph-name="Hcircumflex" unicode="&#x124;" horiz-adv-x="759" 
d="M267.5 687.5q-3.5 3.5 -0.5 4.5l103 97q5 5 11 5t11 -5l103 -97q1 0 1 -2t-3 -4t-4 -1l-108 58l-108 -58q-2 -1 -5.5 2.5zM725 6q0 -6 -2 -6q-33 0 -51 1l-68 1l-74 -1q-17 -1 -47 -1q-2 0 -2 6t2 6q39 0 57 5t24.5 19.5t6.5 44.5v234h-384v-234q0 -30 6.5 -44.5
t24.5 -19.5t57 -5q2 0 2 -6t-2 -6q-31 0 -49 1l-73 1l-67 -1q-18 -1 -51 -1q-2 0 -2 6t2 6q38 0 56.5 5t25 19.5t6.5 44.5v463q0 30 -6.5 44t-24.5 19.5t-56 5.5q-2 0 -2 6t2 6l51 -1q42 -2 66 -2q30 0 74 2l48 1q2 0 2 -6t-2 -6q-38 0 -56.5 -6t-25 -20.5t-6.5 -44.5v-206
h384v206q0 30 -6.5 44.5t-24.5 20.5t-57 6q-2 0 -2 6t2 6l47 -1q44 -2 74 -2q26 0 68 2l51 1q2 0 2 -6t-2 -6q-38 0 -56.5 -5.5t-25 -19.5t-6.5 -44v-463q0 -30 6.5 -44.5t25 -19.5t56.5 -5q2 0 2 -6z" />
    <glyph glyph-name="uni1E24" unicode="&#x1e24;" horiz-adv-x="759" 
d="M725 6q0 -6 -2 -6q-33 0 -51 1l-68 1l-74 -1q-17 -1 -47 -1q-2 0 -2 6t2 6q39 0 57 5t24.5 19.5t6.5 44.5v234h-384v-234q0 -30 6.5 -44.5t24.5 -19.5t57 -5q2 0 2 -6t-2 -6q-31 0 -49 1l-73 1l-67 -1q-18 -1 -51 -1q-2 0 -2 6t2 6q38 0 56.5 5t25 19.5t6.5 44.5v463
q0 30 -6.5 44t-24.5 19.5t-56 5.5q-2 0 -2 6t2 6l51 -1q42 -2 66 -2q30 0 74 2l48 1q2 0 2 -6t-2 -6q-38 0 -56.5 -6t-25 -20.5t-6.5 -44.5v-206h384v206q0 30 -6.5 44.5t-24.5 20.5t-57 6q-2 0 -2 6t2 6l47 -1q44 -2 74 -2q26 0 68 2l51 1q2 0 2 -6t-2 -6q-38 0 -56.5 -5.5
t-25 -19.5t-6.5 -44v-463q0 -30 6.5 -44.5t25 -19.5t56.5 -5q2 0 2 -6zM412 -116.5q11 -11.5 11 -30.5q0 -20 -11 -32t-31 -12q-21 0 -32.5 12t-11.5 32q0 19 11.5 30.5t32.5 11.5q20 0 31 -11.5z" />
    <glyph glyph-name="I" unicode="I" horiz-adv-x="332" 
d="M205 36q6 -14 23.5 -19t55.5 -5q3 0 3 -6t-3 -6q-30 0 -48 1l-71 1l-68 -1q-18 -1 -50 -1q-3 0 -3 6t3 6q38 0 55.5 5t24 19.5t6.5 44.5v463q0 30 -6.5 44t-24 19.5t-55.5 5.5q-3 0 -3 6t3 6l50 -1q42 -2 68 -2q30 0 72 2l47 1q3 0 3 -6t-3 -6q-37 0 -55 -6t-24 -20.5
t-6 -44.5v-461q0 -31 6 -45z" />
    <glyph glyph-name="IJ" unicode="&#x132;" horiz-adv-x="690" 
d="M200 305q6 -14 23.5 -19t56.5 -5q2 0 2 -6t-2 -6q-31 0 -49 1l-71 1l-68 -1q-18 -1 -50 -1q-2 0 -2 6t2 6q38 0 56 5t24.5 19.5t6.5 44.5v194q0 30 -6.5 44t-24.5 19.5t-56 5.5q-2 0 -2 6t2 6l50 -1q42 -2 68 -2q28 0 72 2l48 1q2 0 2 -6t-2 -6q-38 0 -55.5 -6t-24 -20.5
t-6.5 -44.5v-192q0 -31 6 -45zM659 619q0 -6 -3 -6q-32 0 -47 -6t-20.5 -20.5t-5.5 -44.5v-284q0 -86 -30.5 -147t-85 -92.5t-125.5 -31.5q-62 0 -113 22.5t-80.5 57t-29.5 67.5q0 17 9 27.5t25 10.5q22 0 30.5 -14t16.5 -45q8 -34 18.5 -56t39 -38t80.5 -16q91 0 135 51.5
t44 145.5v344q0 30 -7.5 44t-27.5 19.5t-63 5.5q-3 0 -3 6t3 6l57 -1q46 -2 73 -2q26 0 64 2l43 1q3 0 3 -6z" />
    <glyph glyph-name="Iacute" unicode="&#xcd;" horiz-adv-x="332" 
d="M68 678q-4 0 -5.5 4.5t1.5 6.5q35 18 69.5 38.5t42.5 25.5q17 11 51 31q4 2 23.5 -4.5t34 -14.5t6.5 -9q-118 -30 -222 -78h-1zM205 36.5q6 -14.5 23.5 -19.5t55.5 -5q3 0 3 -6t-3 -6q-31 0 -48 1l-71 1l-68 -1q-18 -1 -50 -1q-3 0 -3 6t3 6q37 0 55 5t24.5 19.5
t6.5 44.5v463q0 30 -6.5 44t-24.5 19.5t-55 5.5q-3 0 -3 6t3 6l50 -1q42 -2 68 -2q30 0 72 2l47 1q3 0 3 -6t-3 -6q-37 0 -54.5 -6t-24 -20.5t-6.5 -44.5v-461q0 -30 6 -44.5z" />
    <glyph glyph-name="Ibreve" unicode="&#x12c;" horiz-adv-x="332" 
d="M96.5 717q-26.5 27 -33.5 79q-1 4 4.5 4.5t6.5 -1.5q7 -27 33.5 -46.5t58.5 -19.5q31 0 57.5 19.5t33.5 46.5q2 2 7 1.5t4 -4.5q-7 -52 -33 -79t-69 -27t-69.5 27zM205 36.5q6 -14.5 23.5 -19.5t55.5 -5q3 0 3 -6t-3 -6q-31 0 -48 1l-71 1l-68 -1q-18 -1 -50 -1
q-3 0 -3 6t3 6q37 0 55 5t24.5 19.5t6.5 44.5v463q0 30 -6.5 44t-24.5 19.5t-55 5.5q-3 0 -3 6t3 6l50 -1q42 -2 68 -2q30 0 72 2l47 1q3 0 3 -6t-3 -6q-37 0 -54.5 -6t-24 -20.5t-6.5 -44.5v-461q0 -30 6 -44.5z" />
    <glyph glyph-name="uni01CF" unicode="&#x1cf;" horiz-adv-x="332" 
d="M51 784q-1 0 -1 0.5v0.5q0 2 2.5 4.5t4.5 1.5l109 -58l108 58h1q2 0 4.5 -3t0.5 -4l-103 -97q-4 -4 -11 -4q-8 0 -12 4zM205 36.5q6 -14.5 23.5 -19.5t55.5 -5q3 0 3 -6t-3 -6q-31 0 -48 1l-71 1l-68 -1q-18 -1 -50 -1q-3 0 -3 6t3 6q37 0 55 5t24.5 19.5t6.5 44.5v463
q0 30 -6.5 44t-24.5 19.5t-55 5.5q-3 0 -3 6t3 6l50 -1q42 -2 68 -2q30 0 72 2l47 1q3 0 3 -6t-3 -6q-37 0 -54.5 -6t-24 -20.5t-6.5 -44.5v-461q0 -30 6 -44.5z" />
    <glyph glyph-name="Icircumflex" unicode="&#xce;" horiz-adv-x="332" 
d="M156 789q5 5 11 5t11 -5l103 -97q1 0 1 -2t-3 -4t-4 -1l-108 58l-108 -58q-2 -1 -5.5 2.5t-0.5 4.5zM205 36.5q6 -14.5 23.5 -19.5t55.5 -5q3 0 3 -6t-3 -6q-31 0 -48 1l-71 1l-68 -1q-18 -1 -50 -1q-3 0 -3 6t3 6q37 0 55 5t24.5 19.5t6.5 44.5v463q0 30 -6.5 44
t-24.5 19.5t-55 5.5q-3 0 -3 6t3 6l50 -1q42 -2 68 -2q30 0 72 2l47 1q3 0 3 -6t-3 -6q-37 0 -54.5 -6t-24 -20.5t-6.5 -44.5v-461q0 -30 6 -44.5z" />
    <glyph glyph-name="Idieresis" unicode="&#xcf;" horiz-adv-x="332" 
d="M63 727q-12 11 -12 31q0 18 12 29t32 11q19 0 30 -11t11 -29q0 -20 -11 -31t-30 -11q-20 0 -32 11zM206 727q-11 11 -11 31q0 18 11.5 29t30.5 11t30 -11t11 -29q0 -20 -10.5 -31t-30.5 -11t-31 11zM205 36.5q6 -14.5 23.5 -19.5t55.5 -5q3 0 3 -6t-3 -6q-31 0 -48 1
l-71 1l-68 -1q-18 -1 -50 -1q-3 0 -3 6t3 6q37 0 55 5t24.5 19.5t6.5 44.5v463q0 30 -6.5 44t-24.5 19.5t-55 5.5q-3 0 -3 6t3 6l50 -1q42 -2 68 -2q30 0 72 2l47 1q3 0 3 -6t-3 -6q-37 0 -54.5 -6t-24 -20.5t-6.5 -44.5v-461q0 -30 6 -44.5z" />
    <glyph glyph-name="Idotaccent" unicode="&#x130;" horiz-adv-x="332" 
d="M134 724.5q-12 11.5 -12 32.5q0 19 12 30t32 11t31 -11t11 -30q0 -21 -11 -32.5t-31 -11.5t-32 11.5zM205 36.5q6 -14.5 23.5 -19.5t55.5 -5q3 0 3 -6t-3 -6q-31 0 -48 1l-71 1l-68 -1q-18 -1 -50 -1q-3 0 -3 6t3 6q37 0 55 5t24.5 19.5t6.5 44.5v463q0 30 -6.5 44
t-24.5 19.5t-55 5.5q-3 0 -3 6t3 6l50 -1q42 -2 68 -2q30 0 72 2l47 1q3 0 3 -6t-3 -6q-37 0 -54.5 -6t-24 -20.5t-6.5 -44.5v-461q0 -30 6 -44.5z" />
    <glyph glyph-name="uni1ECA" unicode="&#x1eca;" horiz-adv-x="332" 
d="M205 36.5q6 -14.5 23.5 -19.5t55.5 -5q3 0 3 -6t-3 -6q-31 0 -48 1l-71 1l-68 -1q-18 -1 -50 -1q-3 0 -3 6t3 6q37 0 55 5t24.5 19.5t6.5 44.5v463q0 30 -6.5 44t-24.5 19.5t-55 5.5q-3 0 -3 6t3 6l50 -1q42 -2 68 -2q30 0 72 2l47 1q3 0 3 -6t-3 -6q-37 0 -54.5 -6
t-24 -20.5t-6.5 -44.5v-461q0 -30 6 -44.5zM134.5 -179q-11.5 12 -11.5 32q0 19 11.5 30.5t32.5 11.5q20 0 31 -11.5t11 -30.5q0 -20 -11 -32t-31 -12q-21 0 -32.5 12z" />
    <glyph glyph-name="Igrave" unicode="&#xcc;" horiz-adv-x="332" 
d="M42 756q-7 1 7.5 9t33.5 14.5t23 4.5l43 -26q78 -48 120 -69q2 -1 2 -4t-2 -5.5t-5 -1.5q-101 47 -222 78zM205 36.5q6 -14.5 23.5 -19.5t55.5 -5q3 0 3 -6t-3 -6q-31 0 -48 1l-71 1l-68 -1q-18 -1 -50 -1q-3 0 -3 6t3 6q37 0 55 5t24.5 19.5t6.5 44.5v463q0 30 -6.5 44
t-24.5 19.5t-55 5.5q-3 0 -3 6t3 6l50 -1q42 -2 68 -2q30 0 72 2l47 1q3 0 3 -6t-3 -6q-37 0 -54.5 -6t-24 -20.5t-6.5 -44.5v-461q0 -30 6 -44.5z" />
    <glyph glyph-name="uni1EC8" unicode="&#x1ec8;" horiz-adv-x="332" 
d="M164.5 649q-5.5 0 -6.5 2q-3 12 -3 21q0 15 5 27.5t16 30.5q19 30 19 50q0 19 -12 29.5t-30 10.5q-17 0 -28 -7h-1q-3 0 -6 3.5t0 4.5q33 21 66 21q30 0 46.5 -14.5t16.5 -36.5q0 -19 -10.5 -34t-30.5 -35q-18 -18 -27.5 -32t-9.5 -29q0 -7 1 -10q0 -2 -5.5 -2zM205 36.5
q6 -14.5 23.5 -19.5t55.5 -5q3 0 3 -6t-3 -6q-31 0 -48 1l-71 1l-68 -1q-18 -1 -50 -1q-3 0 -3 6t3 6q37 0 55 5t24.5 19.5t6.5 44.5v463q0 30 -6.5 44t-24.5 19.5t-55 5.5q-3 0 -3 6t3 6l50 -1q42 -2 68 -2q30 0 72 2l47 1q3 0 3 -6t-3 -6q-37 0 -54.5 -6t-24 -20.5
t-6.5 -44.5v-461q0 -30 6 -44.5z" />
    <glyph glyph-name="Imacron" unicode="&#x12a;" horiz-adv-x="332" 
d="M34 736q0 14 6 14h251q6 0 6 -14t-6 -14h-251q-6 0 -6 14zM205 36.5q6 -14.5 23.5 -19.5t55.5 -5q3 0 3 -6t-3 -6q-31 0 -48 1l-71 1l-68 -1q-18 -1 -50 -1q-3 0 -3 6t3 6q37 0 55 5t24.5 19.5t6.5 44.5v463q0 30 -6.5 44t-24.5 19.5t-55 5.5q-3 0 -3 6t3 6l50 -1
q42 -2 68 -2q30 0 72 2l47 1q3 0 3 -6t-3 -6q-37 0 -54.5 -6t-24 -20.5t-6.5 -44.5v-461q0 -30 6 -44.5z" />
    <glyph glyph-name="Iogonek" unicode="&#x12e;" horiz-adv-x="332" 
d="M287 6q0 -6 -3 -6q-29 0 -46 1l-63 1q-49 -66 -49 -140q0 -48 23 -77t62 -29q17 0 26.5 5t24.5 17h2q3 0 5.5 -3t-0.5 -5q-25 -24 -47 -34.5t-49 -10.5q-48 0 -75 26.5t-27 71.5q0 43 22 88.5t65 90.5l-64 -1q-17 -1 -47 -1q-3 0 -3 6t3 6q37 0 55 5t24.5 19.5t6.5 44.5
v463q0 30 -6.5 44t-24.5 19.5t-55 5.5q-3 0 -3 6t3 6l50 -1q42 -2 68 -2q30 0 72 2l47 1q3 0 3 -6t-3 -6q-37 0 -54.5 -6t-24 -20.5t-6.5 -44.5v-461q0 -30 6 -44.5t23.5 -19.5t55.5 -5q3 0 3 -6z" />
    <glyph glyph-name="Itilde" unicode="&#x128;" horiz-adv-x="332" 
d="M39 697q-3 0 -5.5 2.5t-0.5 4.5q17 24 39.5 43t45.5 19q15 0 51 -10q46 -14 74 -14q18 0 28 6.5t21 19.5l2 1q2 0 4 -3t1 -5q-26 -37 -42.5 -49.5t-35.5 -12.5q-21 0 -61 12q-4 1 -25.5 7t-44.5 6q-16 0 -25 -5t-15.5 -12t-9.5 -10h-1zM205 36.5q6 -14.5 23.5 -19.5
t55.5 -5q3 0 3 -6t-3 -6q-31 0 -48 1l-71 1l-68 -1q-18 -1 -50 -1q-3 0 -3 6t3 6q37 0 55 5t24.5 19.5t6.5 44.5v463q0 30 -6.5 44t-24.5 19.5t-55 5.5q-3 0 -3 6t3 6l50 -1q42 -2 68 -2q30 0 72 2l47 1q3 0 3 -6t-3 -6q-37 0 -54.5 -6t-24 -20.5t-6.5 -44.5v-461
q0 -30 6 -44.5z" />
    <glyph glyph-name="J" unicode="J" horiz-adv-x="322" 
d="M282 619q0 -6 -2 -6q-33 0 -48 -6t-20.5 -20.5t-5.5 -44.5v-570q0 -99 -46 -157.5t-133 -58.5q-34 0 -53.5 11.5t-19.5 31.5q0 15 9 24.5t25 9.5q17 0 26 -7.5t19 -22.5q9 -14 16.5 -20.5t20.5 -6.5q35 0 52.5 41.5t17.5 133.5v593q0 30 -7 44t-27.5 19.5t-63.5 5.5
q-2 0 -2 6t2 6l57 -1q46 -2 73 -2q26 0 64 2l44 1q2 0 2 -6z" />
    <glyph glyph-name="Jcircumflex" unicode="&#x134;" horiz-adv-x="322" 
d="M153 799q5 5 11 5t11 -5l103 -97l1 -2q0 -3 -2.5 -4.5t-4.5 -0.5l-107 57l-109 -57h-1q-3 0 -5.5 2.5t0.5 4.5zM282 619q0 -6 -2 -6q-33 0 -48 -6t-20.5 -20.5t-5.5 -44.5v-570q0 -99 -46 -157.5t-133 -58.5q-34 0 -53.5 11.5t-19.5 31.5q0 15 9 24.5t25 9.5
q17 0 26 -7.5t19 -22.5q9 -14 16 -20t20 -6q36 0 53.5 41t17.5 133v593q0 30 -7.5 44t-27.5 19.5t-63 5.5q-2 0 -2 6t2 6l58 -1q46 -2 72 -2q24 0 64 2l44 1q2 0 2 -6z" />
    <glyph glyph-name="K" unicode="K" horiz-adv-x="650" 
d="M644 6q0 -6 -3 -6h-112q-8 0 -28.5 -0.5t-57.5 51t-71 94.5l-153 193l-33 -32v-225q0 -31 6 -45t23.5 -19t55.5 -5q3 0 3 -6t-3 -6q-30 0 -48 1l-70 1l-68 -1q-18 -1 -50 -1q-2 0 -2 6t2 6q38 0 56 5t24.5 19.5t6.5 44.5v463q0 30 -6.5 44t-24 19.5t-55.5 5.5q-2 0 -2 6
t2 6l50 -1q42 -2 67 -2q29 0 71 2l47 1q3 0 3 -6t-3 -6q-37 0 -54.5 -6t-24 -20.5t-6.5 -44.5v-212l214 214q33 33 33 49q0 20 -59 20q-2 0 -2 6t2 6l43 -1q40 -2 73 -2t69 2l38 1q2 0 2 -6t-2 -6q-42 0 -88 -18t-86 -57l-158 -155l144 -185q73 -94 111.5 -133t59.5 -46
t61 -7q3 0 3 -6z" />
    <glyph glyph-name="uni1E30" unicode="&#x1e30;" horiz-adv-x="650" 
d="M228 678q-4 0 -5.5 5t2.5 6q35 17 70 38.5t47 28.5q15 10 45 28q4 2 23.5 -4.5t34 -14.5t6.5 -9q-119 -31 -222 -78h-1zM643 6q0 -6 -2 -6h-112q-8 0 -28.5 -0.5t-57 50.5t-71.5 95l-153 193l-33 -32v-225q0 -30 6 -44.5t23.5 -19.5t55.5 -5q3 0 3 -6t-3 -6q-30 0 -48 1
l-70 1l-67 -1q-19 -1 -51 -1q-2 0 -2 6t2 6q38 0 56 5t24.5 19.5t6.5 44.5v463q0 30 -6.5 44t-24 19.5t-55.5 5.5q-2 0 -2 6t2 6l50 -1q42 -2 67 -2q29 0 71 2l47 1q3 0 3 -6t-3 -6q-37 0 -54.5 -6t-24 -20.5t-6.5 -44.5v-211l214 213q32 32 32 49q0 20 -58 20q-2 0 -2 6
t2 6l43 -1q40 -2 73 -2t69 2l37 1q3 0 3 -6t-3 -6q-41 0 -87 -18t-86 -57l-158 -155l144 -184q73 -95 111.5 -133.5t60 -46t60.5 -7.5q2 0 2 -6z" />
    <glyph glyph-name="uni01E8" unicode="&#x1e8;" horiz-adv-x="650" 
d="M211 786q0 2 3 4t4 1l108 -58l108 58h1q2 0 4.5 -3t0.5 -4l-103 -97q-4 -4 -11 -4t-11 4l-103 97q-1 0 -1 2zM643 6q0 -6 -2 -6h-112q-8 0 -28.5 -0.5t-57 50.5t-71.5 95l-153 193l-33 -32v-225q0 -30 6 -44.5t23.5 -19.5t55.5 -5q3 0 3 -6t-3 -6q-30 0 -48 1l-70 1
l-67 -1q-19 -1 -51 -1q-2 0 -2 6t2 6q38 0 56 5t24.5 19.5t6.5 44.5v463q0 30 -6.5 44t-24 19.5t-55.5 5.5q-2 0 -2 6t2 6l50 -1q42 -2 67 -2q29 0 71 2l47 1q3 0 3 -6t-3 -6q-37 0 -54.5 -6t-24 -20.5t-6.5 -44.5v-211l214 213q32 32 32 49q0 20 -58 20q-2 0 -2 6t2 6
l43 -1q40 -2 73 -2t69 2l37 1q3 0 3 -6t-3 -6q-41 0 -87 -18t-86 -57l-158 -155l144 -184q73 -95 111.5 -133.5t60 -46t60.5 -7.5q2 0 2 -6z" />
    <glyph glyph-name="Kcommaaccent" unicode="&#x136;" horiz-adv-x="650" 
d="M643 6q0 -6 -2 -6h-112q-8 0 -28.5 -0.5t-57 50.5t-71.5 95l-153 193l-33 -32v-225q0 -30 6 -44.5t23.5 -19.5t55.5 -5q3 0 3 -6t-3 -6q-30 0 -48 1l-70 1l-67 -1q-19 -1 -51 -1q-2 0 -2 6t2 6q38 0 56 5t24.5 19.5t6.5 44.5v463q0 30 -6.5 44t-24 19.5t-55.5 5.5
q-2 0 -2 6t2 6l50 -1q42 -2 67 -2q29 0 71 2l47 1q3 0 3 -6t-3 -6q-37 0 -54.5 -6t-24 -20.5t-6.5 -44.5v-211l214 213q32 32 32 49q0 20 -58 20q-2 0 -2 6t2 6l43 -1q40 -2 73 -2t69 2l37 1q3 0 3 -6t-3 -6q-41 0 -87 -18t-86 -57l-158 -155l144 -184q73 -95 111.5 -133.5
t60 -46t60.5 -7.5q2 0 2 -6zM378.5 -104q14.5 -19 14.5 -54q0 -34 -15.5 -62t-45.5 -55l-2 -1q-3 0 -5.5 3t-0.5 5q45 41 45 90q0 20 -6 29q-7 -15 -31 -15q-18 0 -28 10.5t-10 28.5q0 21 12 30.5t31 9.5q27 0 41.5 -19z" />
    <glyph glyph-name="L" unicode="L" horiz-adv-x="533" 
d="M185 85q0 -28 6 -41t22.5 -18t52.5 -5h108q57 0 91.5 35.5t44.5 97.5q0 2 4 2q3 0 5.5 -1t2.5 -3q-10 -74 -10 -137q0 -8 -3 -11.5t-12 -3.5h-462q-2 0 -2 6t2 6q38 0 55.5 5t23.5 19.5t6 44.5v463q0 30 -6 44t-23.5 19.5t-55.5 5.5q-2 0 -2 6t2 6l49 -1q42 -2 68 -2
q29 0 71 2l47 1q3 0 3 -6t-3 -6q-37 0 -55 -5.5t-24 -20t-6 -44.5v-458z" />
    <glyph glyph-name="Lacute" unicode="&#x139;" horiz-adv-x="533" 
d="M60 678q-4 0 -6 4.5t2 6.5q35 18 69.5 38.5t42.5 25.5q17 11 51 31q4 2 23 -4.5t33.5 -14.5t7.5 -9q-118 -30 -222 -78h-1zM185 85q0 -29 5.5 -42t22 -17.5t52.5 -4.5h109q56 0 91 35.5t45 96.5q0 3 6 2.5t6 -3.5q-10 -74 -10 -137q0 -8 -3 -11.5t-12 -3.5h-462
q-2 0 -2 6t2 6q38 0 55.5 5t23.5 19.5t6 44.5v463q0 30 -6 44t-23.5 19.5t-55.5 5.5q-2 0 -2 6t2 6l49 -1q42 -2 68 -2q29 0 71 2l47 1q3 0 3 -6t-3 -6q-37 0 -54.5 -5.5t-24 -20t-6.5 -44.5v-458z" />
    <glyph glyph-name="Lcaron" unicode="&#x13d;" horiz-adv-x="533" 
d="M366.5 624q13.5 -6 26 -15t12.5 -14l-33 -243q0 -2 -5.5 -1.5t-5.5 2.5l-8 272q0 5 13.5 -1zM185 85q0 -29 5.5 -42t22 -17.5t52.5 -4.5h109q56 0 91 35.5t45 96.5q0 3 6 2.5t6 -3.5q-10 -74 -10 -137q0 -8 -3 -11.5t-12 -3.5h-462q-2 0 -2 6t2 6q38 0 55.5 5t23.5 19.5
t6 44.5v463q0 30 -6 44t-23.5 19.5t-55.5 5.5q-2 0 -2 6t2 6l49 -1q42 -2 68 -2q29 0 71 2l47 1q3 0 3 -6t-3 -6q-37 0 -54.5 -5.5t-24 -20t-6.5 -44.5v-458z" />
    <glyph glyph-name="Lcommaaccent" unicode="&#x13b;" horiz-adv-x="533" 
d="M516 155.5q6 -0.5 6 -3.5q-10 -74 -10 -137q0 -8 -3 -11.5t-12 -3.5h-462q-2 0 -2 6t2 6q38 0 55.5 5t23.5 19.5t6 44.5v463q0 30 -6 44t-23.5 19.5t-55.5 5.5q-2 0 -2 6t2 6l49 -1q42 -2 68 -2q29 0 71 2l47 1q3 0 3 -6t-3 -6q-37 0 -54.5 -5.5t-24 -20t-6.5 -44.5v-458
q0 -29 5.5 -42t22 -17.5t52.5 -4.5h109q56 0 91 35.5t45 96.5q0 3 6 2.5zM331.5 -104q14.5 -19 14.5 -54q0 -34 -15.5 -62t-45.5 -55l-2 -1q-3 0 -5.5 3t-0.5 5q45 41 45 90q0 20 -6 29q-7 -15 -31 -15q-18 0 -28 10.5t-10 28.5q0 40 43 40q27 0 41.5 -19z" />
    <glyph glyph-name="Ldot" unicode="&#x13f;" horiz-adv-x="533" 
d="M185 85q0 -29 5.5 -42t22 -17.5t52.5 -4.5h109q56 0 91 35.5t45 96.5q0 3 6 2.5t6 -3.5q-10 -74 -10 -137q0 -8 -3 -11.5t-12 -3.5h-462q-2 0 -2 6t2 6q38 0 55.5 5t23.5 19.5t6 44.5v463q0 30 -6 44t-23.5 19.5t-55.5 5.5q-2 0 -2 6t2 6l49 -1q42 -2 68 -2q29 0 71 2
l47 1q3 0 3 -6t-3 -6q-37 0 -54.5 -5.5t-24 -20t-6.5 -44.5v-458zM397.5 289.5q-11.5 11.5 -11.5 32.5q0 19 11.5 30t31.5 11t32 -11t12 -30q0 -21 -12 -32.5t-32 -11.5t-31.5 11.5z" />
    <glyph glyph-name="uni1E36" unicode="&#x1e36;" horiz-adv-x="533" 
d="M185 85q0 -29 5.5 -42t22 -17.5t52.5 -4.5h109q56 0 91 35.5t45 96.5q0 3 6 2.5t6 -3.5q-10 -74 -10 -137q0 -8 -3 -11.5t-12 -3.5h-462q-2 0 -2 6t2 6q38 0 55.5 5t23.5 19.5t6 44.5v463q0 30 -6 44t-23.5 19.5t-55.5 5.5q-2 0 -2 6t2 6l49 -1q42 -2 68 -2q29 0 71 2
l47 1q3 0 3 -6t-3 -6q-37 0 -54.5 -5.5t-24 -20t-6.5 -44.5v-458zM265.5 -179q-11.5 12 -11.5 32q0 19 11.5 30.5t32.5 11.5q20 0 31 -11.5t11 -30.5q0 -20 -11 -32t-31 -12q-21 0 -32.5 12z" />
    <glyph glyph-name="uni1E38" unicode="&#x1e38;" horiz-adv-x="533" 
d="M27 726.5q-2 4.5 -2 9.5t2 9.5t5 4.5h251q6 0 6 -14t-6 -14h-251q-3 0 -5 4.5zM185 85q0 -29 5.5 -42t22 -17.5t52.5 -4.5h109q56 0 91 35.5t45 96.5q0 3 6 2.5t6 -3.5q-10 -74 -10 -137q0 -8 -3 -11.5t-12 -3.5h-462q-2 0 -2 6t2 6q38 0 55.5 5t23.5 19.5t6 44.5v463
q0 30 -6 44t-23.5 19.5t-55.5 5.5q-2 0 -2 6t2 6l49 -1q42 -2 68 -2q29 0 71 2l47 1q3 0 3 -6t-3 -6q-37 0 -54.5 -5.5t-24 -20t-6.5 -44.5v-458zM265.5 -179q-11.5 12 -11.5 32q0 19 11.5 30.5t32.5 11.5q20 0 31 -11.5t11 -30.5q0 -20 -11 -32t-31 -12q-21 0 -32.5 12z
" />
    <glyph glyph-name="uni1E3A" unicode="&#x1e3a;" horiz-adv-x="533" 
d="M185 85q0 -29 5.5 -42t22 -17.5t52.5 -4.5h109q56 0 91 35.5t45 96.5q0 3 6 2.5t6 -3.5q-10 -74 -10 -137q0 -8 -3 -11.5t-12 -3.5h-462q-2 0 -2 6t2 6q38 0 55.5 5t23.5 19.5t6 44.5v463q0 30 -6 44t-23.5 19.5t-55.5 5.5q-2 0 -2 6t2 6l49 -1q42 -2 68 -2q29 0 71 2
l47 1q3 0 3 -6t-3 -6q-37 0 -54.5 -5.5t-24 -20t-6.5 -44.5v-458zM165 -99q0 14 6 14h251q6 0 6 -14t-6 -14h-251q-6 0 -6 14z" />
    <glyph glyph-name="Lslash" unicode="&#x141;" horiz-adv-x="524" 
d="M516 155.5q6 -0.5 6 -3.5q-10 -74 -10 -137q0 -8 -3 -11.5t-12 -3.5h-462q-2 0 -2 6t2 6q38 0 55.5 5t23.5 19.5t6 44.5v183l-51 -29h-1q-4 0 -8.5 8t-1.5 10l62 36v255q0 30 -6 44t-23.5 19.5t-55.5 5.5q-2 0 -2 6t2 6l49 -1q42 -2 68 -2q29 0 71 2l47 1q3 0 3 -6t-3 -6
q-37 0 -54.5 -5.5t-24 -20t-6.5 -44.5v-217l107 61h1q3 0 7.5 -8t1.5 -10l-117 -67v-217q0 -29 5.5 -42t22 -17.5t52.5 -4.5h109q56 0 91 35.5t45 96.5q0 3 6 2.5z" />
    <glyph glyph-name="M" unicode="M" horiz-adv-x="836" 
d="M815 6q0 -6 -3 -6q-32 0 -50 1l-68 1l-64 -1q-16 -1 -45 -1q-2 0 -2 6t2 6q34 0 50.5 5.5t22 19.5t3.5 44l-18 454l-228 -528q-2 -4 -8 -4q-5 0 -9 4l-246 525l-9 -423q-1 -53 18 -75t67 -22q2 0 2 -6t-2 -6q-28 0 -43 1l-54 1l-52 -1q-14 -1 -40 -1q-3 0 -3 6t3 6
q42 0 61 22.5t20 74.5l8 464q-30 40 -82 40q-2 0 -2 6t2 6l37 -1q10 -1 27 -1q19 0 32 1t19 1q13 0 21.5 -9.5t24.5 -42.5l224 -470l217 497q11 25 30 25q5 0 14.5 -1t24.5 -1l48 1q11 1 33 1q3 0 3 -6t-3 -6q-50 0 -71.5 -14.5t-20.5 -54.5l20 -463q1 -31 7.5 -45t23.5 -19
t55 -5q3 0 3 -6z" />
    <glyph glyph-name="uni1E40" unicode="&#x1e40;" horiz-adv-x="836" 
d="M386 724.5q-12 11.5 -12 32.5q0 19 12 30t32 11t31 -11t11 -30q0 -21 -11 -32.5t-31 -11.5t-32 11.5zM814 6q0 -6 -2 -6q-32 0 -50 1l-68 1l-64 -1q-16 -1 -45 -1q-3 0 -3 6t3 6q34 0 50.5 5.5t22 19.5t3.5 44l-18 454l-228 -528q-2 -4 -8 -4t-8 4l-247 523l-9 -421
q-1 -52 18 -74.5t67 -22.5q3 0 3 -6t-3 -6q-28 0 -43 1l-54 1l-52 -1q-14 -1 -40 -1q-3 0 -3 6t3 6q42 0 60.5 22.5t19.5 74.5l10 462q-29 42 -83 42q-3 0 -3 6t3 6l37 -1q10 -1 27 -1q19 0 32 1t19 1q14 0 22 -9.5t24 -42.5l224 -471l217 498q11 25 30 25q5 0 14.5 -1
t24.5 -1l48 1q11 1 34 1q2 0 2 -6t-2 -6q-51 0 -72.5 -14.5t-20.5 -54.5l20 -463q2 -31 8 -45t23 -19t55 -5q2 0 2 -6z" />
    <glyph glyph-name="uni1E42" unicode="&#x1e42;" horiz-adv-x="836" 
d="M814 6q0 -6 -2 -6q-32 0 -50 1l-68 1l-64 -1q-16 -1 -45 -1q-3 0 -3 6t3 6q34 0 50.5 5.5t22 19.5t3.5 44l-18 454l-228 -528q-2 -4 -8 -4t-8 4l-247 523l-9 -421q-1 -52 18 -74.5t67 -22.5q3 0 3 -6t-3 -6q-28 0 -43 1l-54 1l-52 -1q-14 -1 -40 -1q-3 0 -3 6t3 6
q42 0 60.5 22.5t19.5 74.5l10 462q-29 42 -83 42q-3 0 -3 6t3 6l37 -1q10 -1 27 -1q19 0 32 1t19 1q14 0 22 -9.5t24 -42.5l224 -471l217 498q11 25 30 25q5 0 14.5 -1t24.5 -1l48 1q11 1 34 1q2 0 2 -6t-2 -6q-51 0 -72.5 -14.5t-20.5 -54.5l20 -463q2 -31 8 -45t23 -19
t55 -5q2 0 2 -6zM440 -116.5q11 -11.5 11 -30.5q0 -20 -11 -32t-31 -12q-21 0 -32.5 12t-11.5 32q0 19 11.5 30.5t32.5 11.5q20 0 31 -11.5z" />
    <glyph glyph-name="N" unicode="N" horiz-adv-x="727" 
d="M707 619q0 -6 -3 -6q-42 0 -61 -23t-19 -74v-527q0 -3 -4.5 -4t-6.5 1l-461 557l-8 10v-444q0 -52 18 -74.5t59 -22.5q3 0 3 -6t-3 -6q-25 0 -38 1l-50 1l-51 -1q-14 -1 -41 -1q-3 0 -3 6t3 6q43 0 61 22.5t18 74.5v468q-21 20 -40 28t-39 8q-3 0 -3 6t3 6l37 -1
q11 -1 33 -1t36 1t22 1q7 0 11 -3.5t12 -15.5q11 -18 23 -33l386 -472v415q0 51 -17.5 74t-58.5 23q-2 0 -2 6t2 6l39 -1q30 -2 49 -2q18 0 50 2l41 1q3 0 3 -6z" />
    <glyph glyph-name="Nacute" unicode="&#x143;" horiz-adv-x="727" 
d="M278 678q-4 0 -5.5 4.5t1.5 6.5q35 18 69.5 38.5t42.5 25.5q17 11 51 31q4 2 23 -4.5t33.5 -14.5t7.5 -9q-118 -30 -222 -78h-1zM707 619q0 -6 -3 -6q-42 0 -60.5 -22.5t-18.5 -74.5v-528q0 -2 -5 -3t-7 1l-461 557l-8 9v-443q0 -52 18 -74.5t59 -22.5q3 0 3 -6t-3 -6
q-25 0 -39 1l-49 1l-50 -1q-15 -1 -42 -1q-3 0 -3 6t3 6q43 0 61 22.5t18 74.5v468q-21 20 -40 28t-39 8q-3 0 -3 6t3 6l37 -1q11 -1 33 -1t36 1t21 1q8 0 12 -3.5t12 -16.5q3 -5 8.5 -12.5t14.5 -19.5l386 -472v415q0 52 -17.5 74.5t-58.5 22.5q-2 0 -2 6t2 6l39 -1
q30 -2 49 -2q18 0 50 2l41 1q3 0 3 -6z" />
    <glyph glyph-name="Ncaron" unicode="&#x147;" horiz-adv-x="727" 
d="M260 784.5v0.5q0 2 2.5 4.5t4.5 1.5l109 -58l108 58h1q3 0 5 -3t-1 -4l-103 -97q-3 -4 -11 -4q-7 0 -11 4l-103 97q-1 0 -1 0.5zM707 619q0 -6 -3 -6q-42 0 -60.5 -22.5t-18.5 -74.5v-528q0 -2 -5 -3t-7 1l-461 557l-8 9v-443q0 -52 18 -74.5t59 -22.5q3 0 3 -6t-3 -6
q-25 0 -39 1l-49 1l-50 -1q-15 -1 -42 -1q-3 0 -3 6t3 6q43 0 61 22.5t18 74.5v468q-21 20 -40 28t-39 8q-3 0 -3 6t3 6l37 -1q11 -1 33 -1t36 1t21 1q8 0 12 -3.5t12 -16.5q3 -5 8.5 -12.5t14.5 -19.5l386 -472v415q0 52 -17.5 74.5t-58.5 22.5q-2 0 -2 6t2 6l39 -1
q30 -2 49 -2q18 0 50 2l41 1q3 0 3 -6z" />
    <glyph glyph-name="Ncommaaccent" unicode="&#x145;" horiz-adv-x="727" 
d="M707 619q0 -6 -3 -6q-42 0 -60.5 -22.5t-18.5 -74.5v-528q0 -2 -5 -3t-7 1l-461 557l-8 9v-443q0 -52 18 -74.5t59 -22.5q3 0 3 -6t-3 -6q-25 0 -39 1l-49 1l-50 -1q-15 -1 -42 -1q-3 0 -3 6t3 6q43 0 61 22.5t18 74.5v468q-21 20 -40 28t-39 8q-3 0 -3 6t3 6l37 -1
q11 -1 33 -1t36 1t21 1q8 0 12 -3.5t12 -16.5q3 -5 8.5 -12.5t14.5 -19.5l386 -472v415q0 52 -17.5 74.5t-58.5 22.5q-2 0 -2 6t2 6l39 -1q30 -2 49 -2q18 0 50 2l41 1q3 0 3 -6zM409 -104q14 -19 14 -54q0 -34 -15.5 -62t-44.5 -55q-1 -1 -3 -1q-3 0 -5.5 3t-0.5 5
q45 41 45 90q0 20 -6 29q-7 -15 -30 -15q-19 0 -29 10.5t-10 28.5q0 21 12 30.5t31 9.5q28 0 42 -19z" />
    <glyph glyph-name="uni1E44" unicode="&#x1e44;" horiz-adv-x="727" 
d="M344 724.5q-12 11.5 -12 32.5q0 19 12 30t32 11t31 -11t11 -30q0 -21 -11 -32.5t-31 -11.5t-32 11.5zM707 619q0 -6 -3 -6q-42 0 -60.5 -22.5t-18.5 -74.5v-528q0 -2 -5 -3t-7 1l-461 557l-8 9v-443q0 -52 18 -74.5t59 -22.5q3 0 3 -6t-3 -6q-25 0 -39 1l-49 1l-50 -1
q-15 -1 -42 -1q-3 0 -3 6t3 6q43 0 61 22.5t18 74.5v468q-21 20 -40 28t-39 8q-3 0 -3 6t3 6l37 -1q11 -1 33 -1t36 1t21 1q8 0 12 -3.5t12 -16.5q3 -5 8.5 -12.5t14.5 -19.5l386 -472v415q0 52 -17.5 74.5t-58.5 22.5q-2 0 -2 6t2 6l39 -1q30 -2 49 -2q18 0 50 2l41 1
q3 0 3 -6z" />
    <glyph glyph-name="uni1E46" unicode="&#x1e46;" horiz-adv-x="727" 
d="M707 619q0 -6 -3 -6q-42 0 -60.5 -22.5t-18.5 -74.5v-528q0 -2 -5 -3t-7 1l-461 557l-8 9v-443q0 -52 18 -74.5t59 -22.5q3 0 3 -6t-3 -6q-25 0 -39 1l-49 1l-50 -1q-15 -1 -42 -1q-3 0 -3 6t3 6q43 0 61 22.5t18 74.5v468q-21 20 -40 28t-39 8q-3 0 -3 6t3 6l37 -1
q11 -1 33 -1t36 1t21 1q8 0 12 -3.5t12 -16.5q3 -5 8.5 -12.5t14.5 -19.5l386 -472v415q0 52 -17.5 74.5t-58.5 22.5q-2 0 -2 6t2 6l39 -1q30 -2 49 -2q18 0 50 2l41 1q3 0 3 -6zM406.5 -116.5q11.5 -11.5 11.5 -30.5q0 -20 -11.5 -32t-31.5 -12q-21 0 -32.5 12t-11.5 32
q0 19 11.5 30.5t32.5 11.5q20 0 31.5 -11.5z" />
    <glyph glyph-name="Eng" unicode="&#x14a;" horiz-adv-x="727" 
d="M707 619q0 -6 -3 -6q-42 0 -61 -23t-19 -74v-527q0 -87 -33 -133.5t-94 -46.5q-37 0 -59.5 16.5t-22.5 40.5q0 17 8.5 26.5t23.5 9.5q17 0 24 -9t13 -27q6 -19 13.5 -28t24.5 -9q38 0 59.5 43t21.5 113v13l-451 545l-8 10v-444q0 -52 18 -74.5t59 -22.5q3 0 3 -6t-3 -6
q-25 0 -38 1l-50 1l-51 -1q-14 -1 -41 -1q-3 0 -3 6t3 6q43 0 62 22.5t19 74.5v467q-41 37 -81 37q-3 0 -3 6t3 6l37 -1q11 -1 33 -1t36 1t22 1q7 0 11 -3.5t12 -15.5q11 -18 23 -33l388 -474v417q0 51 -18.5 74t-59.5 23q-2 0 -2 6t2 6l39 -1q30 -2 49 -2q18 0 50 2l41 1
q3 0 3 -6z" />
    <glyph glyph-name="uni1E48" unicode="&#x1e48;" horiz-adv-x="727" 
d="M707 619q0 -6 -3 -6q-42 0 -60.5 -22.5t-18.5 -74.5v-528q0 -2 -5 -3t-7 1l-461 557l-8 9v-443q0 -52 18 -74.5t59 -22.5q3 0 3 -6t-3 -6q-25 0 -39 1l-49 1l-50 -1q-15 -1 -42 -1q-3 0 -3 6t3 6q43 0 61 22.5t18 74.5v468q-21 20 -40 28t-39 8q-3 0 -3 6t3 6l37 -1
q11 -1 33 -1t36 1t21 1q8 0 12 -3.5t12 -16.5q3 -5 8.5 -12.5t14.5 -19.5l386 -472v415q0 52 -17.5 74.5t-58.5 22.5q-2 0 -2 6t2 6l39 -1q30 -2 49 -2q18 0 50 2l41 1q3 0 3 -6zM506 -99q0 -14 -7 -14h-251q-6 0 -6 14t6 14h251q7 0 7 -14z" />
    <glyph glyph-name="Ntilde" unicode="&#xd1;" horiz-adv-x="727" 
d="M250 697q-3 0 -5.5 2.5t-0.5 4.5q17 24 39.5 43t45.5 19q14 0 50 -10q46 -14 75 -14q17 0 27.5 6.5t21.5 19.5l2 1q2 0 4 -3t1 -5q-26 -36 -43 -49t-36 -13q-14 0 -29.5 3.5t-30.5 8.5q-17 5 -35.5 9t-35.5 4q-16 0 -24.5 -5t-15 -12t-9.5 -10h-1zM707 619q0 -6 -3 -6
q-42 0 -60.5 -22.5t-18.5 -74.5v-528q0 -2 -5 -3t-7 1l-461 557l-8 9v-443q0 -52 18 -74.5t59 -22.5q3 0 3 -6t-3 -6q-25 0 -39 1l-49 1l-50 -1q-15 -1 -42 -1q-3 0 -3 6t3 6q43 0 61 22.5t18 74.5v468q-21 20 -40 28t-39 8q-3 0 -3 6t3 6l37 -1q11 -1 33 -1t36 1t21 1
q8 0 12 -3.5t12 -16.5q3 -5 8.5 -12.5t14.5 -19.5l386 -472v415q0 52 -17.5 74.5t-58.5 22.5q-2 0 -2 6t2 6l39 -1q30 -2 49 -2q18 0 50 2l41 1q3 0 3 -6z" />
    <glyph glyph-name="O" unicode="O" 
d="M200.5 31.5q-72.5 43.5 -112 118t-39.5 162.5q0 103 52 176.5t133.5 110.5t166.5 37q95 0 167 -44.5t110.5 -117.5t38.5 -155q0 -91 -48 -167t-128.5 -120t-174.5 -44q-93 0 -165.5 43.5zM523.5 42q54.5 33 86 97t31.5 152q0 93 -34.5 166.5t-98.5 114.5t-148 41
q-111 0 -173 -71t-62 -195q0 -94 35 -171.5t98 -122t144 -44.5q67 0 121.5 33z" />
    <glyph glyph-name="Oacute" unicode="&#xd3;" 
d="M287 678q-4 0 -6 4.5t2 6.5q35 17 70 38.5t47 28.5q15 10 45 28q4 2 23.5 -4.5t34 -14.5t7.5 -9q-121 -31 -222 -78h-1zM200.5 31.5q-72.5 43.5 -112 118t-39.5 162.5q0 103 52 176.5t133.5 110.5t166.5 37q95 0 167 -44.5t110.5 -117.5t38.5 -155q0 -91 -48 -167
t-128.5 -120t-174.5 -44q-93 0 -165.5 43.5zM523.5 42q54.5 33 86 97t31.5 152q0 93 -35 166.5t-98.5 114.5t-148.5 41q-110 0 -172 -71.5t-62 -195.5q0 -94 35 -171t98 -121.5t143 -44.5q68 0 122.5 33z" />
    <glyph glyph-name="Obreve" unicode="&#x14e;" 
d="M315 717q-26 27 -33 79v1q0 3 4.5 3.5t5.5 -1.5q8 -27 34.5 -46.5t58.5 -19.5q31 0 57 19.5t34 46.5q1 3 6 1.5t4 -4.5q-7 -52 -32.5 -79t-68.5 -27q-44 0 -70 27zM200.5 31.5q-72.5 43.5 -112 118t-39.5 162.5q0 103 52 176.5t133.5 110.5t166.5 37q95 0 167 -44.5
t110.5 -117.5t38.5 -155q0 -91 -48 -167t-128.5 -120t-174.5 -44q-93 0 -165.5 43.5zM523.5 42q54.5 33 86 97t31.5 152q0 93 -35 166.5t-98.5 114.5t-148.5 41q-110 0 -172 -71.5t-62 -195.5q0 -94 35 -171t98 -121.5t143 -44.5q68 0 122.5 33z" />
    <glyph glyph-name="uni01D1" unicode="&#x1d1;" 
d="M270 784q-1 0 -1 2t3 4t4 1l109 -58l107 58h2q3 0 5 -3t-1 -4l-103 -97q-4 -4 -11 -4t-11 4zM200.5 31.5q-72.5 43.5 -112 118t-39.5 162.5q0 103 52 176.5t133.5 110.5t166.5 37q95 0 167 -44.5t110.5 -117.5t38.5 -155q0 -91 -48 -167t-128.5 -120t-174.5 -44
q-93 0 -165.5 43.5zM523.5 42q54.5 33 86 97t31.5 152q0 93 -35 166.5t-98.5 114.5t-148.5 41q-110 0 -172 -71.5t-62 -195.5q0 -94 35 -171t98 -121.5t143 -44.5q68 0 122.5 33z" />
    <glyph glyph-name="Ocircumflex" unicode="&#xd4;" 
d="M374 789q5 5 11 5t11 -5l103 -97q1 0 1 -2t-2.5 -4t-4.5 -1l-107 58l-109 -58q-2 -1 -5 2.5t-1 4.5zM200.5 31.5q-72.5 43.5 -112 118t-39.5 162.5q0 103 52 176.5t133.5 110.5t166.5 37q95 0 167 -44.5t110.5 -117.5t38.5 -155q0 -91 -48 -167t-128.5 -120t-174.5 -44
q-93 0 -165.5 43.5zM523.5 42q54.5 33 86 97t31.5 152q0 93 -35 166.5t-98.5 114.5t-148.5 41q-110 0 -172 -71.5t-62 -195.5q0 -94 35 -171t98 -121.5t143 -44.5q68 0 122.5 33z" />
    <glyph glyph-name="uni1ED0" unicode="&#x1ed0;" 
d="M449 724q-3 0 -5 3t0 5q33 36 76 97q3 4 22.5 -2.5t34.5 -15t8 -10.5q-65 -26 -134 -77h-2zM373 752q5 5 11 5t11 -5l103 -97q1 0 1 -2t-2.5 -4t-4.5 -1l-107 57l-109 -57q-2 -1 -5 2.5t-1 4.5zM200.5 31.5q-72.5 43.5 -112 118t-39.5 162.5q0 103 52 176.5t133.5 110.5
t166.5 37q95 0 167 -44.5t110.5 -117.5t38.5 -155q0 -91 -48 -167t-128.5 -120t-174.5 -44q-93 0 -165.5 43.5zM523.5 42q54.5 33 86 97t31.5 152q0 93 -35 166.5t-98.5 114.5t-148.5 41q-110 0 -172 -71.5t-62 -195.5q0 -94 35 -171t98 -121.5t143 -44.5q68 0 122.5 33z
" />
    <glyph glyph-name="uni1ED8" unicode="&#x1ed8;" 
d="M373 752q5 5 11 5t11 -5l103 -97q1 0 1 -2t-2.5 -4t-4.5 -1l-107 57l-109 -57q-2 -1 -5.5 2.5t-0.5 4.5zM200.5 31.5q-72.5 43.5 -112 118t-39.5 162.5q0 103 52 176.5t133.5 110.5t166.5 37q95 0 167 -44.5t110.5 -117.5t38.5 -155q0 -91 -48 -167t-128.5 -120
t-174.5 -44q-93 0 -165.5 43.5zM523.5 42q54.5 33 86 97t31.5 152q0 93 -35 166.5t-98.5 114.5t-148.5 41q-110 0 -172 -71.5t-62 -195.5q0 -94 35 -171t98 -121.5t143 -44.5q68 0 122.5 33zM363.5 -179q-11.5 12 -11.5 32q0 19 11.5 30.5t32.5 11.5q20 0 31.5 -11.5
t11.5 -30.5q0 -20 -11.5 -32t-31.5 -12q-21 0 -32.5 12z" />
    <glyph glyph-name="uni1ED2" unicode="&#x1ed2;" 
d="M485 746.5q-29 17.5 -66 32.5q-8 2 7 10.5t34.5 15t22.5 2.5q29 -43 76 -96q1 -1 1 -4t-2 -4.5t-6 -0.5q-38 27 -67 44.5zM373 752q5 5 11 5t11 -5l103 -97q1 0 1 -2t-2.5 -4t-4.5 -1l-107 57l-109 -57q-2 -1 -5 2.5t-1 4.5zM200.5 31.5q-72.5 43.5 -112 118t-39.5 162.5
q0 103 52 176.5t133.5 110.5t166.5 37q95 0 167 -44.5t110.5 -117.5t38.5 -155q0 -91 -48 -167t-128.5 -120t-174.5 -44q-93 0 -165.5 43.5zM523.5 42q54.5 33 86 97t31.5 152q0 93 -35 166.5t-98.5 114.5t-148.5 41q-110 0 -172 -71.5t-62 -195.5q0 -94 35 -171t98 -121.5
t143 -44.5q68 0 122.5 33z" />
    <glyph glyph-name="uni1ED4" unicode="&#x1ed4;" 
d="M463 735q0 9 4.5 19t9.5 19q15 23 15 39q0 15 -10.5 23t-23.5 8q-12 0 -23 -6h-1q-3 0 -6 3.5t0 5.5q15 9 31.5 13.5t28.5 4.5q22 0 35 -13t13 -29q0 -15 -8.5 -26.5t-24.5 -26.5q-16 -16 -22.5 -25.5t-3.5 -20.5q1 -2 -5 -2.5t-7 2.5q-2 8 -2 12zM373 752q5 5 11 5
t11 -5l103 -97q1 0 1 -2t-2.5 -4t-4.5 -1l-107 57l-109 -57q-2 -1 -5 2.5t-1 4.5zM200.5 31.5q-72.5 43.5 -112 118t-39.5 162.5q0 103 52 176.5t133.5 110.5t166.5 37q95 0 167 -44.5t110.5 -117.5t38.5 -155q0 -91 -48 -167t-128.5 -120t-174.5 -44q-93 0 -165.5 43.5z
M523.5 42q54.5 33 86 97t31.5 152q0 93 -35 166.5t-98.5 114.5t-148.5 41q-110 0 -172 -71.5t-62 -195.5q0 -94 35 -171t98 -121.5t143 -44.5q68 0 122.5 33z" />
    <glyph glyph-name="uni1ED6" unicode="&#x1ed6;" 
d="M494.5 817.5q10.5 6.5 22.5 19.5q0 1 2 1t4 -3t1 -5q-26 -36 -43.5 -49t-36.5 -13q-14 0 -29.5 3.5t-30.5 8.5q-4 1 -25.5 7t-45.5 6q-15 0 -24 -5.5t-16 -12.5l-9 -9h-1q-2 0 -4.5 2.5t-1.5 4.5q48 62 86 62q13 0 49 -10q46 -14 76 -14q16 0 26.5 6.5zM373 752q5 5 11 5
t11 -5l103 -97q1 0 1 -2t-2.5 -4t-4.5 -1l-107 57l-109 -57q-2 -1 -5 2.5t-1 4.5zM200.5 31.5q-72.5 43.5 -112 118t-39.5 162.5q0 103 52 176.5t133.5 110.5t166.5 37q95 0 167 -44.5t110.5 -117.5t38.5 -155q0 -91 -48 -167t-128.5 -120t-174.5 -44q-93 0 -165.5 43.5z
M523.5 42q54.5 33 86 97t31.5 152q0 93 -35 166.5t-98.5 114.5t-148.5 41q-110 0 -172 -71.5t-62 -195.5q0 -94 35 -171t98 -121.5t143 -44.5q68 0 122.5 33z" />
    <glyph glyph-name="Odieresis" unicode="&#xd6;" 
d="M266 727q-11 11 -11 31q0 18 11.5 29t30.5 11q20 0 31 -11t11 -29q0 -20 -11 -31t-31 -11t-31 11zM441 727q-11 11 -11 31q0 18 11 29t31 11q19 0 30 -11t11 -29q0 -20 -10.5 -31t-30.5 -11t-31 11zM200.5 31.5q-72.5 43.5 -112 118t-39.5 162.5q0 103 52 176.5
t133.5 110.5t166.5 37q95 0 167 -44.5t110.5 -117.5t38.5 -155q0 -91 -48 -167t-128.5 -120t-174.5 -44q-93 0 -165.5 43.5zM523.5 42q54.5 33 86 97t31.5 152q0 93 -35 166.5t-98.5 114.5t-148.5 41q-110 0 -172 -71.5t-62 -195.5q0 -94 35 -171t98 -121.5t143 -44.5
q68 0 122.5 33z" />
    <glyph glyph-name="uni1ECC" unicode="&#x1ecc;" 
d="M200.5 31.5q-72.5 43.5 -112 118t-39.5 162.5q0 103 52 176.5t133.5 110.5t166.5 37q95 0 167 -44.5t110.5 -117.5t38.5 -155q0 -91 -48 -167t-128.5 -120t-174.5 -44q-93 0 -165.5 43.5zM523.5 42q54.5 33 86 97t31.5 152q0 93 -35 166.5t-98.5 114.5t-148.5 41
q-110 0 -172 -71.5t-62 -195.5q0 -94 35 -171t98 -121.5t143 -44.5q68 0 122.5 33zM363.5 -179q-11.5 12 -11.5 32q0 19 11.5 30.5t32.5 11.5q20 0 31.5 -11.5t11.5 -30.5q0 -20 -11.5 -32t-31.5 -12q-21 0 -32.5 12z" />
    <glyph glyph-name="Ograve" unicode="&#xd2;" 
d="M261 756q-8 1 6.5 9t34 14.5t23.5 4.5q22 -14 33 -20q84 -52 130 -75q2 -2 2 -4q0 -3 -2 -5.5t-5 -1.5q-103 47 -222 78zM200.5 31.5q-72.5 43.5 -112 118t-39.5 162.5q0 103 52 176.5t133.5 110.5t166.5 37q95 0 167 -44.5t110.5 -117.5t38.5 -155q0 -91 -48 -167
t-128.5 -120t-174.5 -44q-93 0 -165.5 43.5zM523.5 42q54.5 33 86 97t31.5 152q0 93 -35 166.5t-98.5 114.5t-148.5 41q-110 0 -172 -71.5t-62 -195.5q0 -94 35 -171t98 -121.5t143 -44.5q68 0 122.5 33z" />
    <glyph glyph-name="uni1ECE" unicode="&#x1ece;" 
d="M382.5 649q-5.5 0 -6.5 2q-3 11 -3 21q0 15 5.5 28.5t16.5 29.5q10 18 14.5 28t4.5 22q0 19 -12 29.5t-30 10.5q-17 0 -28 -7h-1q-4 0 -6.5 3.5t0.5 4.5q33 21 65 21q30 0 46.5 -14.5t16.5 -36.5q0 -19 -10.5 -34t-30.5 -35q-18 -18 -27.5 -32t-9.5 -29q0 -7 1 -10
q0 -2 -5.5 -2zM200.5 31.5q-72.5 43.5 -112 118t-39.5 162.5q0 103 52 176.5t133.5 110.5t166.5 37q95 0 167 -44.5t110.5 -117.5t38.5 -155q0 -91 -48 -167t-128.5 -120t-174.5 -44q-93 0 -165.5 43.5zM523.5 42q54.5 33 86 97t31.5 152q0 93 -35 166.5t-98.5 114.5
t-148.5 41q-110 0 -172 -71.5t-62 -195.5q0 -94 35 -171t98 -121.5t143 -44.5q68 0 122.5 33z" />
    <glyph glyph-name="Ohorn" unicode="&#x1a0;" 
d="M628 543q43 -45 66 -103t23 -121q0 -91 -48 -167t-128.5 -120t-174.5 -44q-93 0 -165.5 43.5t-112 118t-39.5 162.5q0 103 52 176.5t133.5 110.5t166.5 37q65 0 120 -21.5t96 -60.5q27 13 41.5 29t14.5 32q0 11 -9 22q-10 12 -10 28q0 18 12.5 28.5t28.5 10.5
q18 0 28 -13.5t10 -30.5q0 -67 -105 -117zM523.5 42q54.5 33 86 97t31.5 152q0 93 -35 166.5t-98.5 114.5t-148.5 41q-110 0 -172 -71.5t-62 -195.5q0 -94 35 -171t98 -121.5t143 -44.5q68 0 122.5 33z" />
    <glyph glyph-name="uni1EDA" unicode="&#x1eda;" 
d="M286 678q-4 0 -6 4.5t2 6.5q35 17 70 38.5t47 28.5q15 10 45 28q4 2 23.5 -4.5t34 -14.5t7.5 -9q-121 -31 -222 -78h-1zM628 543q43 -45 66 -103t23 -121q0 -91 -48 -167t-128.5 -120t-174.5 -44q-93 0 -165.5 43.5t-112 118t-39.5 162.5q0 103 52 176.5t133.5 110.5
t166.5 37q65 0 120 -21.5t96 -60.5q28 13 42.5 29t14.5 32q0 11 -9 22q-5 6 -8 12t-3 16q0 18 12.5 28.5t28.5 10.5q18 0 28 -13.5t10 -30.5q0 -67 -105 -117zM523.5 42q54.5 33 86 97t31.5 152q0 93 -35 166.5t-98.5 114.5t-148.5 41q-110 0 -172 -71.5t-62 -195.5
q0 -94 35 -171t98 -121.5t143 -44.5q68 0 122.5 33z" />
    <glyph glyph-name="uni1EE2" unicode="&#x1ee2;" 
d="M628 543q43 -45 66 -103t23 -121q0 -91 -48 -167t-128.5 -120t-174.5 -44q-93 0 -165.5 43.5t-112 118t-39.5 162.5q0 103 52 176.5t133.5 110.5t166.5 37q65 0 120 -21.5t96 -60.5q28 13 42.5 29t14.5 32q0 11 -9 22q-5 6 -8 12t-3 16q0 18 12.5 28.5t28.5 10.5
q18 0 28 -13.5t10 -30.5q0 -67 -105 -117zM523.5 42q54.5 33 86 97t31.5 152q0 93 -35 166.5t-98.5 114.5t-148.5 41q-110 0 -172 -71.5t-62 -195.5q0 -94 35 -171t98 -121.5t143 -44.5q68 0 122.5 33zM416 -116.5q11 -11.5 11 -30.5q0 -20 -11 -32t-31 -12q-21 0 -33 12
t-12 32q0 19 12 30.5t33 11.5q20 0 31 -11.5z" />
    <glyph glyph-name="uni1EDC" unicode="&#x1edc;" 
d="M266.5 765q14.5 8 34 14.5t23.5 4.5q22 -14 33 -20q84 -52 130 -75q2 -2 2 -4q0 -3 -2 -5.5t-5 -1.5q-104 48 -222 78q-8 1 6.5 9zM628 543q43 -45 66 -103t23 -121q0 -91 -48 -167t-128.5 -120t-174.5 -44q-93 0 -165.5 43.5t-112 118t-39.5 162.5q0 103 52 176.5
t133.5 110.5t166.5 37q65 0 120 -21.5t96 -60.5q28 13 42.5 29t14.5 32q0 11 -9 22q-5 6 -8 12t-3 16q0 18 12.5 28.5t28.5 10.5q18 0 28 -13.5t10 -30.5q0 -67 -105 -117zM523.5 42q54.5 33 86 97t31.5 152q0 93 -35 166.5t-98.5 114.5t-148.5 41q-110 0 -172 -71.5
t-62 -195.5q0 -94 35 -171t98 -121.5t143 -44.5q68 0 122.5 33z" />
    <glyph glyph-name="uni1EDE" unicode="&#x1ede;" 
d="M334 822q-3 0 -6 3.5t0 4.5q33 22 64 22t48 -15t17 -37q0 -19 -11 -34.5t-31 -34.5q-19 -19 -28.5 -32.5t-9.5 -28.5q0 -6 1 -9q2 -2 -4 -2.5t-7 2.5q-3 12 -3 22q0 15 5.5 27.5t15.5 28.5q10 18 14.5 28.5t4.5 22.5q0 19 -12 29t-29 10t-28 -7h-1zM628 543
q43 -45 66 -103t23 -121q0 -91 -48 -167t-128.5 -120t-174.5 -44q-93 0 -165.5 43.5t-112 118t-39.5 162.5q0 103 52 176.5t133.5 110.5t166.5 37q65 0 120 -21.5t96 -60.5q28 13 42.5 29t14.5 32q0 11 -9 22q-5 6 -8 12t-3 16q0 18 12.5 28.5t28.5 10.5q18 0 28 -13.5
t10 -30.5q0 -67 -105 -117zM523.5 42q54.5 33 86 97t31.5 152q0 93 -35 166.5t-98.5 114.5t-148.5 41q-110 0 -172 -71.5t-62 -195.5q0 -94 35 -171t98 -121.5t143 -44.5q68 0 122.5 33z" />
    <glyph glyph-name="uni1EE0" unicode="&#x1ee0;" 
d="M256 718q-2 0 -4.5 2.5t-1.5 4.5q48 62 86 62q13 0 49 -10q46 -14 76 -14q16 0 26.5 6.5t22.5 19.5q0 1 2 1t4 -3t1 -5q-26 -36 -43.5 -49t-36.5 -13q-14 0 -29.5 3.5t-30.5 8.5q-4 1 -25.5 7t-45.5 6q-15 0 -24 -5.5t-16 -12.5l-9 -9h-1zM628 543q43 -45 66 -103
t23 -121q0 -91 -48 -167t-128.5 -120t-174.5 -44q-93 0 -165.5 43.5t-112 118t-39.5 162.5q0 103 52 176.5t133.5 110.5t166.5 37q65 0 120 -21.5t96 -60.5q28 13 42.5 29t14.5 32q0 11 -9 22q-5 6 -8 12t-3 16q0 18 12.5 28.5t28.5 10.5q18 0 28 -13.5t10 -30.5
q0 -67 -105 -117zM523.5 42q54.5 33 86 97t31.5 152q0 93 -35 166.5t-98.5 114.5t-148.5 41q-110 0 -172 -71.5t-62 -195.5q0 -94 35 -171t98 -121.5t143 -44.5q68 0 122.5 33z" />
    <glyph glyph-name="Ohungarumlaut" unicode="&#x150;" 
d="M279 675q-4 0 -5 5t1 7q40 36 90 94q3 4 22.5 -0.5t34 -12t7.5 -10.5q-84 -36 -148 -82zM403 675q-4 0 -5 5t1 7q31 28 58 58t32 36q3 4 22 -0.5t33 -12t7 -10.5q-74 -30 -146 -82zM200.5 31.5q-72.5 43.5 -112 118t-39.5 162.5q0 103 52 176.5t133.5 110.5t166.5 37
q95 0 167 -44.5t110.5 -117.5t38.5 -155q0 -91 -48 -167t-128.5 -120t-174.5 -44q-93 0 -165.5 43.5zM523.5 42q54.5 33 86 97t31.5 152q0 93 -35 166.5t-98.5 114.5t-148.5 41q-110 0 -172 -71.5t-62 -195.5q0 -94 35 -171t98 -121.5t143 -44.5q68 0 122.5 33z" />
    <glyph glyph-name="Omacron" unicode="&#x14c;" 
d="M252 736q0 14 6 14h252q6 0 6 -14t-6 -14h-252q-6 0 -6 14zM200.5 31.5q-72.5 43.5 -112 118t-39.5 162.5q0 103 52 176.5t133.5 110.5t166.5 37q95 0 167 -44.5t110.5 -117.5t38.5 -155q0 -91 -48 -167t-128.5 -120t-174.5 -44q-93 0 -165.5 43.5zM523.5 42
q54.5 33 86 97t31.5 152q0 93 -35 166.5t-98.5 114.5t-148.5 41q-110 0 -172 -71.5t-62 -195.5q0 -94 35 -171t98 -121.5t143 -44.5q68 0 122.5 33z" />
    <glyph glyph-name="uni01EA" unicode="&#x1ea;" 
d="M384 -73q-17 -33 -17 -70q0 -48 24.5 -74.5t69.5 -26.5q37 0 66 22h1q3 0 5.5 -3t0.5 -5q-53 -45 -109 -45q-54 0 -83 26.5t-29 71.5q0 83 101 168q-23 -3 -48 -3q-93 0 -165.5 43.5t-112 118t-39.5 162.5q0 103 52 176.5t133.5 110.5t166.5 37q95 0 167 -44.5
t110.5 -117.5t38.5 -155q0 -79 -36.5 -147.5t-100 -114.5t-141.5 -62q-38 -35 -55 -68zM160 175q35 -77 98 -121.5t143 -44.5q68 0 122.5 33t86 97t31.5 152q0 93 -35 166.5t-98.5 114.5t-148.5 41q-110 0 -172 -71.5t-62 -195.5q0 -94 35 -171z" />
    <glyph glyph-name="Oslash" unicode="&#xd8;" horiz-adv-x="771" 
d="M693 442q24 -60 24 -123q0 -91 -48 -167t-128.5 -120t-174.5 -44q-63 0 -117 20.5t-96 58.5l-73 -74l-2 -1q-4 0 -9.5 6.5t-2.5 9.5l72 73q-43 44 -66 104t-23 127q0 103 52 176.5t133.5 110.5t166.5 37q123 0 209 -76l69 70l2 1q4 0 10 -5.5t3 -8.5l-69 -71
q44 -44 68 -104zM140.5 229.5q15.5 -55.5 44.5 -100.5l383 389q-38 45 -91 70t-118 25q-110 0 -172 -71.5t-62 -195.5q0 -61 15.5 -116.5zM523.5 42q54.5 33 86 97t31.5 152q0 123 -61 211l-383 -390q37 -49 89.5 -76t114.5 -27q68 0 122.5 33z" />
    <glyph glyph-name="Oslashacute" unicode="&#x1fe;" horiz-adv-x="771" 
d="M290 678q-4 0 -6 4.5t2 6.5q35 18 69.5 38.5t42.5 25.5q17 11 51 31q4 2 23 -4.5t33.5 -14.5t7.5 -9q-121 -31 -222 -78h-1zM693 441.5q24 -59.5 24 -122.5q0 -91 -48 -167t-128.5 -120t-174.5 -44q-63 0 -117 20.5t-96 58.5l-73 -74l-2 -1q-4 0 -10 6.5t-3 9.5l73 74
q-43 44 -66 103.5t-23 126.5q0 103 52 176.5t133.5 110.5t166.5 37q62 0 115 -19.5t94 -55.5l68 69l2 1q5 0 10.5 -6t3.5 -9l-69 -70q44 -45 68 -104.5zM140.5 229.5q15.5 -55.5 44.5 -99.5l383 388q-37 46 -90.5 70.5t-118.5 24.5q-110 0 -172 -71.5t-62 -195.5
q0 -61 15.5 -116.5zM523.5 42q54.5 33 86 97t31.5 152q0 125 -60 210l-384 -389q37 -49 89.5 -76t114.5 -27q68 0 122.5 33z" />
    <glyph glyph-name="Otilde" unicode="&#xd5;" 
d="M489.5 748q9.5 6 22.5 20q0 1 2 1t4 -3t1 -5q-26 -36 -43 -49t-36 -13q-21 0 -61 12q-4 1 -25.5 7t-44.5 6q-16 0 -25 -5.5t-16 -12.5l-9 -9h-1q-2 0 -4.5 2.5t-1.5 4.5q48 62 86 62q14 0 50 -10q46 -14 75 -14q17 0 26.5 6zM200.5 31.5q-72.5 43.5 -112 118t-39.5 162.5
q0 103 52 176.5t133.5 110.5t166.5 37q95 0 167 -44.5t110.5 -117.5t38.5 -155q0 -91 -48 -167t-128.5 -120t-174.5 -44q-93 0 -165.5 43.5zM523.5 42q54.5 33 86 97t31.5 152q0 93 -35 166.5t-98.5 114.5t-148.5 41q-110 0 -172 -71.5t-62 -195.5q0 -94 35 -171t98 -121.5
t143 -44.5q68 0 122.5 33z" />
    <glyph glyph-name="OE" unicode="&#x152;" horiz-adv-x="914" 
d="M858.5 150q5.5 0 5.5 -3q-9 -79 -9 -132q0 -8 -3 -11.5t-12 -3.5h-298q-20 0 -70 -2t-74 -2q-101 0 -180.5 40t-124 110t-44.5 155q0 97 46.5 171t125 114.5t172.5 40.5q43 0 68 -1l78 -1h283q10 0 10 -9l2 -124q0 -2 -5.5 -2t-6.5 2q-2 47 -32 79.5t-75 32.5h-63
q-35 0 -51.5 -5t-23 -17.5t-6.5 -38.5v-208h122q48 0 69 16.5t21 54.5q0 2 5.5 2t5.5 -2l-1 -81q0 -30 1 -45l1 -47q0 -3 -5.5 -3t-5.5 3q0 44 -22 63t-72 19h-119v-230q0 -27 6 -40t22.5 -18.5t49.5 -5.5h83q43 0 77 36t44 91q0 2 5.5 2zM506 534q0 30 -8.5 46.5t-30 24
t-63.5 7.5q-82 0 -145 -33.5t-98.5 -99t-35.5 -156.5q0 -88 33.5 -159t95.5 -112t144 -41q43 0 65.5 5t32.5 20.5t10 45.5v452z" />
    <glyph glyph-name="P" unicode="P" horiz-adv-x="543" 
d="M200.5 38.5q8.5 -14.5 33 -20.5t77.5 -6q3 0 3 -6t-3 -6q-41 0 -64 1l-87 1l-67 -1q-19 -1 -51 -1q-2 0 -2 6t2 6q38 0 55.5 5t24 19.5t6.5 44.5v463q0 30 -6.5 44t-24 19.5t-55.5 5.5q-2 0 -2 6t2 6l50 -1q42 -2 67 -2q23 0 56 3q78 3 84 3q91 0 146.5 -41t55.5 -125
q0 -66 -32.5 -111t-83 -67t-104.5 -22q-30 0 -49 5q-3 0 -3 5q0 3 1.5 6t3.5 2q16 -4 36 -4q66 0 111.5 43t45.5 125q0 79 -43 124t-110 45q-37 0 -53 -4t-22.5 -18.5t-6.5 -48.5v-457q0 -32 8.5 -46.5z" />
    <glyph glyph-name="Thorn" unicode="&#xde;" horiz-adv-x="537" 
d="M382 190.5q45 43.5 45 125.5q0 80 -45.5 124.5t-121.5 44.5q-34 0 -69 -8v-392q0 -32 8.5 -46.5t33 -20.5t77.5 -6q3 0 3 -6t-3 -6q-41 0 -64 1l-86 1l-68 -1q-18 -1 -48 -1q-3 0 -3 6t3 6q37 0 54 5t23 19.5t6 44.5v463q0 30 -6 44t-23 19.5t-54 5.5q-3 0 -3 6t3 6
l48 -1q42 -2 68 -2q34 0 86 2l64 1q3 0 3 -6t-3 -6q-53 0 -77.5 -6t-33 -21t-8.5 -47v-47q45 7 94 7q98 0 157 -40t59 -130q0 -65 -33 -109t-83.5 -65.5t-102.5 -21.5q-22 0 -49 5q-2 0 -2 5q0 3 1.5 6t3.5 2q22 -4 36 -4q65 0 110 43.5z" />
    <glyph glyph-name="Q" unicode="Q" 
d="M749.5 -164.5q1.5 -5.5 -0.5 -6.5q-50 -12 -85 -12q-70 0 -146 45.5t-131 126.5q-7 -1 -21 -1q-93 0 -165.5 43.5t-112 118t-39.5 162.5q0 103 52 176.5t133.5 110.5t166.5 37q95 0 167 -44.5t110.5 -117.5t38.5 -155q0 -74 -32.5 -139.5t-89.5 -111.5t-129 -66
q42 -72 111.5 -119t131.5 -47q18 0 36 4q3 1 4.5 -4.5zM160 175q35 -77 98 -121.5t143 -44.5q68 0 122.5 33t86 97t31.5 152q0 93 -35 166.5t-98.5 114.5t-148.5 41q-110 0 -172 -71.5t-62 -195.5q0 -94 35 -171z" />
    <glyph glyph-name="R" unicode="R" horiz-adv-x="673" 
d="M685 6q0 -6 -3 -6h-128q-25 0 -93.5 85.5t-166.5 237.5q-27 -6 -54 -6q-19 0 -45 2v-238q0 -31 6 -45t23.5 -19t55.5 -5q3 0 3 -6t-3 -6q-31 0 -48 1l-70 1l-68 -1q-18 -1 -50 -1q-3 0 -3 6t3 6q38 0 55.5 5t24 19.5t6.5 44.5v463q0 30 -6 44t-23.5 19.5t-55.5 5.5
q-3 0 -3 6t3 6l49 -1q42 -2 68 -2q18 0 34 1t28 2q32 3 58 3q82 0 125.5 -33.5t43.5 -92.5q0 -48 -28 -90t-74 -67q86 -127 143.5 -198.5t102.5 -103t87 -31.5q3 0 3 -6zM254 340q69 0 99 29.5t30 98.5q0 146 -123 146q-27 0 -40 -4.5t-19 -19.5t-6 -48v-199q27 -3 59 -3z
" />
    <glyph glyph-name="Racute" unicode="&#x154;" horiz-adv-x="673" 
d="M159 678q-4 0 -5.5 5t2.5 6q47 24 110 63q34 22 52 32q4 2 23.5 -4.5t34 -14.5t6.5 -9q-119 -31 -222 -78h-1zM686 6q0 -6 -3 -6h-129q-25 0 -93.5 85.5t-166.5 237.5q-25 -6 -53 -6q-20 0 -46 2v-238q0 -31 6 -45t23.5 -19t55.5 -5q2 0 2 -6t-2 -6q-31 0 -48 1l-71 1
l-67 -1q-18 -1 -51 -1q-2 0 -2 6t2 6q38 0 56 5t24.5 19.5t6.5 44.5v463q0 30 -6 44t-24 19.5t-56 5.5q-2 0 -2 6t2 6l51 -1q42 -2 66 -2q18 0 34 1t28 2q33 3 59 3q81 0 125 -33t44 -92q0 -48 -28 -90.5t-74 -67.5q85 -127 143.5 -198.5t103.5 -103t87 -31.5q3 0 3 -6z
M254 340q69 0 98.5 29t29.5 99q0 146 -121 146q-27 0 -40.5 -4.5t-19.5 -19.5t-6 -48v-198q38 -4 59 -4z" />
    <glyph glyph-name="Rcaron" unicode="&#x158;" horiz-adv-x="673" 
d="M142 786q0 2 3 4t4 1l108 -58l108 58h1q2 0 4.5 -3t0.5 -4l-103 -97q-4 -4 -11 -4t-11 4l-103 97q-1 0 -1 2zM686 6q0 -6 -3 -6h-129q-25 0 -93.5 85.5t-166.5 237.5q-25 -6 -53 -6q-20 0 -46 2v-238q0 -31 6 -45t23.5 -19t55.5 -5q2 0 2 -6t-2 -6q-31 0 -48 1l-71 1
l-67 -1q-18 -1 -51 -1q-2 0 -2 6t2 6q38 0 56 5t24.5 19.5t6.5 44.5v463q0 30 -6 44t-24 19.5t-56 5.5q-2 0 -2 6t2 6l51 -1q42 -2 66 -2q18 0 34 1t28 2q33 3 59 3q81 0 125 -33t44 -92q0 -48 -28 -90.5t-74 -67.5q85 -127 143.5 -198.5t103.5 -103t87 -31.5q3 0 3 -6z
M254 340q69 0 98.5 29t29.5 99q0 146 -121 146q-27 0 -40.5 -4.5t-19.5 -19.5t-6 -48v-198q38 -4 59 -4z" />
    <glyph glyph-name="Rcommaaccent" unicode="&#x156;" horiz-adv-x="673" 
d="M686 6q0 -6 -3 -6h-129q-25 0 -93.5 85.5t-166.5 237.5q-25 -6 -53 -6q-20 0 -46 2v-238q0 -31 6 -45t23.5 -19t55.5 -5q2 0 2 -6t-2 -6q-31 0 -48 1l-71 1l-67 -1q-18 -1 -51 -1q-2 0 -2 6t2 6q38 0 56 5t24.5 19.5t6.5 44.5v463q0 30 -6 44t-24 19.5t-56 5.5q-2 0 -2 6
t2 6l51 -1q42 -2 66 -2q18 0 34 1t28 2q33 3 59 3q81 0 125 -33t44 -92q0 -48 -28 -90.5t-74 -67.5q85 -127 143.5 -198.5t103.5 -103t87 -31.5q3 0 3 -6zM254 340q69 0 98.5 29t29.5 99q0 146 -121 146q-27 0 -40.5 -4.5t-19.5 -19.5t-6 -48v-198q38 -4 59 -4zM376 -104
q14 -19 14 -54q0 -34 -15.5 -62t-44.5 -55q-1 -1 -3 -1q-3 0 -5.5 3t-0.5 5q45 41 45 90q0 20 -6 29q-7 -15 -30 -15q-19 0 -29 10.5t-10 28.5q0 21 12 30.5t31 9.5q28 0 42 -19z" />
    <glyph glyph-name="uni1E5A" unicode="&#x1e5a;" horiz-adv-x="673" 
d="M686 6q0 -6 -3 -6h-129q-25 0 -93.5 85.5t-166.5 237.5q-25 -6 -53 -6q-20 0 -46 2v-238q0 -31 6 -45t23.5 -19t55.5 -5q2 0 2 -6t-2 -6q-31 0 -48 1l-71 1l-67 -1q-18 -1 -51 -1q-2 0 -2 6t2 6q38 0 56 5t24.5 19.5t6.5 44.5v463q0 30 -6 44t-24 19.5t-56 5.5q-2 0 -2 6
t2 6l51 -1q42 -2 66 -2q18 0 34 1t28 2q33 3 59 3q81 0 125 -33t44 -92q0 -48 -28 -90.5t-74 -67.5q85 -127 143.5 -198.5t103.5 -103t87 -31.5q3 0 3 -6zM254 340q69 0 98.5 29t29.5 99q0 146 -121 146q-27 0 -40.5 -4.5t-19.5 -19.5t-6 -48v-198q38 -4 59 -4zM374 -116.5
q11 -11.5 11 -30.5q0 -20 -11 -32t-31 -12q-21 0 -33 12t-12 32q0 19 12 30.5t33 11.5q20 0 31 -11.5z" />
    <glyph glyph-name="uni1E5C" unicode="&#x1e5c;" horiz-adv-x="673" 
d="M125 736q0 14 6 14h251q7 0 7 -14t-7 -14h-251q-6 0 -6 14zM686 6q0 -6 -3 -6h-129q-25 0 -93.5 85.5t-166.5 237.5q-25 -6 -53 -6q-20 0 -46 2v-238q0 -31 6 -45t23.5 -19t55.5 -5q2 0 2 -6t-2 -6q-31 0 -48 1l-71 1l-67 -1q-18 -1 -51 -1q-2 0 -2 6t2 6q38 0 56 5
t24.5 19.5t6.5 44.5v463q0 30 -6 44t-24 19.5t-56 5.5q-2 0 -2 6t2 6l51 -1q42 -2 66 -2q18 0 34 1t28 2q33 3 59 3q81 0 125 -33t44 -92q0 -48 -28 -90.5t-74 -67.5q85 -127 143.5 -198.5t103.5 -103t87 -31.5q3 0 3 -6zM254 340q69 0 98.5 29t29.5 99q0 146 -121 146
q-27 0 -40.5 -4.5t-19.5 -19.5t-6 -48v-198q38 -4 59 -4zM374 -116.5q11 -11.5 11 -30.5q0 -20 -11 -32t-31 -12q-21 0 -33 12t-12 32q0 19 12 30.5t33 11.5q20 0 31 -11.5z" />
    <glyph glyph-name="uni1E5E" unicode="&#x1e5e;" horiz-adv-x="673" 
d="M686 6q0 -6 -3 -6h-129q-25 0 -93.5 85.5t-166.5 237.5q-25 -6 -53 -6q-20 0 -46 2v-238q0 -31 6 -45t23.5 -19t55.5 -5q2 0 2 -6t-2 -6q-31 0 -48 1l-71 1l-67 -1q-18 -1 -51 -1q-2 0 -2 6t2 6q38 0 56 5t24.5 19.5t6.5 44.5v463q0 30 -6 44t-24 19.5t-56 5.5q-2 0 -2 6
t2 6l51 -1q42 -2 66 -2q18 0 34 1t28 2q33 3 59 3q81 0 125 -33t44 -92q0 -48 -28 -90.5t-74 -67.5q85 -127 143.5 -198.5t103.5 -103t87 -31.5q3 0 3 -6zM254 340q69 0 98.5 29t29.5 99q0 146 -121 146q-27 0 -40.5 -4.5t-19.5 -19.5t-6 -48v-198q38 -4 59 -4zM473 -99
q0 -14 -6 -14h-252q-6 0 -6 14t6 14h252q6 0 6 -14z" />
    <glyph glyph-name="S" unicode="S" horiz-adv-x="491" 
d="M164 440q19 -29 46.5 -48.5t75.5 -48.5q53 -32 81.5 -53t49 -53.5t20.5 -77.5q0 -48 -24 -87t-70.5 -61.5t-111.5 -22.5q-74 0 -141 35q-5 3 -6.5 7t-2.5 12l-13 136q-1 4 4.5 5t7.5 -3q15 -72 58.5 -124t115.5 -52q50 0 84.5 27.5t34.5 87.5q0 45 -19.5 77.5t-48 54
t-77.5 51.5q-48 28 -76 49.5t-47 53.5t-19 75q0 50 26.5 85.5t69 53t90.5 17.5q62 0 117 -24q16 -6 16 -17l6 -115q0 -4 -5.5 -4t-6.5 4q-3 31 -19 63.5t-47.5 55t-76.5 22.5q-56 0 -83.5 -32.5t-27.5 -80.5q0 -39 19 -68z" />
    <glyph glyph-name="Sacute" unicode="&#x15a;" horiz-adv-x="491" 
d="M157 678q-4 0 -5.5 5t2.5 6q35 17 70 38.5t47 28.5q15 10 45 28q4 2 23.5 -4.5t34 -14.5t7.5 -9q-120 -31 -223 -78h-1zM164 440q19 -29 47 -49t76 -48q53 -33 81 -53.5t48.5 -53t20.5 -77.5q0 -48 -24 -87t-71 -61.5t-112 -22.5q-73 0 -140 35q-5 3 -6.5 7t-2.5 12
l-13 136q-1 4 4.5 5t7.5 -3q15 -71 58.5 -123t115.5 -52q50 0 84.5 27t34.5 87q0 45 -20 77.5t-47 53.5t-78 53q-48 28 -76 49t-47.5 53t-19.5 75q0 50 26.5 85.5t69.5 53t90 17.5q60 0 118 -24q16 -6 16 -17l7 -114q0 -5 -5.5 -5t-6.5 4q-4 31 -20 63.5t-47.5 55
t-76.5 22.5q-56 0 -83.5 -32.5t-27.5 -80.5q0 -39 19 -68z" />
    <glyph glyph-name="Scaron" unicode="&#x160;" horiz-adv-x="491" 
d="M141 784q-1 0 -1 2t3 4t4 1l109 -58l107 58h2q2 0 4 -3t0 -4l-103 -97q-4 -4 -11 -4t-11 4zM164 440q19 -29 47 -49t76 -48q53 -33 81 -53.5t48.5 -53t20.5 -77.5q0 -48 -24 -87t-71 -61.5t-112 -22.5q-73 0 -140 35q-5 3 -6.5 7t-2.5 12l-13 136q-1 4 4.5 5t7.5 -3
q15 -71 58.5 -123t115.5 -52q50 0 84.5 27t34.5 87q0 45 -20 77.5t-47 53.5t-78 53q-48 28 -76 49t-47.5 53t-19.5 75q0 50 26.5 85.5t69.5 53t90 17.5q60 0 118 -24q16 -6 16 -17l7 -114q0 -5 -5.5 -5t-6.5 4q-4 31 -20 63.5t-47.5 55t-76.5 22.5q-56 0 -83.5 -32.5
t-27.5 -80.5q0 -39 19 -68z" />
    <glyph glyph-name="Scedilla" unicode="&#x15e;" horiz-adv-x="491" 
d="M390.5 44.5q-46.5 -47.5 -129.5 -55.5q-11 -35 -11 -47t7 -19.5t20 -14.5t17 -10q26 -15 40.5 -32.5t14.5 -44.5q0 -37 -26.5 -66.5t-76.5 -29.5q-29 0 -47.5 10t-18.5 29q0 12 9 20.5t22 8.5q11 0 17 -5.5t12 -16.5q7 -13 14 -19.5t22 -6.5q34 0 34 37q0 27 -18.5 47.5
t-66.5 46.5q-9 4 -12 7t-3 7q0 3 5 16q19 47 31 82h-16q-73 0 -140 35q-5 3 -6.5 7t-2.5 12l-13 136q-1 4 4.5 5t7.5 -3q15 -71 58.5 -123t115.5 -52q50 0 84.5 27t34.5 87q0 45 -20 77.5t-47 53.5t-78 53q-48 28 -76 49t-47.5 53t-19.5 75q0 50 26.5 85.5t69.5 53t90 17.5
q60 0 118 -24q16 -6 16 -17l7 -114q0 -5 -5.5 -5t-6.5 4q-4 31 -20 63.5t-47.5 55t-76.5 22.5q-56 0 -83.5 -32.5t-27.5 -80.5q0 -39 19 -68t47 -49t76 -48q53 -33 81 -53.5t48.5 -53t20.5 -77.5q0 -67 -46.5 -114.5z" />
    <glyph glyph-name="Scircumflex" unicode="&#x15c;" horiz-adv-x="491" 
d="M245 789q5 5 11 5t11 -5l103 -97q1 0 1 -2t-2.5 -4t-4.5 -1l-107 58l-109 -58q-2 -1 -5 2.5t-1 4.5zM164 440q19 -29 47 -49t76 -48q53 -33 81 -53.5t48.5 -53t20.5 -77.5q0 -48 -24 -87t-71 -61.5t-112 -22.5q-73 0 -140 35q-5 3 -6.5 7t-2.5 12l-13 136q-1 4 4.5 5
t7.5 -3q15 -71 58.5 -123t115.5 -52q50 0 84.5 27t34.5 87q0 45 -20 77.5t-47 53.5t-78 53q-48 28 -76 49t-47.5 53t-19.5 75q0 50 26.5 85.5t69.5 53t90 17.5q60 0 118 -24q16 -6 16 -17l7 -114q0 -5 -5.5 -5t-6.5 4q-4 31 -20 63.5t-47.5 55t-76.5 22.5q-56 0 -83.5 -32.5
t-27.5 -80.5q0 -39 19 -68z" />
    <glyph glyph-name="Scommaaccent" unicode="&#x218;" horiz-adv-x="491" 
d="M368 289.5q28 -20.5 48.5 -53t20.5 -77.5q0 -48 -24 -87t-71 -61.5t-112 -22.5q-73 0 -140 35q-5 3 -6.5 7t-2.5 12l-13 136q-1 4 4.5 5t7.5 -3q15 -71 58.5 -123t115.5 -52q50 0 84.5 27t34.5 87q0 45 -20 77.5t-47 53.5t-78 53q-48 28 -76 49t-47.5 53t-19.5 75
q0 50 26.5 85.5t69.5 53t90 17.5q60 0 118 -24q16 -6 16 -17l7 -114q0 -5 -5.5 -5t-6.5 4q-4 31 -20 63.5t-47.5 55t-76.5 22.5q-56 0 -83.5 -32.5t-27.5 -80.5q0 -39 19 -68t47 -49t76 -48q53 -33 81 -53.5zM300.5 -104q14.5 -19 14.5 -54q0 -33 -15.5 -61.5t-45.5 -55.5
q-1 -1 -3 -1q-3 0 -5 3.5t0 4.5q44 41 44 90q0 20 -6 29q-7 -15 -30 -15q-19 0 -29 10.5t-10 28.5q0 21 12 30.5t32 9.5q27 0 41.5 -19z" />
    <glyph glyph-name="uni1E60" unicode="&#x1e60;" horiz-adv-x="491" 
d="M223 724.5q-12 11.5 -12 32.5q0 19 12.5 30t32.5 11t31 -11t11 -30q0 -21 -11 -32.5t-31 -11.5q-21 0 -33 11.5zM164 440q19 -29 47 -49t76 -48q53 -33 81 -53.5t48.5 -53t20.5 -77.5q0 -48 -24 -87t-71 -61.5t-112 -22.5q-73 0 -140 35q-5 3 -6.5 7t-2.5 12l-13 136
q-1 4 4.5 5t7.5 -3q15 -71 58.5 -123t115.5 -52q50 0 84.5 27t34.5 87q0 45 -20 77.5t-47 53.5t-78 53q-48 28 -76 49t-47.5 53t-19.5 75q0 50 26.5 85.5t69.5 53t90 17.5q60 0 118 -24q16 -6 16 -17l7 -114q0 -5 -5.5 -5t-6.5 4q-4 31 -20 63.5t-47.5 55t-76.5 22.5
q-56 0 -83.5 -32.5t-27.5 -80.5q0 -39 19 -68z" />
    <glyph glyph-name="uni1E62" unicode="&#x1e62;" horiz-adv-x="491" 
d="M164 440q19 -29 47 -49t76 -48q53 -33 81 -53.5t48.5 -53t20.5 -77.5q0 -48 -24 -87t-71 -61.5t-112 -22.5q-73 0 -140 35q-5 3 -6.5 7t-2.5 12l-13 136q-1 4 4.5 5t7.5 -3q15 -71 58.5 -123t115.5 -52q50 0 84.5 27t34.5 87q0 45 -20 77.5t-47 53.5t-78 53
q-48 28 -76 49t-47.5 53t-19.5 75q0 50 26.5 85.5t69.5 53t90 17.5q60 0 118 -24q16 -6 16 -17l7 -114q0 -5 -5.5 -5t-6.5 4q-4 31 -20 63.5t-47.5 55t-76.5 22.5q-56 0 -83.5 -32.5t-27.5 -80.5q0 -39 19 -68zM234 -179q-12 12 -12 32q0 19 12 30.5t33 11.5q20 0 31 -11.5
t11 -30.5q0 -20 -11 -32t-31 -12q-21 0 -33 12z" />
    <glyph glyph-name="uni1E9E" unicode="&#x1e9e;" horiz-adv-x="692" 
d="M556 37.5q32 28.5 32 79.5q0 56 -41.5 107t-138.5 119q-9 5 -3 15l111 176q-60 33 -118 50t-104 17q-43 0 -68.5 -17t-37.5 -60.5t-12 -122.5v-320q0 -31 5.5 -45t22.5 -19t56 -5q2 0 2 -6t-2 -6l-118 1l-116 -1q-3 0 -3 6t3 6q36 0 53.5 5.5t24.5 19.5t7 44v297
q0 64 27.5 123.5t82 97t129.5 37.5q65 0 169 -34q23 -7 28 -7q10 0 16.5 6.5t21.5 27.5q3 3 6 3t5 -2t0 -5l-149 -234q103 -68 147.5 -120t44.5 -106q0 -42 -23.5 -83t-67.5 -67.5t-103 -26.5q-32 0 -58.5 7t-56.5 25q-5 2 -6.5 6t-2.5 13l-13 104q-1 4 4.5 5t6.5 -3
q7 -32 32.5 -64t60.5 -52t68 -20q44 0 76 28.5z" />
    <glyph glyph-name="uni018F" unicode="&#x18f;" horiz-adv-x="640" 
d="M462.5 591q67.5 -45 95.5 -115.5t28 -151.5q0 -104 -42 -180t-114 -116t-160 -40q-75 0 -125 28t-73.5 68.5t-23.5 78.5q0 7 2.5 9.5t8.5 2.5l441 2q12 50 12 111q0 95 -27 171t-79 119.5t-123 43.5q-67 0 -127.5 -36.5t-84.5 -105.5q0 -2 -5 -2q-3 0 -5.5 1.5t-1.5 2.5
l42 157q0 3 5 3q2 0 4.5 -1.5t1.5 -3.5q-1 -4 -1 -10q0 -10 4.5 -15t12.5 -5q3 0 11 2q43 15 74.5 21t69.5 6q112 0 179.5 -45zM425.5 46q48.5 39 69.5 112l-374 -5q8 -66 59 -106t125 -40q72 0 120.5 39z" />
    <glyph glyph-name="T" unicode="T" horiz-adv-x="634" 
d="M94.5 575q-31.5 -32 -44.5 -109q-1 -2 -6.5 -2t-5.5 3q4 27 9 87.5t5 92.5q0 5 6 5t6 -5q0 -22 53 -22q85 -3 201 -3q60 0 126 2l67 1q36 0 53.5 5t22.5 20q1 4 6 4t5 -4q-3 -28 -6 -87.5t-3 -95.5q0 -3 -5.5 -3t-6.5 3q-3 77 -32 108.5t-96 31.5q-45 0 -64 -4t-26 -17
t-7 -44v-461q0 -31 7 -45t27 -19t63 -5q3 0 3 -6t-3 -6q-34 0 -53 1l-78 1l-75 -1q-20 -1 -55 -1q-2 0 -2 6t2 6q43 0 63 5t27.5 19.5t7.5 44.5v463q0 31 -7 43.5t-26 16t-64 3.5q-63 0 -94.5 -32z" />
    <glyph glyph-name="Tbar" unicode="&#x166;" horiz-adv-x="632" 
d="M593.5 654q5.5 0 5.5 -4q-3 -28 -6.5 -87.5t-3.5 -95.5q0 -3 -5.5 -3t-5.5 3q-4 77 -33 108.5t-96 31.5q-45 0 -64 -4t-26 -17t-7 -44v-209h100q4 0 4 -10q0 -11 -4 -11h-100v-231q0 -31 7 -45t27 -19t63 -5q3 0 3 -6t-3 -6q-34 0 -53 1l-78 1l-74 -1q-20 -1 -56 -1
q-2 0 -2 6t2 6q43 0 63 5.5t28 19.5t8 44v231h-100q-4 0 -4 11q0 10 4 10h100v211q0 31 -7.5 43.5t-26 16t-65.5 3.5q-62 0 -93.5 -32t-45.5 -108q0 -3 -6 -3t-6 3q4 28 9 88t5 92q0 5 6 5t6 -5q0 -22 54 -22q85 -3 201 -3q60 0 126 2l67 1q37 0 54 5t22 20q1 4 6.5 4z" />
    <glyph glyph-name="Tcaron" unicode="&#x164;" horiz-adv-x="634" 
d="M202 784q-1 0 -1 0.5v0.5q0 2 2.5 4.5t4.5 1.5l109 -58l108 58h1q3 0 5 -3t-1 -4l-102 -97q-4 -4 -11 -4q-8 0 -12 4zM94.5 575q-31.5 -32 -45.5 -108q0 -3 -6 -3t-6 3q4 28 9 88t5 92q0 5 6 5t6 -5q0 -22 54 -22q85 -3 201 -3q60 0 126 2l67 1q37 0 54 5t22 20
q1 4 6.5 4t5.5 -4q-3 -28 -6.5 -87.5t-3.5 -95.5q0 -3 -5.5 -3t-5.5 3q-4 77 -33 108.5t-96 31.5q-45 0 -64 -4t-26 -17t-7 -44v-461q0 -31 7 -45t27 -19t63 -5q3 0 3 -6t-3 -6q-34 0 -53 1l-78 1l-74 -1q-20 -1 -56 -1q-2 0 -2 6t2 6q43 0 63 5.5t28 19.5t8 44v463
q0 31 -7.5 43.5t-26 16t-65.5 3.5q-62 0 -93.5 -32z" />
    <glyph glyph-name="uni0162" unicode="&#x162;" horiz-adv-x="634" 
d="M593.5 654q5.5 0 5.5 -4q-3 -28 -6.5 -87.5t-3.5 -95.5q0 -3 -5.5 -3t-5.5 3q-4 77 -33 108.5t-96 31.5q-45 0 -64 -4t-26 -17t-7 -44v-461q0 -31 7 -45t27 -19t63 -5q3 0 3 -6t-3 -6q-33 0 -51 1l-75 1q-13 -42 -13 -57t8.5 -24.5t31.5 -22.5q26 -15 40.5 -32.5
t14.5 -44.5q0 -37 -26 -66.5t-77 -29.5q-28 0 -46.5 10t-18.5 29q0 12 9 20.5t21 8.5q11 0 17 -5.5t12 -16.5q7 -13 14.5 -19.5t22.5 -6.5q34 0 34 37q0 27 -18.5 47.5t-67.5 46.5q-14 7 -14 13q0 4 5 17l37 96l-69 -1q-18 -1 -52 -1q-2 0 -2 6t2 6q43 0 63 5.5t28 19.5
t8 44v463q0 31 -7.5 43.5t-26 16t-65.5 3.5q-62 0 -93.5 -32t-45.5 -108q0 -3 -6 -3t-6 3q4 28 9 88t5 92q0 5 6 5t6 -5q0 -22 54 -22q85 -3 201 -3q60 0 126 2l67 1q37 0 54 5t22 20q1 4 6.5 4z" />
    <glyph glyph-name="uni021A" unicode="&#x21a;" horiz-adv-x="634" 
d="M593.5 654q5.5 0 5.5 -4q-3 -28 -6.5 -87.5t-3.5 -95.5q0 -3 -5.5 -3t-5.5 3q-4 77 -33 108.5t-96 31.5q-45 0 -64 -4t-26 -17t-7 -44v-461q0 -31 7 -45t27 -19t63 -5q3 0 3 -6t-3 -6q-34 0 -53 1l-78 1l-74 -1q-20 -1 -56 -1q-2 0 -2 6t2 6q43 0 63 5.5t28 19.5t8 44
v463q0 31 -7.5 43.5t-26 16t-65.5 3.5q-62 0 -93.5 -32t-45.5 -108q0 -3 -6 -3t-6 3q4 28 9 88t5 92q0 5 6 5t6 -5q0 -22 54 -22q85 -3 201 -3q60 0 126 2l67 1q37 0 54 5t22 20q1 4 6.5 4zM357.5 -104q14.5 -19 14.5 -54q0 -34 -15.5 -62t-45.5 -55q-1 -1 -3 -1
q-3 0 -5 3.5t0 4.5q44 41 44 90q0 20 -6 29q-7 -15 -30 -15q-18 0 -28 10.5t-10 28.5q0 40 43 40q27 0 41.5 -19z" />
    <glyph glyph-name="uni1E6C" unicode="&#x1e6c;" horiz-adv-x="634" 
d="M94.5 575q-31.5 -32 -45.5 -108q0 -3 -6 -3t-6 3q4 28 9 88t5 92q0 5 6 5t6 -5q0 -22 54 -22q85 -3 201 -3q60 0 126 2l67 1q37 0 54 5t22 20q1 4 6.5 4t5.5 -4q-3 -28 -6.5 -87.5t-3.5 -95.5q0 -3 -5.5 -3t-5.5 3q-4 77 -33 108.5t-96 31.5q-45 0 -64 -4t-26 -17t-7 -44
v-461q0 -31 7 -45t27 -19t63 -5q3 0 3 -6t-3 -6q-34 0 -53 1l-78 1l-74 -1q-20 -1 -56 -1q-2 0 -2 6t2 6q43 0 63 5.5t28 19.5t8 44v463q0 31 -7.5 43.5t-26 16t-65.5 3.5q-62 0 -93.5 -32zM291.5 -179q-11.5 12 -11.5 32q0 19 11.5 30.5t32.5 11.5q20 0 31 -11.5t11 -30.5
q0 -20 -11 -32t-31 -12q-21 0 -32.5 12z" />
    <glyph glyph-name="uni1E6E" unicode="&#x1e6e;" horiz-adv-x="634" 
d="M94.5 575q-31.5 -32 -45.5 -108q0 -3 -6 -3t-6 3q4 28 9 88t5 92q0 5 6 5t6 -5q0 -22 54 -22q85 -3 201 -3q60 0 126 2l67 1q37 0 54 5t22 20q1 4 6.5 4t5.5 -4q-3 -28 -6.5 -87.5t-3.5 -95.5q0 -3 -5.5 -3t-5.5 3q-4 77 -33 108.5t-96 31.5q-45 0 -64 -4t-26 -17t-7 -44
v-461q0 -31 7 -45t27 -19t63 -5q3 0 3 -6t-3 -6q-34 0 -53 1l-78 1l-74 -1q-20 -1 -56 -1q-2 0 -2 6t2 6q43 0 63 5.5t28 19.5t8 44v463q0 31 -7.5 43.5t-26 16t-65.5 3.5q-62 0 -93.5 -32zM190 -99q0 14 6 14h252q6 0 6 -14t-6 -14h-252q-6 0 -6 14z" />
    <glyph glyph-name="U" unicode="U" horiz-adv-x="763" 
d="M729 6q0 -6 -3 -6l-79 1l-52 -1q-12 0 -15.5 3t-3.5 16v78q-63 -57 -120.5 -83t-124.5 -26q-63 0 -113.5 24t-79 69t-28.5 105v358q0 30 -6.5 44t-24 19.5t-54.5 5.5q-3 0 -3 6t3 6l49 -1q42 -2 68 -2q28 0 70 2l48 1q2 0 2 -6t-2 -6q-37 0 -55 -6t-24.5 -20.5
t-6.5 -44.5v-321q0 -100 49.5 -152.5t134.5 -52.5q57 0 108 22.5t110 75.5v428q0 30 -6 44.5t-23.5 20.5t-55.5 6q-3 0 -3 6t3 6l49 -1q42 -2 68 -2t68 2l50 1q3 0 3 -6t-3 -6q-38 0 -55.5 -5.5t-24 -19.5t-6.5 -44v-463q0 -30 6.5 -44.5t24 -19.5t55.5 -5q3 0 3 -6z" />
    <glyph glyph-name="Uacute" unicode="&#xda;" horiz-adv-x="763" 
d="M287 678q-4 0 -5.5 5t2.5 6q35 17 70 38.5t47 28.5q15 10 45 28q4 2 23.5 -4.5t34 -14.5t7.5 -9q-120 -31 -223 -78h-1zM729 6q0 -6 -3 -6l-79 1l-52 -1q-12 0 -15 3t-3 16v79q-62 -58 -120.5 -84t-125.5 -26q-63 0 -113.5 24t-79 69t-28.5 105v358q0 30 -6.5 44
t-24 19.5t-54.5 5.5q-3 0 -3 6t3 6l49 -1q42 -2 68 -2t70 2l48 1q2 0 2 -6t-2 -6q-37 0 -55 -6t-24.5 -20.5t-6.5 -44.5v-321q0 -100 49.5 -152.5t134.5 -52.5q57 0 108.5 23t110.5 76v427q0 30 -6.5 44.5t-24 20.5t-55.5 6q-2 0 -2 6t2 6l49 -1q42 -2 68 -2q27 0 69 2l49 1
q3 0 3 -6t-3 -6q-37 0 -55 -5.5t-24.5 -19.5t-6.5 -44v-463q0 -30 6.5 -44.5t24.5 -19.5t55 -5q3 0 3 -6z" />
    <glyph glyph-name="Ubreve" unicode="&#x16c;" horiz-adv-x="763" 
d="M316 717q-26 27 -33 79v1q0 3 4.5 3.5t5.5 -1.5q7 -27 33.5 -46.5t58.5 -19.5t58 19.5t34 46.5q1 2 6 1.5t4 -4.5q-7 -52 -33 -79t-69 -27t-69 27zM729 6q0 -6 -3 -6l-79 1l-52 -1q-12 0 -15 3t-3 16v79q-62 -58 -120.5 -84t-125.5 -26q-63 0 -113.5 24t-79 69t-28.5 105
v358q0 30 -6.5 44t-24 19.5t-54.5 5.5q-3 0 -3 6t3 6l49 -1q42 -2 68 -2t70 2l48 1q2 0 2 -6t-2 -6q-37 0 -55 -6t-24.5 -20.5t-6.5 -44.5v-321q0 -100 49.5 -152.5t134.5 -52.5q57 0 108.5 23t110.5 76v427q0 30 -6.5 44.5t-24 20.5t-55.5 6q-2 0 -2 6t2 6l49 -1
q42 -2 68 -2q27 0 69 2l49 1q3 0 3 -6t-3 -6q-37 0 -55 -5.5t-24.5 -19.5t-6.5 -44v-463q0 -30 6.5 -44.5t24.5 -19.5t55 -5q3 0 3 -6z" />
    <glyph glyph-name="uni01D3" unicode="&#x1d3;" horiz-adv-x="763" 
d="M270 786q0 2 3 4t4 1l108 -58l108 58h2q2 0 4 -3t0 -4l-103 -97q-4 -4 -11 -4t-11 4l-103 97q-1 0 -1 2zM729 6q0 -6 -3 -6l-79 1l-52 -1q-12 0 -15 3t-3 16v79q-62 -58 -120.5 -84t-125.5 -26q-63 0 -113.5 24t-79 69t-28.5 105v358q0 30 -6.5 44t-24 19.5t-54.5 5.5
q-3 0 -3 6t3 6l49 -1q42 -2 68 -2t70 2l48 1q2 0 2 -6t-2 -6q-37 0 -55 -6t-24.5 -20.5t-6.5 -44.5v-321q0 -100 49.5 -152.5t134.5 -52.5q57 0 108.5 23t110.5 76v427q0 30 -6.5 44.5t-24 20.5t-55.5 6q-2 0 -2 6t2 6l49 -1q42 -2 68 -2q27 0 69 2l49 1q3 0 3 -6t-3 -6
q-37 0 -55 -5.5t-24.5 -19.5t-6.5 -44v-463q0 -30 6.5 -44.5t24.5 -19.5t55 -5q3 0 3 -6z" />
    <glyph glyph-name="Ucircumflex" unicode="&#xdb;" horiz-adv-x="763" 
d="M273 687.5q-3 3.5 -1 4.5l103 97q5 5 11 5t11 -5l103 -97q1 0 1 -2t-2.5 -4t-4.5 -1l-107 58l-109 -58q-2 -1 -5 2.5zM729 6q0 -6 -3 -6l-79 1l-52 -1q-12 0 -15 3t-3 16v79q-62 -58 -120.5 -84t-125.5 -26q-63 0 -113.5 24t-79 69t-28.5 105v358q0 30 -6.5 44t-24 19.5
t-54.5 5.5q-3 0 -3 6t3 6l49 -1q42 -2 68 -2t70 2l48 1q2 0 2 -6t-2 -6q-37 0 -55 -6t-24.5 -20.5t-6.5 -44.5v-321q0 -100 49.5 -152.5t134.5 -52.5q57 0 108.5 23t110.5 76v427q0 30 -6.5 44.5t-24 20.5t-55.5 6q-2 0 -2 6t2 6l49 -1q42 -2 68 -2q27 0 69 2l49 1q3 0 3 -6
t-3 -6q-37 0 -55 -5.5t-24.5 -19.5t-6.5 -44v-463q0 -30 6.5 -44.5t24.5 -19.5t55 -5q3 0 3 -6z" />
    <glyph glyph-name="Udieresis" unicode="&#xdc;" horiz-adv-x="763" 
d="M267 727q-11 11 -11 31q0 18 11.5 29t30.5 11q20 0 31 -11t11 -29q0 -20 -11 -31t-31 -11t-31 11zM442 727q-11 11 -11 31q0 18 11 29t31 11q19 0 30 -11t11 -29q0 -20 -10.5 -31t-30.5 -11t-31 11zM729 6q0 -6 -3 -6l-79 1l-52 -1q-12 0 -15 3t-3 16v79
q-62 -58 -120.5 -84t-125.5 -26q-63 0 -113.5 24t-79 69t-28.5 105v358q0 30 -6.5 44t-24 19.5t-54.5 5.5q-3 0 -3 6t3 6l49 -1q42 -2 68 -2t70 2l48 1q2 0 2 -6t-2 -6q-37 0 -55 -6t-24.5 -20.5t-6.5 -44.5v-321q0 -100 49.5 -152.5t134.5 -52.5q57 0 108.5 23t110.5 76
v427q0 30 -6.5 44.5t-24 20.5t-55.5 6q-2 0 -2 6t2 6l49 -1q42 -2 68 -2q27 0 69 2l49 1q3 0 3 -6t-3 -6q-37 0 -55 -5.5t-24.5 -19.5t-6.5 -44v-463q0 -30 6.5 -44.5t24.5 -19.5t55 -5q3 0 3 -6z" />
    <glyph glyph-name="uni01D7" unicode="&#x1d7;" horiz-adv-x="763" 
d="M269 818q-4 0 -5 4.5t2 6.5q55 27 117 63q48 28 56 32q5 3 24 -3.5t34 -15t7 -9.5q-66 -15 -120 -33.5t-113 -43.5zM267 715q-11 11 -11 31q0 19 11 29.5t31 10.5t31 -10.5t11 -29.5q0 -20 -11 -31t-31 -11t-31 11zM503 775.5q11 -10.5 11 -29.5q0 -20 -10.5 -31
t-30.5 -11t-31 11t-11 31q0 19 11 29.5t31 10.5q19 0 30 -10.5zM729 6q0 -6 -3 -6l-79 1l-52 -1q-12 0 -15 3t-3 16v79q-62 -58 -120.5 -84t-125.5 -26q-63 0 -113.5 24t-79 69t-28.5 105v358q0 30 -6.5 44t-24 19.5t-54.5 5.5q-3 0 -3 6t3 6l49 -1q42 -2 68 -2t70 2l48 1
q2 0 2 -6t-2 -6q-37 0 -55 -6t-24.5 -20.5t-6.5 -44.5v-321q0 -100 49.5 -152.5t134.5 -52.5q57 0 108.5 23t110.5 76v427q0 30 -6.5 44.5t-24 20.5t-55.5 6q-2 0 -2 6t2 6l49 -1q42 -2 68 -2q27 0 69 2l49 1q3 0 3 -6t-3 -6q-37 0 -55 -5.5t-24.5 -19.5t-6.5 -44v-463
q0 -30 6.5 -44.5t24.5 -19.5t55 -5q3 0 3 -6z" />
    <glyph glyph-name="uni01D9" unicode="&#x1d9;" horiz-adv-x="763" 
d="M270 914q0 2 2.5 4t4.5 1l111 -59l111 59l2 1q2 0 3.5 -3.5t0.5 -4.5l-107 -97q-4 -4 -11 -4t-11 4l-105 97zM267 715q-11 11 -11 31q0 19 11 29.5t31 10.5t31 -10.5t11 -29.5q0 -20 -11 -31t-31 -11t-31 11zM503 775.5q11 -10.5 11 -29.5q0 -20 -10.5 -31t-30.5 -11
t-31 11t-11 31q0 19 11 29.5t31 10.5q19 0 30 -10.5zM729 6q0 -6 -3 -6l-79 1l-52 -1q-12 0 -15 3t-3 16v79q-62 -58 -120.5 -84t-125.5 -26q-63 0 -113.5 24t-79 69t-28.5 105v358q0 30 -6.5 44t-24 19.5t-54.5 5.5q-3 0 -3 6t3 6l49 -1q42 -2 68 -2t70 2l48 1q2 0 2 -6
t-2 -6q-37 0 -55 -6t-24.5 -20.5t-6.5 -44.5v-321q0 -100 49.5 -152.5t134.5 -52.5q57 0 108.5 23t110.5 76v427q0 30 -6.5 44.5t-24 20.5t-55.5 6q-2 0 -2 6t2 6l49 -1q42 -2 68 -2q27 0 69 2l49 1q3 0 3 -6t-3 -6q-37 0 -55 -5.5t-24.5 -19.5t-6.5 -44v-463
q0 -30 6.5 -44.5t24.5 -19.5t55 -5q3 0 3 -6z" />
    <glyph glyph-name="uni01DB" unicode="&#x1db;" horiz-adv-x="763" 
d="M287 905.5q15 8.5 34.5 15t23.5 3.5l48 -27q86 -48 125 -68q2 -2 2 -4q0 -3 -2 -5t-5 -1q-59 25 -113 43.5t-120 33.5q-8 1 7 9.5zM280.5 715q-10.5 11 -10.5 31q0 19 11 29.5t30 10.5q20 0 31.5 -10.5t11.5 -29.5q0 -20 -11.5 -31t-31.5 -11t-30.5 11zM517.5 775.5
q11.5 -10.5 11.5 -29.5q0 -20 -11.5 -31t-31.5 -11t-30.5 11t-10.5 31q0 19 11 29.5t30 10.5q20 0 31.5 -10.5zM729 6q0 -6 -3 -6l-79 1l-52 -1q-12 0 -15 3t-3 16v79q-62 -58 -120.5 -84t-125.5 -26q-63 0 -113.5 24t-79 69t-28.5 105v358q0 30 -6.5 44t-24 19.5t-54.5 5.5
q-3 0 -3 6t3 6l49 -1q42 -2 68 -2t70 2l48 1q2 0 2 -6t-2 -6q-37 0 -55 -6t-24.5 -20.5t-6.5 -44.5v-321q0 -100 49.5 -152.5t134.5 -52.5q57 0 108.5 23t110.5 76v427q0 30 -6.5 44.5t-24 20.5t-55.5 6q-2 0 -2 6t2 6l49 -1q42 -2 68 -2q27 0 69 2l49 1q3 0 3 -6t-3 -6
q-37 0 -55 -5.5t-24.5 -19.5t-6.5 -44v-463q0 -30 6.5 -44.5t24.5 -19.5t55 -5q3 0 3 -6z" />
    <glyph glyph-name="uni01D5" unicode="&#x1d5;" horiz-adv-x="763" 
d="M264 845.5q-2 4.5 -2 9.5t2 9.5t5 4.5h232q6 0 6 -14t-6 -14h-232q-3 0 -5 4.5zM267 715q-11 11 -11 31q0 19 11 29.5t31 10.5t31 -10.5t11 -29.5q0 -20 -11 -31t-31 -11t-31 11zM503 775.5q11 -10.5 11 -29.5q0 -20 -10.5 -31t-30.5 -11t-31 11t-11 31q0 19 11 29.5
t31 10.5q19 0 30 -10.5zM729 6q0 -6 -3 -6l-79 1l-52 -1q-12 0 -15 3t-3 16v79q-62 -58 -120.5 -84t-125.5 -26q-63 0 -113.5 24t-79 69t-28.5 105v358q0 30 -6.5 44t-24 19.5t-54.5 5.5q-3 0 -3 6t3 6l49 -1q42 -2 68 -2t70 2l48 1q2 0 2 -6t-2 -6q-37 0 -55 -6
t-24.5 -20.5t-6.5 -44.5v-321q0 -100 49.5 -152.5t134.5 -52.5q57 0 108.5 23t110.5 76v427q0 30 -6.5 44.5t-24 20.5t-55.5 6q-2 0 -2 6t2 6l49 -1q42 -2 68 -2q27 0 69 2l49 1q3 0 3 -6t-3 -6q-37 0 -55 -5.5t-24.5 -19.5t-6.5 -44v-463q0 -30 6.5 -44.5t24.5 -19.5t55 -5
q3 0 3 -6z" />
    <glyph glyph-name="uni1EE4" unicode="&#x1ee4;" horiz-adv-x="763" 
d="M729 6q0 -6 -3 -6l-79 1l-52 -1q-12 0 -15 3t-3 16v79q-62 -58 -120.5 -84t-125.5 -26q-63 0 -113.5 24t-79 69t-28.5 105v358q0 30 -6.5 44t-24 19.5t-54.5 5.5q-3 0 -3 6t3 6l49 -1q42 -2 68 -2t70 2l48 1q2 0 2 -6t-2 -6q-37 0 -55 -6t-24.5 -20.5t-6.5 -44.5v-321
q0 -100 49.5 -152.5t134.5 -52.5q57 0 108.5 23t110.5 76v427q0 30 -6.5 44.5t-24 20.5t-55.5 6q-2 0 -2 6t2 6l49 -1q42 -2 68 -2q27 0 69 2l49 1q3 0 3 -6t-3 -6q-37 0 -55 -5.5t-24.5 -19.5t-6.5 -44v-463q0 -30 6.5 -44.5t24.5 -19.5t55 -5q3 0 3 -6zM413.5 -116.5
q11.5 -11.5 11.5 -30.5q0 -20 -11.5 -32t-31.5 -12q-21 0 -32.5 12t-11.5 32q0 19 11.5 30.5t32.5 11.5q20 0 31.5 -11.5z" />
    <glyph glyph-name="Ugrave" unicode="&#xd9;" horiz-adv-x="763" 
d="M268.5 765q14.5 8 34 14.5t23.5 4.5l37 -23q7 -5 45.5 -28.5t79.5 -43.5q3 -1 3 -4t-2 -5.5t-5 -1.5q-103 47 -223 78q-7 1 7.5 9zM729 6q0 -6 -3 -6l-79 1l-52 -1q-12 0 -15 3t-3 16v79q-62 -58 -120.5 -84t-125.5 -26q-63 0 -113.5 24t-79 69t-28.5 105v358
q0 30 -6.5 44t-24 19.5t-54.5 5.5q-3 0 -3 6t3 6l49 -1q42 -2 68 -2t70 2l48 1q2 0 2 -6t-2 -6q-37 0 -55 -6t-24.5 -20.5t-6.5 -44.5v-321q0 -100 49.5 -152.5t134.5 -52.5q57 0 108.5 23t110.5 76v427q0 30 -6.5 44.5t-24 20.5t-55.5 6q-2 0 -2 6t2 6l49 -1q42 -2 68 -2
q27 0 69 2l49 1q3 0 3 -6t-3 -6q-37 0 -55 -5.5t-24.5 -19.5t-6.5 -44v-463q0 -30 6.5 -44.5t24.5 -19.5t55 -5q3 0 3 -6z" />
    <glyph glyph-name="uni1EE6" unicode="&#x1ee6;" horiz-adv-x="763" 
d="M344 813q-4 0 -6.5 3.5t0.5 4.5q33 21 65 21q30 0 46.5 -14.5t16.5 -36.5q0 -19 -10.5 -34t-30.5 -35q-18 -18 -27.5 -32t-9.5 -29q0 -7 1 -10q0 -2 -5.5 -2t-6.5 2q-3 11 -3 21q0 15 5.5 28.5t16.5 29.5q10 18 14.5 28t4.5 22q0 19 -12 29.5t-30 10.5q-17 0 -28 -7h-1z
M729 6q0 -6 -3 -6l-79 1l-52 -1q-12 0 -15 3t-3 16v79q-62 -58 -120.5 -84t-125.5 -26q-63 0 -113.5 24t-79 69t-28.5 105v358q0 30 -6.5 44t-24 19.5t-54.5 5.5q-3 0 -3 6t3 6l49 -1q42 -2 68 -2t70 2l48 1q2 0 2 -6t-2 -6q-37 0 -55 -6t-24.5 -20.5t-6.5 -44.5v-321
q0 -100 49.5 -152.5t134.5 -52.5q57 0 108.5 23t110.5 76v427q0 30 -6.5 44.5t-24 20.5t-55.5 6q-2 0 -2 6t2 6l49 -1q42 -2 68 -2q27 0 69 2l49 1q3 0 3 -6t-3 -6q-37 0 -55 -5.5t-24.5 -19.5t-6.5 -44v-463q0 -30 6.5 -44.5t24.5 -19.5t55 -5q3 0 3 -6z" />
    <glyph glyph-name="Uhorn" unicode="&#x1af;" horiz-adv-x="763" 
d="M646 592.5q-6 -13.5 -6 -48.5v-463q0 -30 6.5 -44.5t24 -19.5t55.5 -5q3 0 3 -6t-3 -6l-79 1l-52 -1q-12 0 -15.5 3t-3.5 16v78q-63 -57 -120.5 -83t-124.5 -26q-63 0 -113.5 24t-79 69t-28.5 105v358q0 30 -6.5 44t-24 19.5t-54.5 5.5q-3 0 -3 6t3 6l49 -1q42 -2 68 -2
q28 0 70 2l48 1q2 0 2 -6t-2 -6q-37 0 -55 -6t-24.5 -20.5t-6.5 -44.5v-321q0 -100 49.5 -152.5t134.5 -52.5q57 0 108 22.5t110 75.5v428q0 30 -6 44.5t-23.5 20.5t-55.5 6q-3 0 -3 6t3 6l49 -1q42 -2 68 -2q58 0 90.5 13t32.5 36q0 8 -8 20q-11 13 -11 27q0 17 12.5 27.5
t29.5 10.5q18 0 28 -13.5t10 -33.5q0 -30 -20 -50t-42 -29t-54 -18q-24 -6 -30 -19.5z" />
    <glyph glyph-name="uni1EE8" unicode="&#x1ee8;" horiz-adv-x="763" 
d="M284 678q-4 0 -6 4.5t2 6.5q35 18 69.5 38.5t42.5 25.5q17 11 51 31q4 2 23 -4.5t33.5 -14.5t7.5 -9q-121 -31 -222 -78h-1zM646 592q-6 -13 -6 -48v-463q0 -30 6.5 -44.5t24.5 -19.5t55 -5q3 0 3 -6t-3 -6l-79 1l-52 -1q-12 0 -15 3t-3 16v79q-62 -58 -120.5 -84
t-125.5 -26q-63 0 -113.5 24t-79 69t-28.5 105v358q0 30 -6.5 44t-24 19.5t-54.5 5.5q-3 0 -3 6t3 6l49 -1q42 -2 68 -2t70 2l48 1q2 0 2 -6t-2 -6q-37 0 -55 -6t-24.5 -20.5t-6.5 -44.5v-321q0 -100 49.5 -152.5t134.5 -52.5q57 0 108.5 23t110.5 76v427q0 30 -6.5 44.5
t-24 20.5t-55.5 6q-2 0 -2 6t2 6l49 -1q42 -2 68 -2q58 0 90.5 13t32.5 36q0 9 -9 20q-10 14 -10 27q0 18 12.5 28t28.5 10q19 0 29 -13.5t10 -33.5q0 -30 -20 -50t-42 -29t-54 -18q-24 -7 -30 -20z" />
    <glyph glyph-name="uni1EF0" unicode="&#x1ef0;" horiz-adv-x="763" 
d="M646 592q-6 -13 -6 -48v-463q0 -30 6.5 -44.5t24.5 -19.5t55 -5q3 0 3 -6t-3 -6l-79 1l-52 -1q-12 0 -15 3t-3 16v79q-62 -58 -120.5 -84t-125.5 -26q-63 0 -113.5 24t-79 69t-28.5 105v358q0 30 -6.5 44t-24 19.5t-54.5 5.5q-3 0 -3 6t3 6l49 -1q42 -2 68 -2t70 2l48 1
q2 0 2 -6t-2 -6q-37 0 -55 -6t-24.5 -20.5t-6.5 -44.5v-321q0 -100 49.5 -152.5t134.5 -52.5q57 0 108.5 23t110.5 76v427q0 30 -6.5 44.5t-24 20.5t-55.5 6q-2 0 -2 6t2 6l49 -1q42 -2 68 -2q58 0 90.5 13t32.5 36q0 9 -9 20q-10 14 -10 27q0 18 12.5 28t28.5 10
q19 0 29 -13.5t10 -33.5q0 -30 -20 -50t-42 -29t-54 -18q-24 -7 -30 -20zM413.5 -116.5q11.5 -11.5 11.5 -30.5q0 -20 -11.5 -32t-31.5 -12q-21 0 -32.5 12t-11.5 32q0 19 11.5 30.5t32.5 11.5q20 0 31.5 -11.5z" />
    <glyph glyph-name="uni1EEA" unicode="&#x1eea;" horiz-adv-x="763" 
d="M264.5 765q14.5 8 34 14.5t23.5 4.5l43 -26q78 -48 120 -69q2 -2 2 -4q0 -3 -2 -5.5t-5 -1.5q-104 48 -222 78q-8 1 6.5 9zM646 592q-6 -13 -6 -48v-463q0 -30 6.5 -44.5t24.5 -19.5t55 -5q3 0 3 -6t-3 -6l-79 1l-52 -1q-12 0 -15 3t-3 16v79q-62 -58 -120.5 -84
t-125.5 -26q-63 0 -113.5 24t-79 69t-28.5 105v358q0 30 -6.5 44t-24 19.5t-54.5 5.5q-3 0 -3 6t3 6l49 -1q42 -2 68 -2t70 2l48 1q2 0 2 -6t-2 -6q-37 0 -55 -6t-24.5 -20.5t-6.5 -44.5v-321q0 -100 49.5 -152.5t134.5 -52.5q57 0 108.5 23t110.5 76v427q0 30 -6.5 44.5
t-24 20.5t-55.5 6q-2 0 -2 6t2 6l49 -1q42 -2 68 -2q58 0 90.5 13t32.5 36q0 9 -9 20q-10 14 -10 27q0 18 12.5 28t28.5 10q19 0 29 -13.5t10 -33.5q0 -30 -20 -50t-42 -29t-54 -18q-24 -7 -30 -20z" />
    <glyph glyph-name="uni1EEC" unicode="&#x1eec;" horiz-adv-x="763" 
d="M340 818q-3 0 -5.5 4t0.5 5q31 21 64 21q31 0 48 -14.5t17 -37.5q0 -19 -11 -34t-31 -35q-19 -19 -28.5 -32.5t-9.5 -28.5q0 -6 1 -9q1 -2 -4.5 -2t-6.5 2q-3 12 -3 22q0 15 5 27.5t16 30.5q19 29 19 49q0 19 -11.5 29.5t-29.5 10.5q-14 0 -28 -7zM646 592q-6 -13 -6 -48
v-463q0 -30 6.5 -44.5t24.5 -19.5t55 -5q3 0 3 -6t-3 -6l-79 1l-52 -1q-12 0 -15 3t-3 16v79q-62 -58 -120.5 -84t-125.5 -26q-63 0 -113.5 24t-79 69t-28.5 105v358q0 30 -6.5 44t-24 19.5t-54.5 5.5q-3 0 -3 6t3 6l49 -1q42 -2 68 -2t70 2l48 1q2 0 2 -6t-2 -6
q-37 0 -55 -6t-24.5 -20.5t-6.5 -44.5v-321q0 -100 49.5 -152.5t134.5 -52.5q57 0 108.5 23t110.5 76v427q0 30 -6.5 44.5t-24 20.5t-55.5 6q-2 0 -2 6t2 6l49 -1q42 -2 68 -2q58 0 90.5 13t32.5 36q0 9 -9 20q-10 14 -10 27q0 18 12.5 28t28.5 10q19 0 29 -13.5t10 -33.5
q0 -30 -20 -50t-42 -29t-54 -18q-24 -7 -30 -20z" />
    <glyph glyph-name="uni1EEE" unicode="&#x1eee;" horiz-adv-x="763" 
d="M254 718q-2 0 -4.5 2.5t-1.5 4.5q48 62 86 62q14 0 50 -10q46 -14 75 -14q16 0 26.5 6.5t22.5 19.5q0 1 2 1t4 -3t1 -5q-26 -36 -43 -49t-36 -13q-21 0 -61 12q-4 1 -25.5 7t-44.5 6q-16 0 -25 -5.5t-16 -12.5l-9 -9h-1zM646 592q-6 -13 -6 -48v-463q0 -30 6.5 -44.5
t24.5 -19.5t55 -5q3 0 3 -6t-3 -6l-79 1l-52 -1q-12 0 -15 3t-3 16v79q-62 -58 -120.5 -84t-125.5 -26q-63 0 -113.5 24t-79 69t-28.5 105v358q0 30 -6.5 44t-24 19.5t-54.5 5.5q-3 0 -3 6t3 6l49 -1q42 -2 68 -2t70 2l48 1q2 0 2 -6t-2 -6q-37 0 -55 -6t-24.5 -20.5
t-6.5 -44.5v-321q0 -100 49.5 -152.5t134.5 -52.5q57 0 108.5 23t110.5 76v427q0 30 -6.5 44.5t-24 20.5t-55.5 6q-2 0 -2 6t2 6l49 -1q42 -2 68 -2q58 0 90.5 13t32.5 36q0 9 -9 20q-10 14 -10 27q0 18 12.5 28t28.5 10q19 0 29 -13.5t10 -33.5q0 -30 -20 -50t-42 -29
t-54 -18q-24 -7 -30 -20z" />
    <glyph glyph-name="Uhungarumlaut" unicode="&#x170;" horiz-adv-x="763" 
d="M279 675q-3 0 -4 5t1 7q40 36 90 94q3 4 22.5 -0.5t34 -12t7.5 -10.5q-81 -34 -149 -82zM458 745q27 30 32 36q3 4 22 -0.5t33 -12t7 -10.5q-71 -29 -147 -82l-2 -1q-3 0 -4 5t1 7q31 28 58 58zM729 6q0 -6 -3 -6l-79 1l-52 -1q-12 0 -15 3t-3 16v79q-62 -58 -120.5 -84
t-125.5 -26q-63 0 -113.5 24t-79 69t-28.5 105v358q0 30 -6.5 44t-24 19.5t-54.5 5.5q-3 0 -3 6t3 6l49 -1q42 -2 68 -2t70 2l48 1q2 0 2 -6t-2 -6q-37 0 -55 -6t-24.5 -20.5t-6.5 -44.5v-321q0 -100 49.5 -152.5t134.5 -52.5q57 0 108.5 23t110.5 76v427q0 30 -6.5 44.5
t-24 20.5t-55.5 6q-2 0 -2 6t2 6l49 -1q42 -2 68 -2q27 0 69 2l49 1q3 0 3 -6t-3 -6q-37 0 -55 -5.5t-24.5 -19.5t-6.5 -44v-463q0 -30 6.5 -44.5t24.5 -19.5t55 -5q3 0 3 -6z" />
    <glyph glyph-name="Umacron" unicode="&#x16a;" horiz-adv-x="763" 
d="M253 736q0 14 6 14h252q6 0 6 -14t-6 -14h-252q-6 0 -6 14zM729 6q0 -6 -3 -6l-79 1l-52 -1q-12 0 -15 3t-3 16v79q-62 -58 -120.5 -84t-125.5 -26q-63 0 -113.5 24t-79 69t-28.5 105v358q0 30 -6.5 44t-24 19.5t-54.5 5.5q-3 0 -3 6t3 6l49 -1q42 -2 68 -2t70 2l48 1
q2 0 2 -6t-2 -6q-37 0 -55 -6t-24.5 -20.5t-6.5 -44.5v-321q0 -100 49.5 -152.5t134.5 -52.5q57 0 108.5 23t110.5 76v427q0 30 -6.5 44.5t-24 20.5t-55.5 6q-2 0 -2 6t2 6l49 -1q42 -2 68 -2q27 0 69 2l49 1q3 0 3 -6t-3 -6q-37 0 -55 -5.5t-24.5 -19.5t-6.5 -44v-463
q0 -30 6.5 -44.5t24.5 -19.5t55 -5q3 0 3 -6z" />
    <glyph glyph-name="Uogonek" unicode="&#x172;" horiz-adv-x="758" 
d="M724 6q0 -6 -2 -6l-99 1q-50 0 -81.5 -38t-31.5 -101q0 -52 25 -79.5t71 -27.5q22 0 35.5 6t28.5 17h2q3 0 5.5 -3t-0.5 -5q-51 -45 -108 -45t-89.5 27.5t-32.5 75.5q0 43 17.5 71t51.5 62q29 28 42.5 49t13.5 49v38q-63 -58 -120.5 -83.5t-123.5 -25.5q-63 0 -112.5 24
t-77.5 69t-28 105v358q0 30 -6.5 44t-24 19.5t-54.5 5.5q-3 0 -3 6t3 6l49 -1q42 -2 68 -2q28 0 70 2l48 1q2 0 2 -6t-2 -6q-37 0 -55 -6t-24.5 -20.5t-6.5 -44.5v-321q0 -100 48.5 -152.5t131.5 -52.5q56 0 107.5 22.5t110.5 75.5v428q0 30 -6.5 44.5t-24 20.5t-55.5 6
q-2 0 -2 6t2 6l49 -1q42 -2 68 -2q25 0 69 2l50 1q2 0 2 -6t-2 -6q-38 0 -56 -5.5t-24.5 -19.5t-6.5 -44v-463q0 -30 6.5 -44.5t24.5 -19.5t56 -5q2 0 2 -6z" />
    <glyph glyph-name="Uring" unicode="&#x16e;" horiz-adv-x="763" 
d="M311.5 700.5q-23.5 23.5 -23.5 56.5q0 36 30 56.5t67 20.5q36 0 62 -23t26 -57q0 -35 -30 -56t-68 -21q-40 0 -63.5 23.5zM340 811.5q-8 -11.5 -8 -34.5q0 -34 16 -61.5t43 -27.5q19 0 27.5 11.5t8.5 37.5q0 36 -18 61t-44 25q-17 0 -25 -11.5zM729 6q0 -6 -3 -6l-79 1
l-52 -1q-12 0 -15 3t-3 16v79q-62 -58 -120.5 -84t-125.5 -26q-63 0 -113.5 24t-79 69t-28.5 105v358q0 30 -6.5 44t-24 19.5t-54.5 5.5q-3 0 -3 6t3 6l49 -1q42 -2 68 -2t70 2l48 1q2 0 2 -6t-2 -6q-37 0 -55 -6t-24.5 -20.5t-6.5 -44.5v-321q0 -100 49.5 -152.5
t134.5 -52.5q57 0 108.5 23t110.5 76v427q0 30 -6.5 44.5t-24 20.5t-55.5 6q-2 0 -2 6t2 6l49 -1q42 -2 68 -2q27 0 69 2l49 1q3 0 3 -6t-3 -6q-37 0 -55 -5.5t-24.5 -19.5t-6.5 -44v-463q0 -30 6.5 -44.5t24.5 -19.5t55 -5q3 0 3 -6z" />
    <glyph glyph-name="Utilde" unicode="&#x168;" horiz-adv-x="763" 
d="M259 697q-2 0 -4.5 2.5t-1.5 4.5q48 62 86 62q13 0 49 -10q46 -14 76 -14q16 0 26.5 6.5t22.5 19.5q0 1 2 1t4 -3t1 -5q-26 -36 -43.5 -49t-36.5 -13q-14 0 -29.5 3.5t-30.5 8.5q-4 1 -25.5 7t-45.5 6q-15 0 -24 -5.5t-16 -12.5l-9 -9h-1zM729 6q0 -6 -3 -6l-79 1l-52 -1
q-12 0 -15 3t-3 16v79q-62 -58 -120.5 -84t-125.5 -26q-63 0 -113.5 24t-79 69t-28.5 105v358q0 30 -6.5 44t-24 19.5t-54.5 5.5q-3 0 -3 6t3 6l49 -1q42 -2 68 -2t70 2l48 1q2 0 2 -6t-2 -6q-37 0 -55 -6t-24.5 -20.5t-6.5 -44.5v-321q0 -100 49.5 -152.5t134.5 -52.5
q57 0 108.5 23t110.5 76v427q0 30 -6.5 44.5t-24 20.5t-55.5 6q-2 0 -2 6t2 6l49 -1q42 -2 68 -2q27 0 69 2l49 1q3 0 3 -6t-3 -6q-37 0 -55 -5.5t-24.5 -19.5t-6.5 -44v-463q0 -30 6.5 -44.5t24.5 -19.5t55 -5q3 0 3 -6z" />
    <glyph glyph-name="V" unicode="V" horiz-adv-x="665" 
d="M672 619q0 -6 -3 -6q-34 0 -59 -18t-42 -61l-213 -533q-1 -4 -11 -4t-11 4l-249 541q-17 39 -36 55t-49 16q-2 0 -2 6t2 6l37 -1q28 -2 46 -2q40 0 86 2l41 1q3 0 3 -6t-3 -6q-62 0 -62 -35q0 -12 9 -32l209 -458l180 451q8 21 8 33q0 21 -19 31t-59 10q-3 0 -3 6t3 6
l43 -1q34 -2 62 -2q21 0 47 2l42 1q3 0 3 -6z" />
    <glyph glyph-name="W" unicode="W" horiz-adv-x="920" 
d="M926 619q0 -6 -2 -6q-79 0 -102 -79l-155 -533q0 -4 -11 -4q-10 0 -11 4l-191 518l-156 -518q0 -4 -11 -4q-10 0 -11 4l-192 541q-14 40 -33.5 55.5t-51.5 15.5q-2 0 -2 6t2 6l37 -1q28 -2 46 -2q52 0 102 2q15 1 40 1q3 0 3 -6t-3 -6q-77 0 -77 -43q0 -9 5 -24l155 -437
l154 516q2 3 11 3q11 0 11 -3l191 -518l125 430q4 12 4 24q0 52 -94 52q-3 0 -3 6t3 6l51 -1q42 -2 75 -2q20 0 46 2l43 1q2 0 2 -6z" />
    <glyph glyph-name="Wacute" unicode="&#x1e82;" horiz-adv-x="920" 
d="M373 678q-4 0 -5.5 4.5t1.5 6.5q35 18 69.5 38.5t42.5 25.5q17 11 51 31q4 2 23.5 -4.5t34 -14.5t6.5 -9q-118 -30 -222 -78h-1zM926 619q0 -6 -2 -6q-79 0 -102 -80l-155 -532q-1 -4 -11 -4q-11 0 -12 4l-191 520l-155 -520q0 -4 -11 -4q-10 0 -11 4l-192 541
q-14 40 -33.5 55.5t-51.5 15.5q-3 0 -3 6t3 6l38 -1q28 -2 45 -2q53 0 101 2q17 1 42 1q2 0 2 -6t-2 -6q-40 0 -59 -10t-19 -32q0 -10 5 -25l155 -437l154 516q2 3 11 3q11 0 11 -3l191 -518l125 430q4 12 4 24q0 52 -94 52q-3 0 -3 6t3 6l50 -1q44 -2 76 -2q21 0 47 2l42 1
q2 0 2 -6z" />
    <glyph glyph-name="Wcircumflex" unicode="&#x174;" horiz-adv-x="920" 
d="M357 650.5q-3 3.5 -1 4.5l103 97q5 5 12 5q6 0 11 -5l103 -97q1 0 1 -2t-3 -4t-4 -1l-108 57l-109 -57q-2 -1 -5 2.5zM926 619q0 -6 -2 -6q-79 0 -102 -80l-155 -532q-1 -4 -11 -4q-11 0 -12 4l-191 520l-155 -520q0 -4 -11 -4q-10 0 -11 4l-192 541q-14 40 -33.5 55.5
t-51.5 15.5q-3 0 -3 6t3 6l38 -1q28 -2 45 -2q53 0 101 2q17 1 42 1q2 0 2 -6t-2 -6q-40 0 -59 -10t-19 -32q0 -10 5 -25l155 -437l154 516q2 3 11 3q11 0 11 -3l191 -518l125 430q4 12 4 24q0 52 -94 52q-3 0 -3 6t3 6l50 -1q44 -2 76 -2q21 0 47 2l42 1q2 0 2 -6z" />
    <glyph glyph-name="Wdieresis" unicode="&#x1e84;" horiz-adv-x="920" 
d="M352.5 727q-11.5 11 -11.5 31q0 18 11.5 29t30.5 11q20 0 31 -11t11 -29q0 -20 -11 -31t-31 -11q-19 0 -30.5 11zM528 727q-11 11 -11 31q0 18 11 29t31 11q19 0 30 -11t11 -29q0 -20 -10.5 -31t-30.5 -11t-31 11zM926 619q0 -6 -2 -6q-79 0 -102 -80l-155 -532
q-1 -4 -11 -4q-11 0 -12 4l-191 520l-155 -520q0 -4 -11 -4q-10 0 -11 4l-192 541q-14 40 -33.5 55.5t-51.5 15.5q-3 0 -3 6t3 6l38 -1q28 -2 45 -2q53 0 101 2q17 1 42 1q2 0 2 -6t-2 -6q-40 0 -59 -10t-19 -32q0 -10 5 -25l155 -437l154 516q2 3 11 3q11 0 11 -3l191 -518
l125 430q4 12 4 24q0 52 -94 52q-3 0 -3 6t3 6l50 -1q44 -2 76 -2q21 0 47 2l42 1q2 0 2 -6z" />
    <glyph glyph-name="Wgrave" unicode="&#x1e80;" horiz-adv-x="920" 
d="M354.5 765q14.5 8 33.5 14.5t23 4.5l43 -26q78 -48 120 -69q2 -1 2 -4t-2 -5.5t-5 -1.5q-101 47 -222 78q-7 1 7.5 9zM926 619q0 -6 -2 -6q-79 0 -102 -80l-155 -532q-1 -4 -11 -4q-11 0 -12 4l-191 520l-155 -520q0 -4 -11 -4q-10 0 -11 4l-192 541q-14 40 -33.5 55.5
t-51.5 15.5q-3 0 -3 6t3 6l38 -1q28 -2 45 -2q53 0 101 2q17 1 42 1q2 0 2 -6t-2 -6q-40 0 -59 -10t-19 -32q0 -10 5 -25l155 -437l154 516q2 3 11 3q11 0 11 -3l191 -518l125 430q4 12 4 24q0 52 -94 52q-3 0 -3 6t3 6l50 -1q44 -2 76 -2q21 0 47 2l42 1q2 0 2 -6z" />
    <glyph glyph-name="X" unicode="X" horiz-adv-x="651" 
d="M638 6q0 -6 -3 -6q-26 0 -41 1l-55 1l-77 -1q-18 -1 -49 -1q-3 0 -3 6t3 6q26 0 38.5 4t12.5 14q0 8 -9 21l-152 230l-127 -179q-24 -33 -24 -55q0 -35 59 -35q3 0 3 -6t-3 -6q-30 0 -46 1l-69 1l-41 -1q-12 -1 -38 -1q-3 0 -3 6t3 6q69 0 136 91l141 192l-161 245
q-27 40 -52.5 56.5t-59.5 16.5q-3 0 -3 6t3 6l38 -1q26 -2 38 -2q32 0 82 2l53 1q2 0 2 -6t-2 -6q-27 0 -39.5 -4.5t-12.5 -14.5q0 -7 9 -21l148 -224l117 167q27 39 27 62q0 35 -56 35q-3 0 -3 6t3 6l45 -1q38 -2 69 -2q17 0 43 2l37 1q2 0 2 -6t-2 -6q-69 0 -142 -99
l-131 -179l167 -252q25 -39 53 -55t69 -16q3 0 3 -6z" />
    <glyph glyph-name="Y" unicode="Y" horiz-adv-x="609" 
d="M616 619q0 -6 -3 -6q-35 0 -72 -26.5t-66 -72.5l-134 -207v-226q0 -31 6 -45t23.5 -19t55.5 -5q3 0 3 -6t-3 -6q-31 0 -48 1l-70 1l-68 -1q-18 -1 -50 -1q-3 0 -3 6t3 6q38 0 55.5 5t24 19.5t6.5 44.5v211l-166 243q-28 44 -53 61t-58 17q-2 0 -2 6t2 6q12 0 36 -2l35 -1
q33 0 85 2l55 1q2 0 2 -6t-2 -6q-52 0 -52 -21q0 -11 10 -24l161 -237l121 187q23 37 23 59q0 36 -54 36q-2 0 -2 6t2 6l47 -1q38 -2 70 -2q17 0 41 2l36 1q3 0 3 -6z" />
    <glyph glyph-name="Yacute" unicode="&#xdd;" horiz-adv-x="609" 
d="M219 678q-4 0 -5.5 5t2.5 6q35 17 70 38.5t47 28.5q15 10 45 28q4 2 23.5 -4.5t34 -14.5t7.5 -9q-120 -31 -223 -78h-1zM615 619q0 -6 -2 -6q-35 0 -72.5 -27t-65.5 -73l-135 -206v-226q0 -30 6 -44.5t24 -19.5t56 -5q2 0 2 -6t-2 -6q-31 0 -48 1l-70 1l-69 -1
q-18 -1 -50 -1q-2 0 -2 6t2 6q38 0 56 5t24.5 19.5t6.5 44.5v211l-166 243q-29 44 -53.5 61t-57.5 17q-3 0 -3 6t3 6q12 0 36 -2l35 -1q33 0 85 2l54 1q3 0 3 -6t-3 -6q-52 0 -52 -21q0 -9 11 -25l162 -236l120 187q23 37 23 59q0 36 -54 36q-3 0 -3 6t3 6l47 -1
q38 -2 70 -2q18 0 40 2l37 1q2 0 2 -6z" />
    <glyph glyph-name="Ycircumflex" unicode="&#x176;" horiz-adv-x="609" 
d="M205 687.5q-3 3.5 -1 4.5l103 97q5 5 11 5t11 -5l103 -97q1 0 1 -2t-2.5 -4t-4.5 -1l-107 58l-109 -58q-2 -1 -5 2.5zM615 619q0 -6 -2 -6q-35 0 -72.5 -27t-65.5 -73l-135 -206v-226q0 -30 6 -44.5t24 -19.5t56 -5q2 0 2 -6t-2 -6q-31 0 -48 1l-70 1l-69 -1
q-18 -1 -50 -1q-2 0 -2 6t2 6q38 0 56 5t24.5 19.5t6.5 44.5v211l-166 243q-29 44 -53.5 61t-57.5 17q-3 0 -3 6t3 6q12 0 36 -2l35 -1q33 0 85 2l54 1q3 0 3 -6t-3 -6q-52 0 -52 -21q0 -9 11 -25l162 -236l120 187q23 37 23 59q0 36 -54 36q-3 0 -3 6t3 6l47 -1
q38 -2 70 -2q18 0 40 2l37 1q2 0 2 -6z" />
    <glyph glyph-name="Ydieresis" unicode="&#x178;" horiz-adv-x="609" 
d="M199 727q-11 11 -11 31q0 18 11.5 29t30.5 11q20 0 31 -11t11 -29q0 -20 -11 -31t-31 -11t-31 11zM374 727q-11 11 -11 31q0 18 11 29t31 11q19 0 30 -11t11 -29q0 -20 -10.5 -31t-30.5 -11t-31 11zM615 619q0 -6 -2 -6q-35 0 -72.5 -27t-65.5 -73l-135 -206v-226
q0 -30 6 -44.5t24 -19.5t56 -5q2 0 2 -6t-2 -6q-31 0 -48 1l-70 1l-69 -1q-18 -1 -50 -1q-2 0 -2 6t2 6q38 0 56 5t24.5 19.5t6.5 44.5v211l-166 243q-29 44 -53.5 61t-57.5 17q-3 0 -3 6t3 6q12 0 36 -2l35 -1q33 0 85 2l54 1q3 0 3 -6t-3 -6q-52 0 -52 -21q0 -9 11 -25
l162 -236l120 187q23 37 23 59q0 36 -54 36q-3 0 -3 6t3 6l47 -1q38 -2 70 -2q18 0 40 2l37 1q2 0 2 -6z" />
    <glyph glyph-name="uni1E8E" unicode="&#x1e8e;" horiz-adv-x="609" 
d="M285 724.5q-12 11.5 -12 32.5q0 19 12.5 30t32.5 11t31 -11t11 -30q0 -21 -11 -32.5t-31 -11.5q-21 0 -33 11.5zM615 619q0 -6 -2 -6q-35 0 -72.5 -27t-65.5 -73l-135 -206v-226q0 -30 6 -44.5t24 -19.5t56 -5q2 0 2 -6t-2 -6q-31 0 -48 1l-70 1l-69 -1q-18 -1 -50 -1
q-2 0 -2 6t2 6q38 0 56 5t24.5 19.5t6.5 44.5v211l-166 243q-29 44 -53.5 61t-57.5 17q-3 0 -3 6t3 6q12 0 36 -2l35 -1q33 0 85 2l54 1q3 0 3 -6t-3 -6q-52 0 -52 -21q0 -9 11 -25l162 -236l120 187q23 37 23 59q0 36 -54 36q-3 0 -3 6t3 6l47 -1q38 -2 70 -2q18 0 40 2
l37 1q2 0 2 -6z" />
    <glyph glyph-name="uni1EF4" unicode="&#x1ef4;" horiz-adv-x="609" 
d="M615 619q0 -6 -2 -6q-35 0 -72.5 -27t-65.5 -73l-135 -206v-226q0 -30 6 -44.5t24 -19.5t56 -5q2 0 2 -6t-2 -6q-31 0 -48 1l-70 1l-69 -1q-18 -1 -50 -1q-2 0 -2 6t2 6q38 0 56 5t24.5 19.5t6.5 44.5v211l-166 243q-29 44 -53.5 61t-57.5 17q-3 0 -3 6t3 6q12 0 36 -2
l35 -1q33 0 85 2l54 1q3 0 3 -6t-3 -6q-52 0 -52 -21q0 -9 11 -25l162 -236l120 187q23 37 23 59q0 36 -54 36q-3 0 -3 6t3 6l47 -1q38 -2 70 -2q18 0 40 2l37 1q2 0 2 -6zM337.5 -116.5q11.5 -11.5 11.5 -30.5q0 -20 -11.5 -32t-31.5 -12q-21 0 -32.5 12t-11.5 32
q0 19 11.5 30.5t32.5 11.5q20 0 31.5 -11.5z" />
    <glyph glyph-name="Ygrave" unicode="&#x1ef2;" horiz-adv-x="609" 
d="M200.5 765q14.5 8 34 14.5t23.5 4.5l37 -23q7 -5 45.5 -28.5t79.5 -43.5q3 -1 3 -4t-2 -5.5t-5 -1.5q-103 47 -223 78q-7 1 7.5 9zM615 619q0 -6 -2 -6q-35 0 -72.5 -27t-65.5 -73l-135 -206v-226q0 -30 6 -44.5t24 -19.5t56 -5q2 0 2 -6t-2 -6q-31 0 -48 1l-70 1l-69 -1
q-18 -1 -50 -1q-2 0 -2 6t2 6q38 0 56 5t24.5 19.5t6.5 44.5v211l-166 243q-29 44 -53.5 61t-57.5 17q-3 0 -3 6t3 6q12 0 36 -2l35 -1q33 0 85 2l54 1q3 0 3 -6t-3 -6q-52 0 -52 -21q0 -9 11 -25l162 -236l120 187q23 37 23 59q0 36 -54 36q-3 0 -3 6t3 6l47 -1
q38 -2 70 -2q18 0 40 2l37 1q2 0 2 -6z" />
    <glyph glyph-name="uni1EF6" unicode="&#x1ef6;" horiz-adv-x="609" 
d="M276 813q-4 0 -6.5 3.5t0.5 4.5q33 21 65 21q30 0 46.5 -14.5t16.5 -36.5q0 -19 -10.5 -34t-30.5 -35q-18 -18 -27.5 -32t-9.5 -29q0 -7 1 -10q0 -2 -5.5 -2t-6.5 2q-3 11 -3 21q0 15 5.5 28.5t16.5 29.5q10 18 14.5 28t4.5 22q0 19 -12 29.5t-30 10.5q-17 0 -28 -7h-1z
M615 619q0 -6 -2 -6q-35 0 -72.5 -27t-65.5 -73l-135 -206v-226q0 -30 6 -44.5t24 -19.5t56 -5q2 0 2 -6t-2 -6q-31 0 -48 1l-70 1l-69 -1q-18 -1 -50 -1q-2 0 -2 6t2 6q38 0 56 5t24.5 19.5t6.5 44.5v211l-166 243q-29 44 -53.5 61t-57.5 17q-3 0 -3 6t3 6q12 0 36 -2
l35 -1q33 0 85 2l54 1q3 0 3 -6t-3 -6q-52 0 -52 -21q0 -9 11 -25l162 -236l120 187q23 37 23 59q0 36 -54 36q-3 0 -3 6t3 6l47 -1q38 -2 70 -2q18 0 40 2l37 1q2 0 2 -6z" />
    <glyph glyph-name="uni0232" unicode="&#x232;" horiz-adv-x="609" 
d="M185 736q0 14 6 14h252q6 0 6 -14t-6 -14h-252q-6 0 -6 14zM615 619q0 -6 -2 -6q-35 0 -72.5 -27t-65.5 -73l-135 -206v-226q0 -30 6 -44.5t24 -19.5t56 -5q2 0 2 -6t-2 -6q-31 0 -48 1l-70 1l-69 -1q-18 -1 -50 -1q-2 0 -2 6t2 6q38 0 56 5t24.5 19.5t6.5 44.5v211
l-166 243q-29 44 -53.5 61t-57.5 17q-3 0 -3 6t3 6q12 0 36 -2l35 -1q33 0 85 2l54 1q3 0 3 -6t-3 -6q-52 0 -52 -21q0 -9 11 -25l162 -236l120 187q23 37 23 59q0 36 -54 36q-3 0 -3 6t3 6l47 -1q38 -2 70 -2q18 0 40 2l37 1q2 0 2 -6z" />
    <glyph glyph-name="uni1EF8" unicode="&#x1ef8;" horiz-adv-x="609" 
d="M191 697q-2 0 -4.5 2.5t-1.5 4.5q48 62 86 62q13 0 49 -10q46 -14 76 -14q16 0 26.5 6.5t22.5 19.5q0 1 2 1t4 -3t1 -5q-26 -36 -43.5 -49t-36.5 -13q-14 0 -29.5 3.5t-30.5 8.5q-4 1 -25.5 7t-45.5 6q-15 0 -24 -5.5t-16 -12.5l-9 -9h-1zM615 619q0 -6 -2 -6
q-35 0 -72.5 -27t-65.5 -73l-135 -206v-226q0 -30 6 -44.5t24 -19.5t56 -5q2 0 2 -6t-2 -6q-31 0 -48 1l-70 1l-69 -1q-18 -1 -50 -1q-2 0 -2 6t2 6q38 0 56 5t24.5 19.5t6.5 44.5v211l-166 243q-29 44 -53.5 61t-57.5 17q-3 0 -3 6t3 6q12 0 36 -2l35 -1q33 0 85 2l54 1
q3 0 3 -6t-3 -6q-52 0 -52 -21q0 -9 11 -25l162 -236l120 187q23 37 23 59q0 36 -54 36q-3 0 -3 6t3 6l47 -1q38 -2 70 -2q18 0 40 2l37 1q2 0 2 -6z" />
    <glyph glyph-name="Z" unicode="Z" horiz-adv-x="595" 
d="M450 600q3 5 2.5 6.5t-7.5 1.5q-179 0 -244 -5.5t-90.5 -26.5t-46.5 -79q0 -2 -4 -2q-3 0 -5.5 1.5t-1.5 2.5l39 156q1 1 4 1q10 0 8 -3q-2 -12 2 -18t16 -8t39 -2h365q5 0 7.5 -5t-0.5 -8l-390 -585q-3 -5 -2 -6.5t7 -1.5h254q67 0 102.5 28t46.5 88q1 2 6.5 2t5.5 -2
l-14 -127q0 -3 -3 -6.5t-7 -3.5q-148 2 -478 2q-5 0 -7 4.5t1 8.5z" />
    <glyph glyph-name="Zacute" unicode="&#x179;" horiz-adv-x="595" 
d="M215 678q-4 0 -6 4.5t2 6.5q35 18 69.5 38.5t42.5 25.5q17 11 51 31q4 2 23 -4.5t33.5 -14.5t7.5 -9q-118 -30 -222 -78h-1zM449 600l3 6q0 2 -8 2q-178 0 -243 -5.5t-90.5 -26.5t-46.5 -79q-1 -2 -6.5 -1t-4.5 3l39 156q1 1 4 1q10 0 8 -3q-2 -12 2 -18t16 -8t39 -2h365
q5 0 7.5 -5t-0.5 -8l-389 -585l-3 -6q0 -2 8 -2h253q67 0 102.5 28t46.5 88q1 2 6.5 2t5.5 -2l-14 -127q0 -3 -3 -6.5t-7 -3.5q-148 2 -478 2q-5 0 -7 4.5t1 8.5z" />
    <glyph glyph-name="Zcaron" unicode="&#x17d;" horiz-adv-x="595" 
d="M198 784q-1 0 -1 0.5v0.5q0 2 2.5 4.5t4.5 1.5l109 -58l107 58h2q3 0 5 -3t-1 -4l-103 -97q-4 -4 -11 -4t-11 4zM449 600l3 6q0 2 -8 2q-178 0 -243 -5.5t-90.5 -26.5t-46.5 -79q-1 -2 -6.5 -1t-4.5 3l39 156q1 1 4 1q10 0 8 -3q-2 -12 2 -18t16 -8t39 -2h365q5 0 7.5 -5
t-0.5 -8l-389 -585l-3 -6q0 -2 8 -2h253q67 0 102.5 28t46.5 88q1 2 6.5 2t5.5 -2l-14 -127q0 -3 -3 -6.5t-7 -3.5q-148 2 -478 2q-5 0 -7 4.5t1 8.5z" />
    <glyph glyph-name="Zdotaccent" unicode="&#x17b;" horiz-adv-x="595" 
d="M281 724.5q-12 11.5 -12 32.5q0 19 12 30t32 11t31 -11t11 -30q0 -21 -11 -32.5t-31 -11.5t-32 11.5zM449 600l3 6q0 2 -8 2q-178 0 -243 -5.5t-90.5 -26.5t-46.5 -79q-1 -2 -6.5 -1t-4.5 3l39 156q1 1 4 1q10 0 8 -3q-2 -12 2 -18t16 -8t39 -2h365q5 0 7.5 -5t-0.5 -8
l-389 -585l-3 -6q0 -2 8 -2h253q67 0 102.5 28t46.5 88q1 2 6.5 2t5.5 -2l-14 -127q0 -3 -3 -6.5t-7 -3.5q-148 2 -478 2q-5 0 -7 4.5t1 8.5z" />
    <glyph glyph-name="uni1E92" unicode="&#x1e92;" horiz-adv-x="595" 
d="M449 600l3 6q0 2 -8 2q-178 0 -243 -5.5t-90.5 -26.5t-46.5 -79q-1 -2 -6.5 -1t-4.5 3l39 156q1 1 4 1q10 0 8 -3q-2 -12 2 -18t16 -8t39 -2h365q5 0 7.5 -5t-0.5 -8l-389 -585l-3 -6q0 -2 8 -2h253q67 0 102.5 28t46.5 88q1 2 6.5 2t5.5 -2l-14 -127q0 -3 -3 -6.5
t-7 -3.5q-148 2 -478 2q-5 0 -7 4.5t1 8.5zM266.5 -179q-11.5 12 -11.5 32q0 19 11.5 30.5t32.5 11.5q20 0 31.5 -11.5t11.5 -30.5q0 -20 -11.5 -32t-31.5 -12q-21 0 -32.5 12z" />
    <glyph glyph-name="J.acute" horiz-adv-x="320" 
d="M65 678q-4 0 -5.5 5t2.5 6q35 17 70 38.5t47 28.5q15 10 45 28q4 2 23.5 -4.5t34 -14.5t6.5 -9q-119 -31 -222 -78h-1zM190.5 -64q-13.5 -49 -44.5 -80t-90 -56h-1q-2 0 -4.5 4.5t-0.5 6.5q49 27 68.5 82.5t19.5 146.5v504q0 30 -6.5 44t-24.5 19.5t-56 5.5q-2 0 -2 6
t2 6l52 -1q42 -2 67 -2t63 2l44 1q3 0 3 -6t-3 -6q-33 0 -48 -6t-20 -20.5t-5 -44.5v-475q0 -82 -13.5 -131z" />
    <glyph glyph-name="J.case" horiz-adv-x="320" 
d="M189.5 -63.5q-13.5 -49.5 -44.5 -80.5t-89 -56l-1 -1q-3 0 -5 4.5t0 6.5q49 28 68 83.5t19 146.5v504q0 30 -6.5 44t-24 19.5t-55.5 5.5q-3 0 -3 6t3 6l53 -1q42 -2 65 -2q26 0 64 2l44 1q2 0 2 -6t-2 -6q-33 0 -48 -6t-20.5 -20.5t-5.5 -44.5v-475q0 -81 -13.5 -130.5z
" />
    <glyph glyph-name="Aacute.loclHUN" horiz-adv-x="702" 
d="M290 676q-4 0 -6 4.5t2 6.5q15 14 32.5 34.5t23.5 28.5l34 41q4 2 25 -3t37.5 -12t9.5 -9q-40 -15 -76 -37.5t-80 -53.5h-2zM703 6q0 -6 -5 -6q-19 0 -57 2q-40 2 -59 2q-23 0 -55 -2t-50 -2q-4 0 -4 6t4 6q38 0 55 7t17 25q0 14 -13 43l-115 244h-190l-86 -205
q-14 -33 -14 -55q0 -59 98 -59q5 0 5 -6t-5 -6q-17 0 -51 2q-38 2 -67 2q-26 0 -60 -2q-30 -2 -50 -2q-5 0 -5 6t5 6q28 0 47.5 10.5t37 36.5t38.5 77l212 498q1 2 6.5 2t6.5 -2l235 -497q34 -74 58 -99.5t56 -25.5q5 0 5 -6zM411 352l-90 190l-81 -190h171z" />
    <glyph glyph-name="Eacute.loclHUN" horiz-adv-x="537" 
d="M241 676q-4 0 -6 4.5t2 6.5q18 18 50 58q44 51 40 46q4 2 25 -3t37 -12t9 -9q-40 -15 -76 -37.5t-80 -53.5h-1zM480 151q2 0 4.5 -1.5t2.5 -2.5q-10 -72 -10 -132q0 -8 -3 -11.5t-12 -3.5h-419q-2 0 -2 6t2 6q38 0 56 5t24 19.5t6 44.5v463q0 30 -6 44t-24 19.5t-56 5.5
q-2 0 -2 6t2 6h401q10 0 10 -9l2 -124q0 -2 -5 -2t-7 2q-2 53 -31 82.5t-77 29.5h-62q-34 0 -51 -5t-23 -18.5t-6 -41.5v-203h122q48 0 68.5 16.5t20.5 53.5q0 2 5.5 2t5.5 -2l-1 -81l1 -44q2 -30 2 -48q0 -3 -6 -3t-6 3q0 44 -21.5 63t-72.5 19h-118v-230q0 -27 6 -40.5
t22 -18.5t49 -5h81q47 0 79.5 34t43.5 94q0 2 5 2z" />
    <glyph glyph-name="Iacute.loclHUN" horiz-adv-x="332" 
d="M115 676q-4 0 -6 4.5t2 6.5q15 14 32.5 34.5t23.5 28.5l34 41q4 2 25 -3t37 -12t9 -9q-67 -27 -155 -91h-2zM205 36.5q6 -14.5 23.5 -19.5t55.5 -5q3 0 3 -6t-3 -6q-31 0 -48 1l-71 1l-68 -1q-18 -1 -50 -1q-3 0 -3 6t3 6q37 0 55 5t24.5 19.5t6.5 44.5v463q0 30 -6.5 44
t-24.5 19.5t-55 5.5q-3 0 -3 6t3 6l50 -1q42 -2 68 -2q30 0 72 2l47 1q3 0 3 -6t-3 -6q-37 0 -54.5 -6t-24 -20.5t-6.5 -44.5v-461q0 -30 6 -44.5z" />
    <glyph glyph-name="Oacute.loclHUN" 
d="M333 676q-4 0 -5.5 4.5t1.5 6.5q15 14 32.5 34.5t23.5 28.5l34 41q4 2 25.5 -3t37.5 -12t9 -9q-40 -15 -76 -37.5t-80 -53.5h-2zM200.5 31.5q-72.5 43.5 -112 118t-39.5 162.5q0 103 52 176.5t133.5 110.5t166.5 37q95 0 167 -44.5t110.5 -117.5t38.5 -155
q0 -91 -48 -167t-128.5 -120t-174.5 -44q-93 0 -165.5 43.5zM523.5 42q54.5 33 86 97t31.5 152q0 93 -35 166.5t-98.5 114.5t-148.5 41q-110 0 -172 -71.5t-62 -195.5q0 -94 35 -171t98 -121.5t143 -44.5q68 0 122.5 33z" />
    <glyph glyph-name="Uacute.loclHUN" horiz-adv-x="763" 
d="M334 676q-4 0 -5.5 4.5t1.5 6.5q15 14 32.5 34.5t23.5 28.5l34 41q4 2 25 -3t37.5 -12t9.5 -9q-40 -15 -76 -37.5t-80 -53.5h-2zM729 6q0 -6 -3 -6l-79 1l-52 -1q-12 0 -15 3t-3 16v79q-62 -58 -120.5 -84t-125.5 -26q-63 0 -113.5 24t-79 69t-28.5 105v358q0 30 -6.5 44
t-24 19.5t-54.5 5.5q-3 0 -3 6t3 6l49 -1q42 -2 68 -2t70 2l48 1q2 0 2 -6t-2 -6q-37 0 -55 -6t-24.5 -20.5t-6.5 -44.5v-321q0 -100 49.5 -152.5t134.5 -52.5q57 0 108.5 23t110.5 76v427q0 30 -6.5 44.5t-24 20.5t-55.5 6q-2 0 -2 6t2 6l49 -1q42 -2 68 -2q27 0 69 2l49 1
q3 0 3 -6t-3 -6q-37 0 -55 -5.5t-24.5 -19.5t-6.5 -44v-463q0 -30 6.5 -44.5t24.5 -19.5t55 -5q3 0 3 -6z" />
    <glyph glyph-name="I.loclNLD" horiz-adv-x="332" 
d="M205 36.5q6 -14.5 23.5 -19.5t55.5 -5q3 0 3 -6t-3 -6q-31 0 -48 1l-71 1l-68 -1q-18 -1 -50 -1q-3 0 -3 6t3 6q37 0 55 5t24.5 19.5t6.5 44.5v463q0 30 -6.5 44t-24.5 19.5t-55 5.5q-3 0 -3 6t3 6l50 -1q42 -2 68 -2q30 0 72 2l47 1q3 0 3 -6t-3 -6q-37 0 -54.5 -6
t-24 -20.5t-6.5 -44.5v-461q0 -30 6 -44.5z" />
    <glyph glyph-name="J.loclNLD" horiz-adv-x="320" 
d="M190.5 -64q-13.5 -49 -44.5 -80t-90 -56h-1q-2 0 -4.5 4.5t-0.5 6.5q49 27 68.5 82.5t19.5 146.5v504q0 30 -6.5 44t-24.5 19.5t-56 5.5q-2 0 -2 6t2 6l52 -1q42 -2 67 -2t63 2l44 1q3 0 3 -6t-3 -6q-33 0 -48 -6t-20 -20.5t-5 -44.5v-475q0 -82 -13.5 -131z" />
    <glyph glyph-name="Cacute.loclPLK" horiz-adv-x="669" 
d="M379 677q-3 0 -6 1.5t-3 3.5l7 123q1 4 21 8.5t36 4.5q23 0 18 -9l-67 -129q-1 -3 -6 -3zM511.5 626.5q49.5 -9.5 79.5 -25.5q9 -5 11 -9t3 -14l11 -113q0 -2 -5 -3t-6 2q-22 77 -82 113.5t-148 36.5q-76 0 -132.5 -33.5t-87.5 -94.5t-31 -141q0 -93 38.5 -171.5
t104 -125t141.5 -46.5q72 0 125 39.5t81 121.5q0 2 4 2q3 0 5.5 -1t2.5 -3l-14 -112q-2 -13 -4.5 -16.5t-11.5 -6.5q-90 -38 -190 -38q-120 0 -200.5 48.5t-118.5 123.5t-38 158q0 92 51 165t135 113t179 40q48 0 97.5 -9.5z" />
    <glyph glyph-name="Nacute.loclPLK" horiz-adv-x="727" 
d="M376 677q-3 0 -6 1.5t-3 3.5l7 123q1 4 21 8.5t36 4.5q23 0 18 -9l-67 -129q-1 -3 -6 -3zM707 619q0 -6 -3 -6q-42 0 -60.5 -22.5t-18.5 -74.5v-528q0 -2 -5 -3t-7 1l-461 557l-8 9v-443q0 -52 18 -74.5t59 -22.5q3 0 3 -6t-3 -6q-25 0 -39 1l-49 1l-50 -1q-15 -1 -42 -1
q-3 0 -3 6t3 6q43 0 61 22.5t18 74.5v468q-21 20 -40 28t-39 8q-3 0 -3 6t3 6l37 -1q11 -1 33 -1t36 1t21 1q8 0 12 -3.5t12 -16.5q3 -5 8.5 -12.5t14.5 -19.5l386 -472v415q0 52 -17.5 74.5t-58.5 22.5q-2 0 -2 6t2 6l39 -1q30 -2 49 -2q18 0 50 2l41 1q3 0 3 -6z" />
    <glyph glyph-name="Oacute.loclPLK" 
d="M384 677q-3 0 -5.5 1.5t-2.5 3.5l7 123q1 4 21 8.5t36 4.5q10 0 15 -2.5t2 -6.5l-66 -129q-1 -3 -7 -3zM200.5 31.5q-72.5 43.5 -112 118t-39.5 162.5q0 103 52 176.5t133.5 110.5t166.5 37q95 0 167 -44.5t110.5 -117.5t38.5 -155q0 -91 -48 -167t-128.5 -120
t-174.5 -44q-93 0 -165.5 43.5zM523.5 42q54.5 33 86 97t31.5 152q0 93 -35 166.5t-98.5 114.5t-148.5 41q-110 0 -172 -71.5t-62 -195.5q0 -94 35 -171t98 -121.5t143 -44.5q68 0 122.5 33z" />
    <glyph glyph-name="Sacute.loclPLK" horiz-adv-x="491" 
d="M255 677q-3 0 -6 1.5t-3 3.5l8 123q1 4 21 8.5t36 4.5q10 0 15 -2.5t2 -6.5l-66 -129q-1 -3 -7 -3zM164 440q19 -29 47 -49t76 -48q53 -33 81 -53.5t48.5 -53t20.5 -77.5q0 -48 -24 -87t-71 -61.5t-112 -22.5q-73 0 -140 35q-5 3 -6.5 7t-2.5 12l-13 136q-1 4 4.5 5
t7.5 -3q15 -71 58.5 -123t115.5 -52q50 0 84.5 27t34.5 87q0 45 -20 77.5t-47 53.5t-78 53q-48 28 -76 49t-47.5 53t-19.5 75q0 50 26.5 85.5t69.5 53t90 17.5q60 0 118 -24q16 -6 16 -17l7 -114q0 -5 -5.5 -5t-6.5 4q-4 31 -20 63.5t-47.5 55t-76.5 22.5q-56 0 -83.5 -32.5
t-27.5 -80.5q0 -39 19 -68z" />
    <glyph glyph-name="Zacute.loclPLK" horiz-adv-x="595" 
d="M313 677q-3 0 -6 1.5t-3 3.5l7 123q1 4 21 8.5t36 4.5q23 0 18 -9l-67 -129q-1 -3 -6 -3zM449 600l3 6q0 2 -8 2q-178 0 -243 -5.5t-90.5 -26.5t-46.5 -79q-1 -2 -6.5 -1t-4.5 3l39 156q1 1 4 1q10 0 8 -3q-2 -12 2 -18t16 -8t39 -2h365q5 0 7.5 -5t-0.5 -8l-389 -585
l-3 -6q0 -2 8 -2h253q67 0 102.5 28t46.5 88q1 2 6.5 2t5.5 -2l-14 -127q0 -3 -3 -6.5t-7 -3.5q-148 2 -478 2q-5 0 -7 4.5t1 8.5z" />
    <glyph glyph-name="Q.long" 
d="M1232.5 -210q1.5 -5 -0.5 -6q-58 -13 -122 -13q-166 0 -339 61.5t-327 163.5q-40 -8 -78 -8q-93 0 -165.5 43.5t-112 118t-39.5 162.5q0 103 52 176.5t133.5 110.5t166.5 37q95 0 167 -44.5t110.5 -117.5t38.5 -155q0 -96 -53 -174.5t-140 -120.5q119 -81 290 -158
t356 -77q33 0 58 5q3 1 4.5 -4zM160 175q35 -77 98 -121.5t143 -44.5q68 0 122.5 33t86 97t31.5 152q0 93 -35 166.5t-98.5 114.5t-148.5 41q-110 0 -172 -71.5t-62 -195.5q0 -94 35 -171z" />
    <glyph glyph-name="R.short" horiz-adv-x="607" 
d="M601 6q0 -6 -3 -6h-123q-18 0 -67 89t-111 235q-31 -7 -57 -7q-19 0 -47 2v-238q0 -30 6.5 -44.5t24 -19.5t56.5 -5q3 0 3 -6t-3 -6q-31 0 -48 1l-70 1l-68 -1q-18 -1 -50 -1q-3 0 -3 6t3 6q38 0 55.5 5t24 19.5t6.5 44.5v463q0 30 -6 44t-23.5 19.5t-55.5 5.5q-3 0 -3 6
t3 6l49 -1q42 -2 68 -2q18 0 34 1t28 2q32 3 58 3q82 0 125.5 -33.5t43.5 -92.5q0 -47 -27.5 -89t-72.5 -67q59 -129 99 -200t75 -102.5t73 -31.5q3 0 3 -6zM254 340q69 0 99 29.5t30 98.5q0 146 -123 146q-27 0 -40.5 -4.5t-20 -19.5t-6.5 -48v-199q29 -3 61 -3z" />
    <glyph glyph-name="Racute.short" horiz-adv-x="607" 
d="M169 678q-4 0 -5.5 4.5t1.5 6.5q35 18 69.5 38.5t42.5 25.5q17 11 51 31q4 2 23.5 -4.5t34 -14.5t6.5 -9q-118 -30 -222 -78h-1zM600 6q0 -6 -2 -6h-123q-17 0 -66.5 90t-110.5 235q-29 -8 -57 -8q-20 0 -48 2v-238q0 -30 6.5 -44.5t24 -19.5t56.5 -5q2 0 2 -6t-2 -6
q-31 0 -48 1l-71 1l-67 -1q-18 -1 -51 -1q-2 0 -2 6t2 6q38 0 56 5t24.5 19.5t6.5 44.5v463q0 30 -6 44t-24 19.5t-56 5.5q-2 0 -2 6t2 6l51 -1q42 -2 66 -2q18 0 34 1t28 2q33 3 59 3q81 0 125 -33t44 -92q0 -48 -27.5 -90t-72.5 -67q59 -129 99 -199.5t74.5 -102.5
t73.5 -32q2 0 2 -6zM254 340q69 0 98.5 29t29.5 99q0 146 -121 146q-28 0 -41.5 -4.5t-20 -19.5t-6.5 -48v-198q38 -4 61 -4z" />
    <glyph glyph-name="Rcaron.short" horiz-adv-x="607" 
d="M151 784.5v0.5q0 2 2.5 4.5t4.5 1.5l109 -58l108 58h1q3 0 5 -3t-1 -4l-102 -97q-4 -4 -11 -4q-8 0 -12 4l-103 97q-1 0 -1 0.5zM600 6q0 -6 -2 -6h-123q-17 0 -66.5 90t-110.5 235q-29 -8 -57 -8q-20 0 -48 2v-238q0 -30 6.5 -44.5t24 -19.5t56.5 -5q2 0 2 -6t-2 -6
q-31 0 -48 1l-71 1l-67 -1q-18 -1 -51 -1q-2 0 -2 6t2 6q38 0 56 5t24.5 19.5t6.5 44.5v463q0 30 -6 44t-24 19.5t-56 5.5q-2 0 -2 6t2 6l51 -1q42 -2 66 -2q18 0 34 1t28 2q33 3 59 3q81 0 125 -33t44 -92q0 -48 -27.5 -90t-72.5 -67q59 -129 99 -199.5t74.5 -102.5
t73.5 -32q2 0 2 -6zM254 340q69 0 98.5 29t29.5 99q0 146 -121 146q-28 0 -41.5 -4.5t-20 -19.5t-6.5 -48v-198q38 -4 61 -4z" />
    <glyph glyph-name="Rcommaaccent.short" horiz-adv-x="607" 
d="M600 6q0 -6 -2 -6h-123q-17 0 -66.5 90t-110.5 235q-29 -8 -57 -8q-20 0 -48 2v-238q0 -30 6.5 -44.5t24 -19.5t56.5 -5q2 0 2 -6t-2 -6q-31 0 -48 1l-71 1l-67 -1q-18 -1 -51 -1q-2 0 -2 6t2 6q38 0 56 5t24.5 19.5t6.5 44.5v463q0 30 -6 44t-24 19.5t-56 5.5q-2 0 -2 6
t2 6l51 -1q42 -2 66 -2q18 0 34 1t28 2q33 3 59 3q81 0 125 -33t44 -92q0 -48 -27.5 -90t-72.5 -67q59 -129 99 -199.5t74.5 -102.5t73.5 -32q2 0 2 -6zM254 340q69 0 98.5 29t29.5 99q0 146 -121 146q-28 0 -41.5 -4.5t-20 -19.5t-6.5 -48v-198q38 -4 61 -4zM361 -104
q14 -19 14 -54q0 -34 -15.5 -62t-44.5 -55q-1 -1 -3 -1q-3 0 -5.5 3t-0.5 5q45 41 45 90q0 18 -6 29q-7 -15 -30 -15q-19 0 -29 10.5t-10 28.5q0 21 12 30.5t31 9.5q28 0 42 -19z" />
    <glyph glyph-name="uni1E5A.short" horiz-adv-x="607" 
d="M600 6q0 -6 -2 -6h-123q-17 0 -66.5 90t-110.5 235q-29 -8 -57 -8q-20 0 -48 2v-238q0 -30 6.5 -44.5t24 -19.5t56.5 -5q2 0 2 -6t-2 -6q-31 0 -48 1l-71 1l-67 -1q-18 -1 -51 -1q-2 0 -2 6t2 6q38 0 56 5t24.5 19.5t6.5 44.5v463q0 30 -6 44t-24 19.5t-56 5.5q-2 0 -2 6
t2 6l51 -1q42 -2 66 -2q18 0 34 1t28 2q33 3 59 3q81 0 125 -33t44 -92q0 -48 -27.5 -90t-72.5 -67q59 -129 99 -199.5t74.5 -102.5t73.5 -32q2 0 2 -6zM254 340q69 0 98.5 29t29.5 99q0 146 -121 146q-28 0 -41.5 -4.5t-20 -19.5t-6.5 -48v-198q38 -4 61 -4zM358.5 -116.5
q11.5 -11.5 11.5 -30.5q0 -20 -11.5 -32t-31.5 -12q-21 0 -32.5 12t-11.5 32q0 19 11.5 30.5t32.5 11.5q20 0 31.5 -11.5z" />
    <glyph glyph-name="uni1E5C.short" horiz-adv-x="607" 
d="M135 736q0 14 6 14h251q6 0 6 -14t-6 -14h-251q-6 0 -6 14zM600 6q0 -6 -2 -6h-123q-17 0 -66.5 90t-110.5 235q-29 -8 -57 -8q-20 0 -48 2v-238q0 -30 6.5 -44.5t24 -19.5t56.5 -5q2 0 2 -6t-2 -6q-31 0 -48 1l-71 1l-67 -1q-18 -1 -51 -1q-2 0 -2 6t2 6q38 0 56 5
t24.5 19.5t6.5 44.5v463q0 30 -6 44t-24 19.5t-56 5.5q-2 0 -2 6t2 6l51 -1q42 -2 66 -2q18 0 34 1t28 2q33 3 59 3q81 0 125 -33t44 -92q0 -48 -27.5 -90t-72.5 -67q59 -129 99 -199.5t74.5 -102.5t73.5 -32q2 0 2 -6zM254 340q69 0 98.5 29t29.5 99q0 146 -121 146
q-28 0 -41.5 -4.5t-20 -19.5t-6.5 -48v-198q38 -4 61 -4zM358.5 -116.5q11.5 -11.5 11.5 -30.5q0 -20 -11.5 -32t-31.5 -12q-21 0 -32.5 12t-11.5 32q0 19 11.5 30.5t32.5 11.5q20 0 31.5 -11.5z" />
    <glyph glyph-name="uni1E5E.short" horiz-adv-x="607" 
d="M600 6q0 -6 -2 -6h-123q-17 0 -66.5 90t-110.5 235q-29 -8 -57 -8q-20 0 -48 2v-238q0 -30 6.5 -44.5t24 -19.5t56.5 -5q2 0 2 -6t-2 -6q-31 0 -48 1l-71 1l-67 -1q-18 -1 -51 -1q-2 0 -2 6t2 6q38 0 56 5t24.5 19.5t6.5 44.5v463q0 30 -6 44t-24 19.5t-56 5.5q-2 0 -2 6
t2 6l51 -1q42 -2 66 -2q18 0 34 1t28 2q33 3 59 3q81 0 125 -33t44 -92q0 -48 -27.5 -90t-72.5 -67q59 -129 99 -199.5t74.5 -102.5t73.5 -32q2 0 2 -6zM254 340q69 0 98.5 29t29.5 99q0 146 -121 146q-28 0 -41.5 -4.5t-20 -19.5t-6.5 -48v-198q38 -4 61 -4zM458 -99
q0 -14 -7 -14h-251q-6 0 -6 14t6 14h251q7 0 7 -14z" />
    <glyph glyph-name="a" unicode="a" horiz-adv-x="490" 
d="M483 58q4 0 5.5 -4.5t-2.5 -6.5l-116 -55l-5 -1q-8 0 -17.5 23.5t-10.5 58.5q-36 -38 -74 -60.5t-82 -22.5q-62 0 -103.5 45t-41.5 126q0 72 33.5 126t85.5 83t104 29q55 0 98 -30q15 7 27 26q0 1 2 1q3 0 5.5 -1.5t2.5 -2.5v-285q0 -34 7.5 -48.5t26.5 -14.5q17 0 53 14
h2zM276.5 41q29.5 18 60.5 48v204q0 37 -31.5 61.5t-71.5 24.5q-59 0 -95.5 -52.5t-36.5 -136.5q0 -75 30.5 -121t81.5 -46q33 0 62.5 18z" />
    <glyph glyph-name="aacute" unicode="&#xe1;" horiz-adv-x="490" 
d="M248 472.5q-5 1.5 -4 3.5l51 240q1 4 21 9.5t32 5.5q9 0 8 -4l-102 -253q-1 -3 -6 -1.5zM483 58q4 0 5.5 -4.5t-1.5 -6.5l-117 -55l-5 -1q-9 0 -18 23.5t-10 59.5q-36 -39 -73.5 -62t-83.5 -23q-39 0 -72 20t-52.5 59t-19.5 93q0 72 34 126t85.5 83t104.5 29q26 0 51 -8
t45 -22q17 9 28 26q1 2 5 0.5t4 -3.5v-286q0 -34 8 -48.5t27 -14.5q15 0 53 15h2zM337 90v204q0 37 -31.5 61t-71.5 24q-60 0 -96 -52.5t-36 -135.5q0 -76 30.5 -122t81.5 -46q58 0 123 67z" />
    <glyph glyph-name="abreve" unicode="&#x103;" horiz-adv-x="490" 
d="M180.5 511.5q-26.5 38.5 -26.5 111.5q0 4 5 5t5 -2q0 -44 26.5 -73.5t66.5 -29.5q38 0 64.5 30t26.5 73q0 2 3 2q2 0 4.5 -1.5t2.5 -3.5q0 -74 -26 -112t-75 -38q-50 0 -76.5 38.5zM483 58q4 0 5.5 -4.5t-1.5 -6.5l-117 -55l-5 -1q-9 0 -18 23.5t-10 59.5
q-36 -39 -73.5 -62t-83.5 -23q-39 0 -72 20t-52.5 59t-19.5 93q0 72 34 126t85.5 83t104.5 29q26 0 51 -8t45 -22q17 9 28 26q1 2 5 0.5t4 -3.5v-286q0 -34 8 -48.5t27 -14.5q15 0 53 15h2zM337 90v204q0 37 -31.5 61t-71.5 24q-60 0 -96 -52.5t-36 -135.5q0 -76 30.5 -122
t81.5 -46q58 0 123 67z" />
    <glyph glyph-name="uni1EAF" unicode="&#x1eaf;" horiz-adv-x="490" 
d="M200 552q-4 0 -5.5 3t0.5 5q38 43 76 97q3 4 22.5 -2.5t34.5 -15t8 -10.5q-65 -26 -134 -77h-2zM186.5 481q-26.5 27 -33.5 79q-1 4 4.5 4.5t6.5 -1.5q7 -27 33.5 -46.5t58.5 -19.5q31 0 57.5 19.5t33.5 46.5q2 2 7 1.5t4 -4.5q-7 -52 -33 -79t-69 -27t-69.5 27zM483 58
q4 0 5.5 -4.5t-1.5 -6.5l-117 -55l-5 -1q-9 0 -18 23.5t-10 59.5q-36 -39 -73.5 -62t-83.5 -23q-39 0 -72 20t-52.5 59t-19.5 93q0 72 34 126t85.5 83t104.5 29q26 0 51 -8t45 -22q17 9 28 26q1 2 5 0.5t4 -3.5v-286q0 -34 8 -48.5t27 -14.5q15 0 53 15h2zM337 90v204
q0 37 -31.5 61t-71.5 24q-60 0 -96 -52.5t-36 -135.5q0 -76 30.5 -122t81.5 -46q58 0 123 67z" />
    <glyph glyph-name="uni1EB7" unicode="&#x1eb7;" horiz-adv-x="490" 
d="M180.5 511.5q-26.5 38.5 -26.5 111.5q0 4 5 5t5 -2q0 -44 26.5 -73.5t66.5 -29.5q38 0 64.5 30t26.5 73q0 2 3 2q2 0 4.5 -1.5t2.5 -3.5q0 -74 -26 -112t-75 -38q-50 0 -76.5 38.5zM483 58q4 0 5.5 -4.5t-1.5 -6.5l-117 -55l-5 -1q-9 0 -18 23.5t-10 59.5
q-36 -39 -73.5 -62t-83.5 -23q-39 0 -72 20t-52.5 59t-19.5 93q0 72 34 126t85.5 83t104.5 29q26 0 51 -8t45 -22q17 9 28 26q1 2 5 0.5t4 -3.5v-286q0 -34 8 -48.5t27 -14.5q15 0 53 15h2zM337 90v204q0 37 -31.5 61t-71.5 24q-60 0 -96 -52.5t-36 -135.5q0 -76 30.5 -122
t81.5 -46q58 0 123 67zM288 -116.5q11 -11.5 11 -30.5q0 -20 -11 -32t-31 -12q-21 0 -32.5 12t-11.5 32q0 19 11.5 30.5t32.5 11.5q20 0 31 -11.5z" />
    <glyph glyph-name="uni1EB1" unicode="&#x1eb1;" horiz-adv-x="490" 
d="M183 639.5q15 8.5 34.5 15t22.5 2.5q34 -48 76 -96q1 -1 1 -3q0 -3 -2 -5t-6 -1q-37 26 -67 44t-67 33q-7 2 8 10.5zM186.5 481q-26.5 27 -33.5 79q-1 4 4.5 4.5t6.5 -1.5q7 -27 33.5 -46.5t58.5 -19.5q31 0 57.5 19.5t33.5 46.5q2 2 7 1.5t4 -4.5q-7 -52 -33 -79
t-69 -27t-69.5 27zM483 58q4 0 5.5 -4.5t-1.5 -6.5l-117 -55l-5 -1q-9 0 -18 23.5t-10 59.5q-36 -39 -73.5 -62t-83.5 -23q-39 0 -72 20t-52.5 59t-19.5 93q0 72 34 126t85.5 83t104.5 29q26 0 51 -8t45 -22q17 9 28 26q1 2 5 0.5t4 -3.5v-286q0 -34 8 -48.5t27 -14.5
q15 0 53 15h2zM337 90v204q0 37 -31.5 61t-71.5 24q-60 0 -96 -52.5t-36 -135.5q0 -76 30.5 -122t81.5 -46q58 0 123 67z" />
    <glyph glyph-name="uni1EB3" unicode="&#x1eb3;" horiz-adv-x="490" 
d="M212 648q-4 0 -6.5 3.5t0.5 4.5q15 9 31 14t28 5q23 0 35.5 -12.5t12.5 -29.5q0 -14 -7.5 -25t-24.5 -29q-15 -14 -22 -24.5t-4 -21.5q1 -2 -5 -2t-7 2q-2 8 -2 12q0 9 4.5 19t9.5 19q15 23 15 39q0 15 -10.5 23.5t-23.5 8.5q-9 0 -23 -6h-1zM186.5 481
q-26.5 27 -33.5 79q-1 4 4.5 4.5t6.5 -1.5q7 -27 33.5 -46.5t58.5 -19.5q31 0 57.5 19.5t33.5 46.5q2 2 7 1.5t4 -4.5q-7 -52 -33 -79t-69 -27t-69.5 27zM483 58q4 0 5.5 -4.5t-1.5 -6.5l-117 -55l-5 -1q-9 0 -18 23.5t-10 59.5q-36 -39 -73.5 -62t-83.5 -23q-39 0 -72 20
t-52.5 59t-19.5 93q0 72 34 126t85.5 83t104.5 29q26 0 51 -8t45 -22q17 9 28 26q1 2 5 0.5t4 -3.5v-286q0 -34 8 -48.5t27 -14.5q15 0 53 15h2zM337 90v204q0 37 -31.5 61t-71.5 24q-60 0 -96 -52.5t-36 -135.5q0 -76 30.5 -122t81.5 -46q58 0 123 67z" />
    <glyph glyph-name="uni1EB5" unicode="&#x1eb5;" horiz-adv-x="490" 
d="M129 598q-2 0 -4 3t-1 5q17 24 39.5 43t45.5 19q17 0 50 -11q5 -1 28.5 -7.5t47.5 -6.5q16 0 26 6.5t23 20.5q0 1 2 1t4 -3t1 -5q-27 -37 -44 -49.5t-36 -12.5q-14 0 -29.5 3.5t-30.5 8.5q-17 5 -35.5 9t-35.5 4q-16 0 -24.5 -5t-15 -12t-9.5 -10q0 -1 -2 -1zM356 568
q5 -1 4 -4q-7 -52 -33 -79.5t-69 -27.5t-69 27.5t-33 79.5v1q0 2 4.5 3t5.5 -2q7 -27 33.5 -46t58.5 -19t58 19t34 46q1 3 6 2zM483 58q4 0 5.5 -4.5t-1.5 -6.5l-117 -55l-5 -1q-9 0 -18 23.5t-10 59.5q-36 -39 -73.5 -62t-83.5 -23q-39 0 -72 20t-52.5 59t-19.5 93
q0 72 34 126t85.5 83t104.5 29q26 0 51 -8t45 -22q17 9 28 26q1 2 5 0.5t4 -3.5v-286q0 -34 8 -48.5t27 -14.5q15 0 53 15h2zM337 90v204q0 37 -31.5 61t-71.5 24q-60 0 -96 -52.5t-36 -135.5q0 -76 30.5 -122t81.5 -46q58 0 123 67z" />
    <glyph glyph-name="uni01CE" unicode="&#x1ce;" horiz-adv-x="490" 
d="M177 726q-1 3 4 4t7 -1l69 -165l67 165q1 1 4 1q8 0 7 -4l-68 -249q0 -5 -11 -5q-9 0 -11 5zM483 58q4 0 5.5 -4.5t-1.5 -6.5l-117 -55l-5 -1q-9 0 -18 23.5t-10 59.5q-36 -39 -73.5 -62t-83.5 -23q-39 0 -72 20t-52.5 59t-19.5 93q0 72 34 126t85.5 83t104.5 29
q26 0 51 -8t45 -22q17 9 28 26q1 2 5 0.5t4 -3.5v-286q0 -34 8 -48.5t27 -14.5q15 0 53 15h2zM337 90v204q0 37 -31.5 61t-71.5 24q-60 0 -96 -52.5t-36 -135.5q0 -76 30.5 -122t81.5 -46q58 0 123 67z" />
    <glyph glyph-name="acircumflex" unicode="&#xe2;" horiz-adv-x="490" 
d="M185 472q-3 0 -5.5 1.5t-1.5 2.5l68 249q1 5 11 5t11 -5l68 -249q1 -2 -4 -3.5t-6 1.5l-68 165l-69 -165q0 -2 -4 -2zM483 58q4 0 5.5 -4.5t-1.5 -6.5l-117 -55l-5 -1q-9 0 -18 23.5t-10 59.5q-36 -39 -73.5 -62t-83.5 -23q-39 0 -72 20t-52.5 59t-19.5 93q0 72 34 126
t85.5 83t104.5 29q26 0 51 -8t45 -22q17 9 28 26q1 2 5 0.5t4 -3.5v-286q0 -34 8 -48.5t27 -14.5q15 0 53 15h2zM337 90v204q0 37 -31.5 61t-71.5 24q-60 0 -96 -52.5t-36 -135.5q0 -76 30.5 -122t81.5 -46q58 0 123 67z" />
    <glyph glyph-name="uni1EA5" unicode="&#x1ea5;" horiz-adv-x="490" 
d="M320 541q-3 0 -4.5 3.5t0.5 5.5q39 43 76 97q3 4 22.5 -2.5t34.5 -15t7 -10.5q-66 -28 -133 -77q-1 -1 -3 -1zM142 446.5q-3 3.5 0 4.5l102 98q4 4 12 4q7 0 11 -4l103 -98q1 0 1 -2t-3 -4t-4 -1l-108 58l-109 -58q-2 -1 -5 2.5zM483 58q4 0 5.5 -4.5t-1.5 -6.5l-117 -55
l-5 -1q-9 0 -18 23.5t-10 59.5q-36 -39 -73.5 -62t-83.5 -23q-39 0 -72 20t-52.5 59t-19.5 93q0 72 34 126t85.5 83t104.5 29q26 0 51 -8t45 -22q17 9 28 26q1 2 5 0.5t4 -3.5v-286q0 -34 8 -48.5t27 -14.5q15 0 53 15h2zM337 90v204q0 37 -31.5 61t-71.5 24
q-60 0 -96 -52.5t-36 -135.5q0 -76 30.5 -122t81.5 -46q58 0 123 67z" />
    <glyph glyph-name="uni1EAD" unicode="&#x1ead;" horiz-adv-x="490" 
d="M185 472q-3 0 -5.5 1.5t-1.5 2.5l68 249q1 5 11 5t11 -5l68 -249q1 -2 -4 -3.5t-6 1.5l-68 165l-69 -165q0 -2 -4 -2zM483 58q4 0 5.5 -4.5t-1.5 -6.5l-117 -55l-5 -1q-9 0 -18 23.5t-10 59.5q-36 -39 -73.5 -62t-83.5 -23q-39 0 -72 20t-52.5 59t-19.5 93q0 72 34 126
t85.5 83t104.5 29q26 0 51 -8t45 -22q17 9 28 26q1 2 5 0.5t4 -3.5v-286q0 -34 8 -48.5t27 -14.5q15 0 53 15h2zM337 90v204q0 37 -31.5 61t-71.5 24q-60 0 -96 -52.5t-36 -135.5q0 -76 30.5 -122t81.5 -46q58 0 123 67zM288 -116.5q11 -11.5 11 -30.5q0 -20 -11 -32
t-31 -12q-21 0 -32.5 12t-11.5 32q0 19 11.5 30.5t32.5 11.5q20 0 31 -11.5z" />
    <glyph glyph-name="uni1EA7" unicode="&#x1ea7;" horiz-adv-x="490" 
d="M299 618.5q15 8.5 34.5 15t22.5 2.5q34 -48 76 -96q1 -1 1 -3q0 -3 -2.5 -5t-5.5 -1q-39 28 -68 45t-66 32q-7 2 8 10.5zM142 446.5q-3 3.5 0 4.5l102 98q4 4 12 4q7 0 11 -4l103 -98q1 0 1 -2t-3 -4t-4 -1l-108 58l-109 -58q-2 -1 -5 2.5zM483 58q4 0 5.5 -4.5
t-1.5 -6.5l-117 -55l-5 -1q-9 0 -18 23.5t-10 59.5q-36 -39 -73.5 -62t-83.5 -23q-39 0 -72 20t-52.5 59t-19.5 93q0 72 34 126t85.5 83t104.5 29q26 0 51 -8t45 -22q17 9 28 26q1 2 5 0.5t4 -3.5v-286q0 -34 8 -48.5t27 -14.5q15 0 53 15h2zM337 90v204q0 37 -31.5 61
t-71.5 24q-60 0 -96 -52.5t-36 -135.5q0 -76 30.5 -122t81.5 -46q58 0 123 67z" />
    <glyph glyph-name="uni1EA9" unicode="&#x1ea9;" horiz-adv-x="490" 
d="M303 648q-3 0 -6 3.5t0 4.5q15 9 31.5 14t28.5 5q22 0 35 -13t13 -29q0 -15 -8 -26t-25 -28q-16 -16 -22.5 -25.5t-3.5 -20.5q1 -2 -4.5 -2t-6.5 2q-2 5 -2 13q0 13 14 37q7 12 10.5 20.5t3.5 18.5q0 15 -10.5 23.5t-23.5 8.5q-9 0 -23 -6h-1zM142 446.5q-3 3.5 0 4.5
l102 98q4 4 12 4q7 0 11 -4l103 -98q1 0 1 -2t-3 -4t-4 -1l-108 58l-109 -58q-2 -1 -5 2.5zM483 58q4 0 5.5 -4.5t-1.5 -6.5l-117 -55l-5 -1q-9 0 -18 23.5t-10 59.5q-36 -39 -73.5 -62t-83.5 -23q-39 0 -72 20t-52.5 59t-19.5 93q0 72 34 126t85.5 83t104.5 29q26 0 51 -8
t45 -22q17 9 28 26q1 2 5 0.5t4 -3.5v-286q0 -34 8 -48.5t27 -14.5q15 0 53 15h2zM337 90v204q0 37 -31.5 61t-71.5 24q-60 0 -96 -52.5t-36 -135.5q0 -76 30.5 -122t81.5 -46q58 0 123 67z" />
    <glyph glyph-name="uni1EAB" unicode="&#x1eab;" horiz-adv-x="490" 
d="M136 595q-3 0 -5.5 2.5t-0.5 4.5q16 23 39 42.5t46 19.5q14 0 50 -10q46 -14 75 -14q17 0 27 7t22 20h1q3 0 5.5 -2.5t0.5 -4.5q-26 -37 -42.5 -49.5t-36.5 -12.5q-18 0 -36.5 5t-23.5 6q-41 13 -71 13q-16 0 -24.5 -5t-15 -12t-9.5 -10h-1zM370 451q1 0 1 -2t-3 -4
t-4 -1l-108 58l-109 -58q-2 -1 -5 2.5t0 4.5l102 98q4 4 12 4q7 0 11 -4zM483 58q4 0 5.5 -4.5t-1.5 -6.5l-117 -55l-5 -1q-9 0 -18 23.5t-10 59.5q-36 -39 -73.5 -62t-83.5 -23q-39 0 -72 20t-52.5 59t-19.5 93q0 72 34 126t85.5 83t104.5 29q26 0 51 -8t45 -22q17 9 28 26
q1 2 5 0.5t4 -3.5v-286q0 -34 8 -48.5t27 -14.5q15 0 53 15h2zM337 90v204q0 37 -31.5 61t-71.5 24q-60 0 -96 -52.5t-36 -135.5q0 -76 30.5 -122t81.5 -46q58 0 123 67z" />
    <glyph glyph-name="adieresis" unicode="&#xe4;" horiz-adv-x="490" 
d="M138 488q-11 11 -11 31q0 19 11 29.5t31 10.5t31 -10.5t11 -29.5q0 -20 -11 -31t-31 -11t-31 11zM313 488q-11 11 -11 31q0 19 11 29.5t31 10.5q19 0 30 -10.5t11 -29.5q0 -20 -10.5 -31t-30.5 -11t-31 11zM483 58q4 0 5.5 -4.5t-1.5 -6.5l-117 -55l-5 -1q-9 0 -18 23.5
t-10 59.5q-36 -39 -73.5 -62t-83.5 -23q-39 0 -72 20t-52.5 59t-19.5 93q0 72 34 126t85.5 83t104.5 29q26 0 51 -8t45 -22q17 9 28 26q1 2 5 0.5t4 -3.5v-286q0 -34 8 -48.5t27 -14.5q15 0 53 15h2zM337 90v204q0 37 -31.5 61t-71.5 24q-60 0 -96 -52.5t-36 -135.5
q0 -76 30.5 -122t81.5 -46q58 0 123 67z" />
    <glyph glyph-name="uni1EA1" unicode="&#x1ea1;" horiz-adv-x="490" 
d="M483 58q4 0 5.5 -4.5t-1.5 -6.5l-117 -55l-5 -1q-9 0 -18 23.5t-10 59.5q-36 -39 -73.5 -62t-83.5 -23q-39 0 -72 20t-52.5 59t-19.5 93q0 72 34 126t85.5 83t104.5 29q26 0 51 -8t45 -22q17 9 28 26q1 2 5 0.5t4 -3.5v-286q0 -34 8 -48.5t27 -14.5q15 0 53 15h2zM337 90
v204q0 37 -31.5 61t-71.5 24q-60 0 -96 -52.5t-36 -135.5q0 -76 30.5 -122t81.5 -46q58 0 123 67zM288 -116.5q11 -11.5 11 -30.5q0 -20 -11 -32t-31 -12q-21 0 -32.5 12t-11.5 32q0 19 11.5 30.5t32.5 11.5q20 0 31 -11.5z" />
    <glyph glyph-name="agrave" unicode="&#xe0;" horiz-adv-x="490" 
d="M161 727q-1 4 8 4q13 0 32.5 -5.5t20.5 -9.5l51 -240q1 -2 -4.5 -3.5t-6.5 1.5zM483 58q4 0 5.5 -4.5t-1.5 -6.5l-117 -55l-5 -1q-9 0 -18 23.5t-10 59.5q-36 -39 -73.5 -62t-83.5 -23q-39 0 -72 20t-52.5 59t-19.5 93q0 72 34 126t85.5 83t104.5 29q26 0 51 -8t45 -22
q17 9 28 26q1 2 5 0.5t4 -3.5v-286q0 -34 8 -48.5t27 -14.5q15 0 53 15h2zM337 90v204q0 37 -31.5 61t-71.5 24q-60 0 -96 -52.5t-36 -135.5q0 -76 30.5 -122t81.5 -46q58 0 123 67z" />
    <glyph glyph-name="uni1EA3" unicode="&#x1ea3;" horiz-adv-x="490" 
d="M204 638q-3 0 -5.5 3.5t0.5 5.5q31 21 64 21q31 0 48 -15t17 -37q0 -19 -11 -34t-31 -35q-19 -19 -28.5 -32.5t-9.5 -28.5q0 -6 1 -9q2 -2 -4 -2t-7 2q-3 12 -3 22q0 15 5.5 27.5t15.5 28.5q10 18 14.5 28.5t4.5 22.5q0 19 -11.5 29.5t-29.5 10.5q-14 0 -28 -7zM483 58
q4 0 5.5 -4.5t-1.5 -6.5l-117 -55l-5 -1q-9 0 -18 23.5t-10 59.5q-36 -39 -73.5 -62t-83.5 -23q-39 0 -72 20t-52.5 59t-19.5 93q0 72 34 126t85.5 83t104.5 29q26 0 51 -8t45 -22q17 9 28 26q1 2 5 0.5t4 -3.5v-286q0 -34 8 -48.5t27 -14.5q15 0 53 15h2zM337 90v204
q0 37 -31.5 61t-71.5 24q-60 0 -96 -52.5t-36 -135.5q0 -76 30.5 -122t81.5 -46q58 0 123 67z" />
    <glyph glyph-name="amacron" unicode="&#x101;" horiz-adv-x="490" 
d="M124 497q0 14 6 14h252q6 0 6 -14t-6 -14h-252q-6 0 -6 14zM483 58q4 0 5.5 -4.5t-1.5 -6.5l-117 -55l-5 -1q-9 0 -18 23.5t-10 59.5q-36 -39 -73.5 -62t-83.5 -23q-39 0 -72 20t-52.5 59t-19.5 93q0 72 34 126t85.5 83t104.5 29q26 0 51 -8t45 -22q17 9 28 26q1 2 5 0.5
t4 -3.5v-286q0 -34 8 -48.5t27 -14.5q15 0 53 15h2zM337 90v204q0 37 -31.5 61t-71.5 24q-60 0 -96 -52.5t-36 -135.5q0 -76 30.5 -122t81.5 -46q58 0 123 67z" />
    <glyph glyph-name="aogonek" unicode="&#x105;" horiz-adv-x="490" 
d="M483 58q4 0 5.5 -4.5t-1.5 -6.5l-52 -25q-69 -39 -100.5 -80t-31.5 -91q0 -46 22.5 -71.5t66.5 -25.5q22 0 37 6t31 18h1q3 0 5.5 -3t0.5 -5q-28 -24 -54.5 -34.5t-55.5 -10.5q-54 0 -82.5 25.5t-28.5 70.5t29.5 89t84.5 83q-8 7 -15 29t-8 52q-36 -39 -73.5 -62
t-83.5 -23q-39 0 -72 20t-52.5 59t-19.5 93q0 72 34 126t85.5 83t104.5 29q26 0 51 -8t45 -22q17 9 28 26q1 2 5 0.5t4 -3.5v-286q0 -34 8 -48.5t27 -14.5q11 0 29 6l24 11l1 -2h1zM337 90v204q0 37 -31.5 61t-71.5 24q-60 0 -96 -52.5t-36 -135.5q0 -76 30.5 -122t81.5 -46
q58 0 123 67z" />
    <glyph glyph-name="aring" unicode="&#xe5;" horiz-adv-x="490" 
d="M184.5 491q-23.5 23 -23.5 56q0 36 30 57t67 21q36 0 62 -23.5t26 -56.5q0 -35 -30 -56t-68 -21q-40 0 -63.5 23zM213 602.5q-8 -11.5 -8 -35.5q0 -34 16 -61.5t43 -27.5q36 0 36 49q0 36 -18 61.5t-44 25.5q-17 0 -25 -11.5zM483 58q4 0 5.5 -4.5t-1.5 -6.5l-117 -55
l-5 -1q-9 0 -18 23.5t-10 59.5q-36 -39 -73.5 -62t-83.5 -23q-39 0 -72 20t-52.5 59t-19.5 93q0 72 34 126t85.5 83t104.5 29q26 0 51 -8t45 -22q17 9 28 26q1 2 5 0.5t4 -3.5v-286q0 -34 8 -48.5t27 -14.5q15 0 53 15h2zM337 90v204q0 37 -31.5 61t-71.5 24
q-60 0 -96 -52.5t-36 -135.5q0 -76 30.5 -122t81.5 -46q58 0 123 67z" />
    <glyph glyph-name="aringacute" unicode="&#x1fb;" horiz-adv-x="490" 
d="M164 574q-4 0 -5.5 4.5t2.5 6.5q48 23 135 69q4 2 22 -5t31.5 -15.5t6.5 -10.5q-91 -17 -191 -49h-1zM193.5 552q29.5 18 65.5 18t62 -20t26 -48q0 -30 -30 -48t-67 -18q-39 0 -62.5 20t-23.5 48q0 30 29.5 48zM283 537q-18 22 -43 22q-34 0 -34 -35q0 -30 16 -53.5
t43 -23.5q19 0 27.5 8.5t8.5 28.5q0 31 -18 53zM483 58q4 0 5.5 -4.5t-1.5 -6.5l-117 -55l-5 -1q-9 0 -18 23.5t-10 59.5q-36 -39 -73.5 -62t-83.5 -23q-39 0 -72 20t-52.5 59t-19.5 93q0 72 34 126t85.5 83t104.5 29q26 0 51 -8t45 -22q17 9 28 26q1 2 5 0.5t4 -3.5v-286
q0 -34 8 -48.5t27 -14.5q15 0 53 15h2zM337 90v204q0 37 -31.5 61t-71.5 24q-60 0 -96 -52.5t-36 -135.5q0 -76 30.5 -122t81.5 -46q58 0 123 67z" />
    <glyph glyph-name="atilde" unicode="&#xe3;" horiz-adv-x="490" 
d="M128 479q-2 0 -4 3t-1 5q48 62 86 62q16 0 49 -11q4 -1 28 -7.5t48 -6.5q16 0 26 6.5t23 20.5h1q3 0 5 -2.5t1 -4.5q-26 -36 -43.5 -49t-36.5 -13q-23 0 -60 11q-4 1 -25.5 7t-45.5 6q-17 0 -25.5 -5.5t-23.5 -20.5q0 -1 -2 -1zM483 58q4 0 5.5 -4.5t-1.5 -6.5l-117 -55
l-5 -1q-9 0 -18 23.5t-10 59.5q-36 -39 -73.5 -62t-83.5 -23q-39 0 -72 20t-52.5 59t-19.5 93q0 72 34 126t85.5 83t104.5 29q26 0 51 -8t45 -22q17 9 28 26q1 2 5 0.5t4 -3.5v-286q0 -34 8 -48.5t27 -14.5q15 0 53 15h2zM337 90v204q0 37 -31.5 61t-71.5 24
q-60 0 -96 -52.5t-36 -135.5q0 -76 30.5 -122t81.5 -46q58 0 123 67z" />
    <glyph glyph-name="ae" unicode="&#xe6;" horiz-adv-x="626" 
d="M584 54q3 0 6 -3.5t0 -6.5q-32 -30 -63.5 -43t-70.5 -13q-51 0 -90.5 24t-58.5 72q-33 -43 -69 -70t-82 -27q-50 0 -85 40t-35 109q0 91 38 149.5t91 84.5t100 26q29 0 58 -10t48 -32q51 41 116 41q50 0 76.5 -26.5t26.5 -72.5q0 -12 -2.5 -18t-8.5 -6l-220 -1
q-5 -28 -5 -56q0 -97 34.5 -147t95.5 -50q31 0 55 8.5t44 27.5h1zM248 40q27 20 55 56q-10 35 -10 74q0 75 31 129q-16 43 -37.5 61t-54.5 18t-63 -23t-48.5 -70.5t-18.5 -117.5q0 -68 24.5 -107.5t64.5 -39.5q30 0 57 20zM395.5 351.5q-23.5 -23.5 -33.5 -66.5l159 4
q-1 41 -19 63.5t-49 22.5q-34 0 -57.5 -23.5z" />
    <glyph glyph-name="aeacute" unicode="&#x1fd;" horiz-adv-x="626" 
d="M334 472q-3 0 -5.5 1.5t-1.5 2.5l52 240q1 4 20 9.5t32 5.5q10 0 9 -4l-102 -253q0 -2 -4 -2zM585 54q3 0 5.5 -3.5t0.5 -6.5q-33 -30 -64.5 -43t-70.5 -13q-52 0 -91 24t-57 73q-33 -44 -69 -71t-82 -27q-51 0 -86 40t-35 109q0 91 38 149.5t91 84.5t100 26q29 0 58 -10
t48 -32q26 21 56.5 31t60.5 10q48 0 75.5 -26.5t27.5 -72.5q0 -23 -12 -23h-47l-173 -2q-5 -28 -5 -56q0 -97 34.5 -147t95.5 -50q32 0 56 8.5t44 27.5h1zM304 97q-10 30 -10 73q0 75 31 129q-16 43 -37.5 61t-54.5 18t-63 -23t-49 -70.5t-19 -117.5q0 -68 25 -107.5
t65 -39.5q53 0 112 77zM395.5 351.5q-23.5 -23.5 -34.5 -66.5l160 4q-1 41 -19 63.5t-48 22.5q-35 0 -58.5 -23.5z" />
    <glyph glyph-name="uni01E3" unicode="&#x1e3;" horiz-adv-x="626" 
d="M208 497q0 14 6 14h251q6 0 6 -14t-6 -14h-251q-6 0 -6 14zM585 54q3 0 5.5 -3.5t0.5 -6.5q-33 -30 -64.5 -43t-70.5 -13q-52 0 -91 24t-57 73q-33 -44 -69 -71t-82 -27q-51 0 -86 40t-35 109q0 91 38 149.5t91 84.5t100 26q29 0 58 -10t48 -32q26 21 56.5 31t60.5 10
q48 0 75.5 -26.5t27.5 -72.5q0 -23 -12 -23h-47l-173 -2q-5 -28 -5 -56q0 -97 34.5 -147t95.5 -50q32 0 56 8.5t44 27.5h1zM304 97q-10 30 -10 73q0 75 31 129q-16 43 -37.5 61t-54.5 18t-63 -23t-49 -70.5t-19 -117.5q0 -68 25 -107.5t65 -39.5q53 0 112 77zM395.5 351.5
q-23.5 -23.5 -34.5 -66.5l160 4q-1 41 -19 63.5t-48 22.5q-35 0 -58.5 -23.5z" />
    <glyph glyph-name="b" unicode="b" horiz-adv-x="509" 
d="M392.5 378q36.5 -21 58.5 -63t22 -101q0 -72 -31.5 -123.5t-82 -77.5t-106.5 -26q-75 0 -137 44l-75 -35l-2 -1q-4 0 -4.5 4t1.5 6q32 22 45 41.5t13 56.5v494q0 36 -7 52t-25 16q-19 0 -46 -13h-2q-4 0 -5.5 5t2.5 6l125 61l5 1q2 0 5.5 -2.5t3.5 -5.5v-405
q38 40 76 63.5t87 23.5q43 0 79.5 -21zM374.5 51q32.5 45 32.5 130q0 89 -35 137t-93 48q-34 0 -65 -18.5t-64 -51.5v-165q0 -43 21.5 -71t53 -41t59.5 -13q58 0 90.5 45z" />
    <glyph glyph-name="c" unicode="c" horiz-adv-x="411" 
d="M122 16.5q-44 28.5 -65 73.5t-21 95q0 64 32.5 111.5t83 73t103.5 25.5q46 0 81 -17.5t35 -43.5q0 -13 -9.5 -22.5t-25.5 -9.5q-26 0 -44 32q-12 21 -27.5 31t-43.5 10q-56 0 -87.5 -43.5t-31.5 -116.5q0 -83 42 -137.5t127 -54.5q60 0 101 33h2q3 0 5.5 -3t-0.5 -5
q-35 -32 -70 -46t-78 -14q-65 0 -109 28.5z" />
    <glyph glyph-name="cacute" unicode="&#x107;" horiz-adv-x="411" 
d="M216 472.5q-5 1.5 -4 3.5l51 240q1 4 20.5 9.5t32.5 5.5q9 0 8 -4l-102 -253q-1 -3 -6 -1.5zM122.5 16.5q-44.5 28.5 -65.5 73.5t-21 95q0 64 32.5 111.5t83 73t103.5 25.5q44 0 78.5 -16.5t37.5 -42.5q1 -14 -8.5 -24t-26.5 -10q-27 0 -44 33q-13 20 -28 30t-43 10
q-56 0 -87.5 -43.5t-31.5 -116.5q0 -84 42 -138.5t126 -54.5q60 0 102 34h1q3 0 5.5 -3t0.5 -5q-35 -32 -70 -46t-77 -14q-65 0 -109.5 28.5z" />
    <glyph glyph-name="ccaron" unicode="&#x10d;" horiz-adv-x="411" 
d="M149.5 730q5.5 1 6.5 -1l69 -165l68 165q0 1 3 1q8 0 7 -4l-68 -249q0 -5 -11 -5q-9 0 -11 5l-68 249q-1 3 4.5 4zM122.5 16.5q-44.5 28.5 -65.5 73.5t-21 95q0 64 32.5 111.5t83 73t103.5 25.5q44 0 78.5 -16.5t37.5 -42.5q1 -14 -8.5 -24t-26.5 -10q-27 0 -44 33
q-13 20 -28 30t-43 10q-56 0 -87.5 -43.5t-31.5 -116.5q0 -84 42 -138.5t126 -54.5q60 0 102 34h1q3 0 5.5 -3t0.5 -5q-35 -32 -70 -46t-77 -14q-65 0 -109.5 28.5z" />
    <glyph glyph-name="ccedilla" unicode="&#xe7;" horiz-adv-x="411" 
d="M225 -12q-11 -35 -11 -47q0 -13 8 -20t35 -23q26 -15 40.5 -32.5t14.5 -44.5q0 -37 -26 -66.5t-77 -29.5q-28 0 -46.5 10t-18.5 29q0 12 9 20.5t21 8.5q11 0 17 -5.5t12 -16.5q7 -13 14.5 -19.5t22.5 -6.5q33 0 33 37q0 27 -18.5 47.5t-66.5 46.5q-14 7 -14 13q0 4 5 17
q13 33 31 83q-58 5 -97 34t-58 72t-19 90q0 64 32.5 111.5t83 73t103.5 25.5q44 0 78.5 -16.5t37.5 -42.5q1 -14 -8.5 -24t-26.5 -10q-27 0 -44 33q-13 20 -28 30t-43 10q-56 0 -87.5 -43.5t-31.5 -116.5q0 -84 42 -138.5t126 -54.5q60 0 102 34h1q3 0 5.5 -3t0.5 -5
q-35 -32 -70 -46t-77 -14h-7z" />
    <glyph glyph-name="ccircumflex" unicode="&#x109;" horiz-adv-x="411" 
d="M300 472.5q-5 -1.5 -6 1.5l-68 165l-69 -165q0 -2 -4 -2q-3 0 -5.5 1.5t-1.5 2.5l68 249q1 5 11 5t11 -5l68 -249q1 -2 -4 -3.5zM122.5 16.5q-44.5 28.5 -65.5 73.5t-21 95q0 64 32.5 111.5t83 73t103.5 25.5q44 0 78.5 -16.5t37.5 -42.5q1 -14 -8.5 -24t-26.5 -10
q-27 0 -44 33q-13 20 -28 30t-43 10q-56 0 -87.5 -43.5t-31.5 -116.5q0 -84 42 -138.5t126 -54.5q60 0 102 34h1q3 0 5.5 -3t0.5 -5q-35 -32 -70 -46t-77 -14q-65 0 -109.5 28.5z" />
    <glyph glyph-name="cdotaccent" unicode="&#x10b;" horiz-adv-x="411" 
d="M192 522.5q-12 11.5 -12 31.5t12 31t33 11q20 0 31 -11t11 -31t-11 -31.5t-31 -11.5q-21 0 -33 11.5zM122.5 16.5q-44.5 28.5 -65.5 73.5t-21 95q0 64 32.5 111.5t83 73t103.5 25.5q44 0 78.5 -16.5t37.5 -42.5q1 -14 -8.5 -24t-26.5 -10q-27 0 -44 33q-13 20 -28 30
t-43 10q-56 0 -87.5 -43.5t-31.5 -116.5q0 -84 42 -138.5t126 -54.5q60 0 102 34h1q3 0 5.5 -3t0.5 -5q-35 -32 -70 -46t-77 -14q-65 0 -109.5 28.5z" />
    <glyph glyph-name="d" unicode="d" horiz-adv-x="513" 
d="M507 57q3 0 4.5 -5t-1.5 -7l-110 -52q-6 -2 -8 -2q-13 0 -22 22t-10 61q-37 -39 -77.5 -63t-90.5 -24q-42 0 -77.5 24t-57 67.5t-21.5 99.5q0 71 35 121t88 75t106 25q52 0 95 -26v224q0 36 -7.5 52t-25.5 16q-13 0 -46 -14h-2q-4 0 -5.5 5t2.5 6l126 62l5 1
q2 0 5.5 -2.5t3.5 -5.5v-608q0 -36 8.5 -51.5t27.5 -15.5q26 0 53 14zM298 40.5q31 17.5 62 49.5v219q-24 34 -53 52t-70 18q-63 0 -99.5 -44.5t-36.5 -126.5q0 -55 17 -97t46.5 -65t66.5 -23q36 0 67 17.5z" />
    <glyph glyph-name="eth" unicode="&#xf0;" horiz-adv-x="470" 
d="M403 405q35 -89 35 -178q0 -120 -61 -180t-154 -60q-57 0 -100.5 27t-66.5 72.5t-23 99.5q0 69 31.5 117t79.5 72t96 24q59 0 105 -33q-31 100 -86 182l-134 -64q-4 -2 -7.5 8.5t0.5 12.5l128 61q-69 95 -156 150q-2 2 -2 3q0 2 2.5 4.5t5.5 1.5q106 -48 192 -139l103 49
h1q5 0 8 -9.5t-1 -11.5l-96 -45q65 -75 100 -164zM340 48q31 42 31 143q0 51 -10 109q-21 38 -55.5 59t-76.5 21q-56 0 -93.5 -44t-37.5 -121q0 -57 19 -104.5t54 -76t80 -28.5q58 0 89 42z" />
    <glyph glyph-name="dcaron" unicode="&#x10f;" horiz-adv-x="513" 
d="M502.5 721q13.5 -6 26 -15t12.5 -14l-33 -243q0 -2 -5 -1.5t-5 2.5l-9 272q0 5 13.5 -1zM506 57q4 0 5.5 -4.5t-1.5 -6.5l-110 -53q-4 -2 -8 -2q-13 0 -22 22t-10 61q-37 -39 -77.5 -63t-90.5 -24q-42 0 -77.5 24t-57 67.5t-21.5 99.5q0 71 35 121t88 75t105 25t96 -27
v224q0 37 -7.5 53t-26.5 16q-13 0 -45 -15h-1q-5 0 -6.5 5.5t2.5 6.5l126 62l5 1q3 0 6 -3t3 -5v-608q0 -36 8.5 -51.5t28.5 -15.5q28 0 51 14zM298 40.5q31 17.5 62 49.5v219q-24 34 -53 52t-70 18q-63 0 -99.5 -44.5t-36.5 -127.5q0 -55 17 -96.5t47 -64.5t67 -23
q35 0 66 17.5z" />
    <glyph glyph-name="dcroat" unicode="&#x111;" horiz-adv-x="511" 
d="M506 57q4 0 5.5 -4.5t-1.5 -6.5l-110 -53q-4 -2 -8 -2q-13 0 -22 22t-10 61q-37 -39 -77.5 -63t-90.5 -24q-42 0 -77.5 24t-57 67.5t-21.5 99.5q0 71 35 121t88 75t105 25t96 -27v129h-169q-5 0 -5 11q0 4 1.5 7t3.5 3h169v74q0 37 -7.5 53t-26.5 16q-13 0 -45 -15h-1
q-5 0 -6.5 5.5t2.5 6.5l126 62l5 1q3 0 6 -3t3 -5v-195h66q5 0 5 -10q0 -11 -5 -11h-66v-392q0 -36 8.5 -51.5t28.5 -15.5q28 0 51 14zM298 40.5q31 17.5 62 49.5v219q-24 34 -53 52t-70 18q-63 0 -99.5 -44.5t-36.5 -127.5q0 -55 17 -96.5t47 -64.5t67 -23q35 0 66 17.5z
" />
    <glyph glyph-name="uni1E0D" unicode="&#x1e0d;" horiz-adv-x="513" 
d="M506 57q4 0 5.5 -4.5t-1.5 -6.5l-110 -53q-4 -2 -8 -2q-13 0 -22 22t-10 61q-37 -39 -77.5 -63t-90.5 -24q-42 0 -77.5 24t-57 67.5t-21.5 99.5q0 71 35 121t88 75t105 25t96 -27v224q0 37 -7.5 53t-26.5 16q-13 0 -45 -15h-1q-5 0 -6.5 5.5t2.5 6.5l126 62l5 1q3 0 6 -3
t3 -5v-608q0 -36 8.5 -51.5t28.5 -15.5q28 0 51 14zM298 40.5q31 17.5 62 49.5v219q-24 34 -53 52t-70 18q-63 0 -99.5 -44.5t-36.5 -127.5q0 -55 17 -96.5t47 -64.5t67 -23q35 0 66 17.5zM289.5 -116.5q11.5 -11.5 11.5 -30.5q0 -20 -11.5 -32t-31.5 -12q-21 0 -32.5 12
t-11.5 32q0 19 11.5 30.5t32.5 11.5q20 0 31.5 -11.5z" />
    <glyph glyph-name="uni1E0F" unicode="&#x1e0f;" horiz-adv-x="513" 
d="M506 57q4 0 5.5 -4.5t-1.5 -6.5l-110 -53q-4 -2 -8 -2q-13 0 -22 22t-10 61q-37 -39 -77.5 -63t-90.5 -24q-42 0 -77.5 24t-57 67.5t-21.5 99.5q0 71 35 121t88 75t105 25t96 -27v224q0 37 -7.5 53t-26.5 16q-13 0 -45 -15h-1q-5 0 -6.5 5.5t2.5 6.5l126 62l5 1q3 0 6 -3
t3 -5v-608q0 -36 8.5 -51.5t28.5 -15.5q28 0 51 14zM298 40.5q31 17.5 62 49.5v219q-24 34 -53 52t-70 18q-63 0 -99.5 -44.5t-36.5 -127.5q0 -55 17 -96.5t47 -64.5t67 -23q35 0 66 17.5zM389 -99q0 -14 -7 -14h-251q-6 0 -6 14t6 14h251q7 0 7 -14z" />
    <glyph glyph-name="e" unicode="e" horiz-adv-x="407" 
d="M364 57q3 0 5.5 -4t0.5 -6q-35 -31 -70.5 -45t-75.5 -14q-59 0 -101.5 26.5t-64.5 70.5t-22 95q0 59 28.5 108.5t77.5 78t109 28.5q54 0 84 -26.5t30 -72.5q0 -12 -2.5 -18t-9.5 -6l-246 -1q-5 -27 -5 -52q0 -87 42 -141.5t115 -54.5q56 0 104 33zM148.5 351.5
q-27.5 -23.5 -38.5 -66.5l186 4q-1 41 -22 63.5t-57 22.5q-41 0 -68.5 -23.5z" />
    <glyph glyph-name="eacute" unicode="&#xe9;" horiz-adv-x="407" 
d="M218 472.5q-5 1.5 -4 3.5l51 240q1 4 20.5 9.5t32.5 5.5q9 0 8 -4l-102 -253q-1 -3 -6 -1.5zM364 56q3 0 5.5 -3.5t0.5 -5.5q-67 -59 -147 -59q-59 0 -101 27t-64 71t-22 94q0 60 28.5 109t77.5 77.5t109 28.5q54 0 84 -26.5t30 -72.5q0 -12 -2.5 -17.5t-9.5 -5.5
l-246 -2q-5 -27 -5 -52q0 -87 42 -141.5t116 -54.5q55 0 103 33h1zM148 351.5q-27 -23.5 -38 -66.5l186 4q0 41 -21.5 63.5t-58.5 22.5q-41 0 -68 -23.5z" />
    </font>
</defs>
</svg>
